<svg width="84" height="90" viewBox="0 0 84 90" fill="none" xmlns="http://www.w3.org/2000/svg">
    <path
        d="M74.3154 76.7073L55.0345 72.8416V68.806C60.5175 65.3804 64.4318 59.9261 65.9284 53.6262C66.8934 53.4532 67.771 52.9561 68.4165 52.2167C70.1742 52.1304 71.84 51.4044 73.1016 50.1747C74.3632 48.9451 75.1338 47.2963 75.2688 45.5377C75.4039 43.779 74.8942 42.0314 73.8353 40.6227C72.7763 39.214 71.241 38.2409 69.5172 37.8861V34.5705C70.3615 34.2714 71.0928 33.7181 71.6113 32.9863C72.1298 32.2546 72.4101 31.3802 72.4138 30.4827V24.6761C72.4138 24.2911 72.2612 23.9219 71.9896 23.6497C71.718 23.3774 71.3496 23.2245 70.9655 23.2245C70.9667 21.9471 70.6234 20.6932 69.972 19.5954C70.6234 18.4975 70.9667 17.2436 70.9655 15.9663C70.9632 14.2725 70.371 12.6326 69.2912 11.3298C68.2113 10.0269 66.7116 9.14279 65.0508 8.83C64.7387 7.16534 63.8566 5.6621 62.5568 4.57974C61.2569 3.49738 59.6209 2.90381 57.931 2.9015C57.4716 2.90391 57.0136 2.95254 56.5639 3.04666C56.0075 2.25612 55.2977 1.5862 54.477 1.07699C53.6564 0.567782 52.7416 0.229744 51.7876 0.0831062C50.8335 -0.0635319 49.8598 -0.0157563 48.9246 0.223574C47.9894 0.462905 47.112 0.888871 46.3448 1.47599C45.0848 0.549287 43.5628 0.049607 42 0.049607C40.4372 0.049607 38.9151 0.549287 37.6552 1.47599C36.888 0.888871 36.0106 0.462905 35.0754 0.223574C34.1402 -0.0157563 33.1665 -0.0635319 32.2124 0.0831062C31.2584 0.229744 30.3436 0.567782 29.523 1.07699C28.7023 1.5862 27.9925 2.25612 27.4361 3.04666C26.9864 2.95254 26.5284 2.90391 26.069 2.9015C24.3791 2.90381 22.7431 3.49738 21.4432 4.57974C20.1434 5.6621 19.2613 7.16534 18.9492 8.83C17.2884 9.14279 15.7887 10.0269 14.7088 11.3298C13.629 12.6326 13.0368 14.2725 13.0345 15.9663C13.0332 17.2436 13.3764 18.4976 14.028 19.5954C13.3764 20.6932 13.0332 21.9471 13.0345 23.2245C12.6504 23.2245 12.282 23.3774 12.0104 23.6497C11.7388 23.9219 11.5862 24.2911 11.5862 24.6761V30.4827C11.5899 31.3802 11.8702 32.2546 12.3887 32.9863C12.9072 33.7181 13.6385 34.2714 14.4828 34.5705V37.8861C12.7552 38.2373 11.2153 39.2093 10.1528 40.6191C9.09039 42.029 8.57863 43.7794 8.7139 45.541C8.84916 47.3026 9.62211 48.954 10.8873 50.1842C12.1525 51.4145 13.8226 52.1389 15.5834 52.221C16.229 52.9605 17.1066 53.4576 18.0716 53.6306C19.5692 59.9288 23.4834 65.3814 28.9655 68.806V72.8416L9.68462 76.7073C6.95633 77.2603 4.5023 78.7408 2.73761 80.8984C0.972913 83.0561 0.00585708 85.7584 0 88.5484C0 88.9334 0.152586 89.3026 0.42419 89.5748C0.695794 89.8471 1.06417 90 1.44828 90H82.5517C82.9358 90 83.3042 89.8471 83.5758 89.5748C83.8474 89.3026 84 88.9334 84 88.5484C83.9939 85.7585 83.0267 83.0563 81.2621 80.8987C79.4974 78.7411 77.0435 77.2605 74.3154 76.7073ZM72.4138 44.9991C72.4101 45.8966 72.1298 46.771 71.6113 47.5028C71.0928 48.2345 70.3615 48.7878 69.5172 49.0869V40.9113C70.3615 41.2104 71.0928 41.7637 71.6113 42.4955C72.1298 43.2272 72.4101 44.1016 72.4138 44.9991ZM69.5172 30.4827C69.515 30.6615 69.4792 30.8383 69.4115 31.0038C69.2 30.0343 68.6644 29.1663 67.8935 28.5436C67.1225 27.9208 66.1625 27.5806 65.1724 27.5794C65.1663 27.0887 65.0972 26.6008 64.9668 26.1278H69.5172V30.4827ZM21.7241 27.5794C21.7241 26.8094 22.0293 26.0709 22.5725 25.5265C23.1157 24.982 23.8525 24.6761 24.6207 24.6761H59.3793C60.1475 24.6761 60.8843 24.982 61.4275 25.5265C61.9707 26.0709 62.2759 26.8094 62.2759 27.5794H21.7241ZM14.4828 30.4827V26.1278H19.0332C18.9028 26.6008 18.8337 27.0887 18.8276 27.5794C17.8375 27.5806 16.8775 27.9208 16.1065 28.5436C15.3356 29.1663 14.8 30.0343 14.5885 31.0038C14.5208 30.8383 14.485 30.6615 14.4828 30.4827ZM17.3793 31.9343C17.3793 31.5493 17.5319 31.1801 17.8035 30.9079C18.0751 30.6356 18.4435 30.4827 18.8276 30.4827H28.3659L17.3793 41.4948V31.9343ZM47.4339 4.4083C47.9 3.86147 48.4953 3.44038 49.1656 3.18348C49.8358 2.92658 50.5595 2.84205 51.2707 2.93761C51.9819 3.03318 52.6579 3.30579 53.2369 3.73056C53.8159 4.15533 54.2796 4.71872 54.5855 5.36929C54.7431 5.69615 55.0171 5.95199 55.3535 6.08634C55.69 6.2207 56.0645 6.22383 56.4031 6.09511C57.0594 5.83992 57.768 5.74962 58.467 5.83207C59.1661 5.91451 59.8344 6.16721 60.4137 6.56811C60.9929 6.96901 61.4655 7.50591 61.7901 8.13196C62.1147 8.75801 62.2814 9.45418 62.2759 10.1597C62.2759 10.5447 62.4284 10.9139 62.7001 11.1862C62.9717 11.4584 63.34 11.6113 63.7241 11.6113C64.8765 11.6113 65.9816 12.0702 66.7964 12.8869C67.6112 13.7036 68.069 14.8113 68.069 15.9663C68.0642 16.9588 67.7168 17.919 67.0856 18.6837C66.8777 18.9419 66.7644 19.2636 66.7644 19.5954C66.7644 19.9271 66.8777 20.2488 67.0856 20.507C67.7168 21.2718 68.0642 22.232 68.069 23.2245H63.1709C62.1254 22.2942 60.7773 21.7781 59.3793 21.7728H46.3448V4.88154C46.5495 4.8848 46.7525 4.84428 46.9403 4.76267C47.1281 4.68107 47.2964 4.56026 47.4339 4.4083ZM43.4483 3.2165V21.7728H40.5517V3.2165C41.49 2.89131 42.51 2.89131 43.4483 3.2165ZM16.913 18.6837C16.2822 17.9189 15.9352 16.9586 15.931 15.9663C15.931 14.8113 16.3888 13.7036 17.2036 12.8869C18.0184 12.0702 19.1235 11.6113 20.2759 11.6113C20.66 11.6113 21.0283 11.4584 21.2999 11.1862C21.5716 10.9139 21.7241 10.5447 21.7241 10.1597C21.7182 9.45406 21.8848 8.7577 22.2093 8.13145C22.5338 7.50521 23.0063 6.96814 23.5857 6.56718C24.165 6.16621 24.8335 5.91354 25.5327 5.83125C26.232 5.74896 26.9407 5.83955 27.5969 6.09511C27.9355 6.22383 28.31 6.2207 28.6465 6.08634C28.9829 5.95199 29.2569 5.69615 29.4145 5.36929C29.7198 4.71831 30.1831 4.1544 30.7618 3.72905C31.3406 3.3037 32.0164 3.03047 32.7277 2.93433C33.4389 2.83818 34.1628 2.92217 34.8333 3.17864C35.5038 3.4351 36.0996 3.85587 36.5661 4.40249C36.7031 4.55551 36.8711 4.6774 37.059 4.76002C37.2468 4.84264 37.4501 4.88407 37.6552 4.88154V21.7728H24.6207C23.2227 21.7781 21.8746 22.2942 20.8291 23.2245H15.931C15.9352 22.2321 16.2822 21.2719 16.913 20.507C17.1208 20.2488 17.2342 19.9271 17.2342 19.5954C17.2342 19.2636 17.1208 18.9419 16.913 18.6837ZM11.5862 44.9991C11.5899 44.1016 11.8702 43.2272 12.3887 42.4955C12.9072 41.7637 13.6385 41.2104 14.4828 40.9113V49.0869C13.6385 48.7878 12.9072 48.2345 12.3887 47.5028C11.8702 46.771 11.5899 45.8966 11.5862 44.9991ZM17.3793 49.354V45.6001L32.4617 30.4827H37.0556L33.7347 33.8113L35.7826 35.8639L41.1513 30.4827H65.1724C65.5565 30.4827 65.9249 30.6356 66.1965 30.9079C66.4681 31.1801 66.6207 31.5493 66.6207 31.9343V49.354C66.6207 49.739 66.4681 50.1083 66.1965 50.3805C65.9249 50.6527 65.5565 50.8057 65.1724 50.8057H48.3927L43.0239 45.4244C42.7523 45.1523 42.384 44.9994 42 44.9994C41.616 44.9994 41.2477 45.1523 40.9761 45.4244L35.6073 50.8057H18.8276C18.4435 50.8057 18.0751 50.6527 17.8035 50.3805C17.5319 50.1083 17.3793 49.739 17.3793 49.354ZM21.0623 53.709H36.2069C36.591 53.7089 36.9593 53.5559 37.2308 53.2836L42 48.5034L46.7692 53.2836C47.0407 53.5559 47.409 53.7089 47.7931 53.709H62.9377C61.6707 58.2997 58.9368 62.3474 55.155 65.2317C51.3732 68.1161 46.7521 69.6779 42 69.6779C37.2479 69.6779 32.6268 68.1161 28.845 65.2317C25.0632 62.3474 22.3293 58.2997 21.0623 53.709ZM42 72.5803C45.4972 72.5797 48.9538 71.8293 52.1379 70.3796V73.2277L42 79.5787L31.8621 73.2277V70.3796C35.0462 71.8293 38.5028 72.5797 42 72.5803ZM3.01241 87.0967C3.31071 85.2498 4.16359 83.5379 5.45735 82.1893C6.75112 80.8407 8.42428 79.9193 10.2538 79.5482L30.1343 75.562L41.2324 82.5153C41.4626 82.6595 41.7286 82.736 42 82.736C42.2714 82.736 42.5374 82.6595 42.7676 82.5153L53.8657 75.562L73.7462 79.5482C75.5757 79.9193 77.2489 80.8407 78.5426 82.1893C79.8364 83.5379 80.6893 85.2498 80.9876 87.0967H3.01241Z"
        fill="black" />
</svg>