<svg width="111" height="92" viewBox="0 0 111 92" fill="none" xmlns="http://www.w3.org/2000/svg">
    <path fill-rule="evenodd" clip-rule="evenodd"
        d="M29.0621 26.5036C28.9891 27.2153 28.3504 27.7309 27.6432 27.6533C26.9315 27.5803 26.4159 26.9416 26.4889 26.2298C26.9862 21.6947 28.5466 17.342 31.0468 13.5231L30.8917 13.5049C30.1936 13.4228 29.491 13.3817 28.7884 13.3817C24.5817 13.3863 20.5075 14.8736 17.2908 17.5884C14.0743 20.2985 11.9162 24.0626 11.2045 28.2099C10.4927 32.3572 11.2684 36.6231 13.3945 40.2543C13.6317 40.6512 13.6409 41.1485 13.4127 41.5501C13.1892 41.9561 12.7649 42.2071 12.2995 42.2116C6.95229 42.3302 2.6863 46.7194 2.73197 52.0712C2.77303 57.4229 7.10741 61.7436 12.4592 61.7756H25.3305V57.7743C25.3305 55.899 26.8498 54.3844 28.7249 54.3798H34.0858V51.8705H28.7249C26.8497 51.8705 25.3351 50.3512 25.3305 48.4806V37.8774C25.3351 36.0068 26.8498 34.4875 28.7249 34.4875H82.0966C83.9718 34.4875 85.4865 36.0069 85.491 37.8774V48.4761C85.4865 50.3513 83.9717 51.8659 82.0966 51.8705H76.7357V54.3798H82.0966C83.9718 54.3798 85.491 55.8992 85.491 57.7697V61.771H98.3624C103.659 61.7619 107.98 57.5416 108.122 52.2492C108.258 46.9567 104.166 42.5129 98.8779 42.2254C98.481 42.2163 98.1114 42.0292 97.8696 41.7098C97.6324 41.395 97.5502 40.9844 97.6506 40.6012C97.8194 39.9578 97.9472 39.3054 98.0339 38.6438C98.116 37.9777 98.1571 37.3116 98.1571 36.6409C98.1571 32.5302 96.5237 28.5882 93.622 25.6864C90.7156 22.7801 86.7736 21.1468 82.6674 21.1468H82.1382C82.0104 21.1468 81.8325 21.1604 81.6135 21.1741H81.6089C81.034 21.2152 80.5048 20.8684 80.3086 20.3255C77.5528 12.7837 71.5258 6.89821 63.9204 4.31576C56.3193 1.73799 47.9515 2.74621 41.176 7.05332C34.4007 11.3649 29.9431 18.5143 29.058 26.4946L29.0621 26.5036ZM74.1445 51.8713V54.3806H72.7986V51.8713H74.1445ZM76.7406 71.7635L76.736 74.2728H82.0969C83.9721 74.2728 85.4868 75.7922 85.4914 77.6627V88.2613C85.4914 90.1366 83.972 91.6558 82.0969 91.6558H28.7253C26.85 91.6558 25.3308 90.1364 25.3308 88.2613V77.6627C25.3354 75.792 26.8502 74.2728 28.7253 74.2728H34.0861V71.7635H28.7253C26.85 71.7635 25.3308 70.2442 25.3308 68.3691V64.3677H12.4595C6.06284 64.3586 0.724622 59.4767 0.154639 53.103C-0.420238 46.7338 3.95974 40.9757 10.2514 39.8263C9.76777 38.7861 9.37083 37.7048 9.06973 36.5961C7.28585 30.0398 8.87354 23.0322 13.3083 17.8848C17.743 12.7374 24.4454 10.1332 31.1892 10.9316C31.723 10.9955 32.2431 11.0776 32.7587 11.178C39.2375 3.14344 49.4891 -0.858236 59.6951 0.661446C69.9059 2.17622 78.5477 8.99254 82.4068 18.5645H82.6714C87.8772 18.56 92.8275 20.7956 96.2634 24.7056C99.6944 28.6157 101.278 33.8169 100.602 38.9727C100.566 39.2556 100.525 39.5339 100.479 39.8076V39.8122C106.794 40.9163 111.219 46.6651 110.672 53.0573C110.12 59.4448 104.782 64.3586 98.3669 64.3723H85.492V68.369C85.4875 70.2443 83.9727 71.7589 82.0976 71.7635L76.7406 71.7635ZM74.1445 74.2728V71.7635H72.7986V74.2728H74.1445ZM70.2116 51.8706V54.3799H40.6146V51.8706H70.2116ZM70.2116 74.2728L70.2071 71.7635H40.6147V74.2728H70.2116ZM38.0228 51.8706V54.3799H36.6769V51.8706H38.0228ZM38.0228 74.2728V71.7635H36.6769V74.2728H38.0228ZM53.0876 26.2529C54.1963 25.1442 55.93 24.9754 57.2304 25.8469C58.5353 26.7137 59.0417 28.3836 58.4395 29.83C57.8418 31.2763 56.3043 32.0975 54.7667 31.7919C53.2337 31.4862 52.1251 30.1402 52.1296 28.5753C52.125 27.7039 52.4717 26.8689 53.0876 26.2529ZM55.4099 27.8863C55.6882 27.8817 55.9437 28.0505 56.0487 28.3106C56.1582 28.5661 56.0989 28.8626 55.9027 29.0634C55.6335 29.3326 55.1955 29.3326 54.9263 29.0634C54.6571 28.7942 54.6571 28.3562 54.9263 28.087C55.0541 27.9547 55.232 27.8817 55.4191 27.8862L55.4099 27.8863ZM49.1228 25.6324V25.6278C48.6118 26.0977 47.8225 26.0749 47.3344 25.5868C46.8462 25.094 46.828 24.3092 47.2933 23.7983C51.7782 19.3134 59.0504 19.3134 63.5355 23.7983C64.0419 24.3047 64.0419 25.1214 63.5355 25.6279C63.0291 26.1343 62.2078 26.1343 61.7014 25.6279C58.2293 22.1603 52.5992 22.1603 49.1267 25.6279L49.1228 25.6324ZM45.1444 21.6493C44.638 22.1557 43.8167 22.1557 43.3103 21.6493C42.8039 21.1428 42.8039 20.3216 43.3103 19.8152C46.5177 16.6077 50.8704 14.8055 55.4096 14.8055C59.9488 14.8055 64.3019 16.6077 67.5089 19.8152C68.0153 20.3216 68.0153 21.1428 67.5089 21.6493C67.0024 22.1557 66.1812 22.1557 65.6748 21.6493C62.951 18.9301 59.2599 17.3971 55.4091 17.3971C51.5583 17.3971 47.8683 18.9301 45.1444 21.6493ZM41.1613 17.6662V17.6707C40.6549 18.1772 39.8336 18.1772 39.3272 17.6707C38.8208 17.1643 38.8208 16.3431 39.3272 15.8366C43.5931 11.5707 49.3784 9.17541 55.4105 9.17541C61.4426 9.17541 67.2271 11.5707 71.4892 15.8366C71.9774 16.3476 71.9637 17.1506 71.4664 17.6479C70.9691 18.1453 70.166 18.1544 69.6596 17.6708C65.8773 13.893 60.7536 11.7669 55.4112 11.7669C50.0688 11.7669 44.9449 13.893 41.1628 17.6708L41.1613 17.6662ZM62.0942 82.052H73.3864C73.7377 82.0657 74.0753 81.9334 74.3308 81.687C74.5817 81.4452 74.7232 81.1076 74.7232 80.7563C74.7232 80.405 74.5817 80.0719 74.3308 79.8255C74.0753 79.5837 73.7377 79.4514 73.3864 79.4605H62.0942C61.3961 79.4833 60.8395 80.0582 60.8395 80.7563C60.8395 81.4589 61.3961 82.0338 62.0942 82.052ZM77.2875 82.052C77.6388 82.0657 77.9764 81.9334 78.2273 81.687C78.4828 81.4452 78.6243 81.1076 78.6243 80.7563C78.6243 80.405 78.4828 80.0719 78.2273 79.8255C77.9764 79.5837 77.6388 79.4514 77.2875 79.4605C76.5848 79.4833 76.0283 80.0582 76.0283 80.7563C76.0283 81.4589 76.5849 82.0338 77.2875 82.052ZM62.0942 86.4639H73.3864V86.4685C74.1027 86.4685 74.6821 85.889 74.6821 85.1727C74.6821 84.4518 74.1027 83.8724 73.3864 83.8724H62.0942C61.3778 83.8724 60.7984 84.4518 60.7984 85.1727C60.7984 85.889 61.3778 86.4685 62.0942 86.4685V86.4639ZM77.2875 86.4685C78.0038 86.4685 78.5832 85.889 78.5832 85.1727C78.5832 84.4518 78.0038 83.8724 77.2875 83.8724C76.5711 83.8724 75.9871 84.4518 75.9871 85.1727C75.9871 85.889 76.5711 86.4685 77.2875 86.4685ZM47.8002 78.0689C45.4642 78.0689 43.4521 79.7206 43.0004 82.0109C42.5442 84.3013 43.7669 86.5917 45.925 87.4859C48.0831 88.3802 50.5696 87.6273 51.8699 85.6837C53.1656 83.7446 52.9101 81.1532 51.2585 79.506C50.3414 78.5844 49.0959 78.0689 47.8002 78.0689ZM49.4244 81.3357C48.6488 80.5601 47.4352 80.4415 46.5226 81.0528C45.6101 81.6596 45.2543 82.8322 45.674 83.845C46.0938 84.8579 47.1704 85.4328 48.2472 85.2184C49.324 85.004 50.0996 84.0595 50.0996 82.9645C50.0996 82.3531 49.8578 81.7692 49.4244 81.3357ZM37.1289 78.0689C34.7975 78.0689 32.7853 79.7206 32.3291 82.0109C31.8729 84.3013 33.1002 86.5917 35.2582 87.4859C37.4163 88.3802 39.9029 87.6273 41.1985 85.6837C42.4989 83.7446 42.2434 81.1532 40.5917 79.506C39.6747 78.5844 38.4291 78.0689 37.1289 78.0689ZM38.7577 81.3357C37.982 80.5601 36.7639 80.4415 35.8513 81.0528C34.9388 81.6596 34.5876 82.8322 35.0073 83.845C35.427 84.8579 36.5037 85.4328 37.5805 85.2184C38.6572 85.004 39.4328 84.0595 39.4328 82.9645C39.4328 82.3531 39.1911 81.7692 38.7577 81.3357ZM82.0973 76.8645H28.7256C28.2831 76.869 27.9272 77.2249 27.9226 77.6629V88.2616C27.9272 88.7041 28.2831 89.06 28.7256 89.06H82.0973C82.5398 89.06 82.8957 88.7041 82.9003 88.2616V77.6629C82.8957 77.2249 82.5398 76.869 82.0973 76.8645ZM62.0953 62.1641C61.379 62.1641 60.7995 61.5846 60.7995 60.8683C60.7995 60.1519 61.379 59.568 62.0953 59.568H73.3875C74.1038 59.568 74.6833 60.152 74.6833 60.8683C74.6833 61.5846 74.1039 62.1641 73.3875 62.1641H62.0953ZM77.2886 62.1641C76.5723 62.1641 75.9883 61.5846 75.9883 60.8683C75.9883 60.1519 76.5723 59.568 77.2886 59.568C78.005 59.568 78.5844 60.152 78.5844 60.8683C78.5844 61.5846 78.005 62.1641 77.2886 62.1641ZM62.0953 66.5759H73.3875C73.7388 66.5851 74.0765 66.4528 74.332 66.2109C74.5829 65.9646 74.7243 65.6315 74.7243 65.2802C74.7243 64.9289 74.5829 64.5913 74.332 64.3494C74.0765 64.1031 73.7388 63.9708 73.3875 63.9844H62.0953C61.3973 64.0027 60.8407 64.5776 60.8407 65.2802C60.8407 65.9783 61.3973 66.5531 62.0953 66.5759ZM77.2886 66.5759C77.6399 66.5851 77.9776 66.4528 78.2285 66.2109C78.484 65.9646 78.6254 65.6315 78.6254 65.2802C78.6254 64.9289 78.484 64.5913 78.2285 64.3494C77.9776 64.1031 77.6399 63.9708 77.2886 63.9844C76.586 64.0027 76.0294 64.5776 76.0294 65.2802C76.0294 65.9783 76.586 66.5531 77.2886 66.5759ZM47.8014 58.1764C50.1374 58.1764 52.1449 59.8281 52.6011 62.1184C53.0574 64.4087 51.8301 66.6992 49.6766 67.5934C47.5185 68.4876 45.0274 67.7348 43.7317 65.7912C42.4359 63.8521 42.6869 61.2652 44.3385 59.6135C45.2556 58.6919 46.5011 58.1764 47.8014 58.1764ZM49.4256 61.4477C50.2012 62.2234 50.3244 63.437 49.713 64.3495C49.1016 65.262 47.9337 65.6178 46.9208 65.1981C45.9079 64.7784 45.3285 63.7017 45.5429 62.6249C45.7573 61.5482 46.7018 60.7726 47.8013 60.7726C48.4081 60.7726 48.9967 61.0143 49.4256 61.4477ZM37.1301 58.1764C39.4661 58.1764 41.4782 59.8281 41.9344 62.1184C42.3906 64.4087 41.1633 66.6992 39.0053 67.5934C36.8517 68.4876 34.3606 67.7348 33.065 65.7912C31.7646 63.8521 32.0202 61.2652 33.6718 59.6135C34.5888 58.6919 35.8344 58.1764 37.1301 58.1764ZM38.7588 61.4477C39.5345 62.2234 39.6531 63.437 39.0463 64.3495C38.4349 65.262 37.2669 65.6178 36.2541 65.1981C35.2366 64.7784 34.6617 63.7017 34.8762 62.6249C35.0906 61.5482 36.035 60.7726 37.1301 60.7726C37.7414 60.7726 38.3299 61.0143 38.7588 61.4477ZM82.1066 56.972L82.1021 56.9765C82.5401 56.9765 82.8959 57.3324 82.9005 57.775V68.369C82.8959 68.8116 82.5401 69.1675 82.1021 69.1721H28.7257C28.2832 69.1675 27.9273 68.8116 27.9227 68.369V57.7704V57.775C27.9273 57.3324 28.2832 56.9765 28.7257 56.972L82.1066 56.972ZM62.0953 42.2715C61.3973 42.2487 60.8407 41.6739 60.8407 40.9758C60.8407 40.2732 61.3973 39.6982 62.0953 39.68H73.3875C73.7388 39.6663 74.0765 39.7986 74.332 40.045C74.5829 40.2868 74.7243 40.6244 74.7243 40.9757C74.7243 41.3271 74.5829 41.6601 74.332 41.9065C74.0765 42.1529 73.7388 42.2806 73.3875 42.2715L62.0953 42.2715ZM77.2886 42.2715C76.586 42.2487 76.0294 41.6739 76.0294 40.9758C76.0294 40.2732 76.586 39.6982 77.2886 39.68C77.6399 39.6663 77.9776 39.7986 78.2285 40.045C78.484 40.2868 78.6254 40.6244 78.6254 40.9757C78.6254 41.3271 78.484 41.6601 78.2285 41.9065C77.9776 42.1529 77.6399 42.2807 77.2886 42.2715ZM62.0953 46.6834C61.3973 46.6606 60.8407 46.0903 60.8407 45.3877C60.8407 44.685 61.3973 44.1148 62.0953 44.0919H73.3875C73.7388 44.0782 74.0765 44.2105 74.332 44.4569C74.5829 44.6987 74.7243 45.0363 74.7243 45.3876C74.7243 45.739 74.5829 46.0766 74.332 46.3184C74.0765 46.5648 73.7388 46.6971 73.3875 46.6834L62.0953 46.6834ZM77.2886 46.6834C76.586 46.6606 76.0294 46.0903 76.0294 45.3877C76.0294 44.685 76.586 44.1148 77.2886 44.0919C77.6399 44.0782 77.9776 44.2105 78.2285 44.4569C78.484 44.6987 78.6254 45.0363 78.6254 45.3876C78.6254 45.739 78.484 46.0766 78.2285 46.3184C77.9776 46.5648 77.6399 46.6971 77.2886 46.6834ZM47.8014 38.2884C50.1328 38.2884 52.1449 39.9356 52.6011 42.2259C53.0619 44.5162 51.8346 46.8066 49.6811 47.7054C47.523 48.5997 45.0365 47.8469 43.7363 45.9032C42.4359 43.9641 42.6915 41.3772 44.3385 39.7255C45.2556 38.8039 46.5011 38.2884 47.8014 38.2884ZM49.4256 41.5552C50.2012 42.3308 50.3244 43.549 49.713 44.4615C49.1016 45.374 47.9337 45.7253 46.9208 45.3056C45.9079 44.8859 45.3285 43.8092 45.5429 42.7324C45.7573 41.6556 46.7018 40.8801 47.8013 40.8801C48.4081 40.8801 48.9967 41.1218 49.4256 41.5552ZM37.1301 38.2884C39.4661 38.2884 41.4782 39.9356 41.9344 42.2259C42.3906 44.5162 41.1679 46.8066 39.0098 47.7054C36.8517 48.5997 34.3652 47.8469 33.065 45.9032C31.7692 43.9641 32.0202 41.3772 33.6718 39.7255C34.5888 38.8039 35.8344 38.2884 37.1301 38.2884ZM38.7588 41.5552C39.5345 42.3308 39.6531 43.549 39.0463 44.4615C38.4349 45.374 37.2669 45.7253 36.2541 45.3056C35.2366 44.8859 34.6617 43.8092 34.8762 42.7324C35.0906 41.6556 36.035 40.8801 37.1301 40.8801C37.7414 40.8801 38.3299 41.1218 38.7588 41.5552ZM82.1066 37.084H82.1021C82.5401 37.084 82.8959 37.4444 82.9005 37.8824V48.4811C82.8959 48.9191 82.5401 49.275 82.1021 49.2795H28.7257C28.2832 49.275 27.9273 48.9191 27.9227 48.4811V37.8779C27.9273 37.4399 28.2832 37.084 28.7257 37.0795L82.1066 37.084Z"
        fill="black" />
</svg>