<svg width="110" height="111" viewBox="0 0 110 111" fill="none" xmlns="http://www.w3.org/2000/svg">
    <path
        d="M55.2028 14.8477H55.1934C46.6627 14.8477 38.8185 19.1343 34.2108 26.3144L33.807 26.9435C30.4397 32.1909 29.014 38.4878 29.7924 44.6741L30.005 46.3621L26.8292 55.8892C26.5084 56.8517 26.6044 57.9138 27.0926 58.8031C27.5808 59.6924 28.4252 60.3434 29.4093 60.5894L31.4238 61.0931C31.4987 67.4524 32.6384 73.7045 34.8141 79.6875L34.8945 79.9089C35.4756 81.5068 36.8096 82.6976 38.4628 83.0944C40.1165 83.4911 41.8452 83.0355 43.0882 81.8754L44.1626 80.8727L41.2153 96.5914L42.9047 96.9082L45.2611 84.3407L62.2782 95.338L63.211 93.8945L45.6033 82.5156L46.2823 78.8942L50.6528 74.8151L67.8631 85.9372C67.3895 89.5368 67.3485 93.1977 67.7538 96.8447L69.462 96.6549C68.5655 88.5874 69.9364 80.4493 73.4263 73.1204L78.093 63.3203C80.6768 57.8942 82.0426 51.8497 82.0426 45.8399L82.0425 43.4C82.0425 37.9338 80.6097 32.5354 77.8991 27.7883L77.7367 27.5039C73.281 19.7007 64.9311 14.8512 55.9454 14.848L55.2028 14.8477ZM34.0562 29.9613L43.8614 31.7378C45.5818 32.0494 46.7752 33.6545 46.5787 35.3916L45.8417 41.9C45.6595 43.5097 44.3539 44.7508 42.7371 44.8512L31.6339 45.5409L31.4977 44.4595C30.8701 39.4714 31.7777 34.4081 34.0562 29.9613ZM76.5413 62.5814L71.8745 72.3814C70.0974 76.1133 68.8504 80.0473 68.1486 84.0754L51.9483 73.606L59.4135 66.6384C59.5876 66.4758 59.6864 66.2484 59.6864 66.0102V62.3649L79.356 54.4403C78.7197 57.2497 77.7757 59.9891 76.5413 62.5814ZM76.2442 28.3563L76.4066 28.6407C78.9692 33.1286 80.3237 38.2323 80.3237 43.4L80.3238 45.8399C80.3238 48.0419 80.1324 50.2488 79.7574 52.4255L58.5059 60.9877C58.1806 61.1187 57.9677 61.4341 57.9677 61.7847V65.6367L41.9154 80.6189C41.0833 81.3957 39.9713 81.6891 38.864 81.4231C37.757 81.1574 36.8989 80.3914 36.5099 79.3215L36.4294 79.1001C35.4612 76.4378 34.7058 73.7204 34.1635 70.9633L41.0216 67.811L40.3038 66.2494L33.8513 69.2153C33.3792 66.3179 33.1385 63.381 33.1385 60.4211C33.1385 60.0267 32.8702 59.683 32.4876 59.5874L29.8262 58.922C29.2973 58.7898 28.8616 58.4539 28.5992 57.9761C28.3369 57.4981 28.2874 56.95 28.4598 56.4328L31.5139 47.2703L42.8435 46.5666C45.2942 46.4145 47.2733 44.5332 47.5495 42.0935L48.2865 35.5849C48.5845 32.9518 46.7755 30.519 44.1679 30.0465L34.9456 28.3756C35.048 28.2075 35.147 28.0377 35.2535 27.8718L35.6573 27.2427C39.9476 20.5571 47.2502 16.5664 55.1934 16.5664H55.2022L55.9448 16.5667C64.3152 16.5698 72.0935 21.0871 76.2442 28.3563Z"
        fill="black" />
    <path d="M43.9063 37.4574L42.6909 38.6729L44.0912 40.0731L45.3066 38.8577L43.9063 37.4574Z"
        fill="black" />
    <path d="M38.4986 32.0497L37.2832 33.2651L41.4378 37.4199L42.6533 36.2045L38.4986 32.0497Z"
        fill="black" />
    <path
        d="M48.9844 42.8795C48.9844 43.277 49.2569 43.6225 49.6434 43.7152L50.8878 44.0135C51.1933 44.0868 51.4475 44.3038 51.5677 44.5941C51.6881 44.8844 51.6618 45.2177 51.4977 45.4856L50.8247 46.5838C50.6171 46.9225 50.6688 47.3595 50.9499 47.6405L52.5471 49.2376C52.8281 49.5186 53.2651 49.5702 53.6037 49.3627L54.7018 48.6897C54.9699 48.5257 55.3031 48.4996 55.5933 48.6197C55.8836 48.74 56.1008 48.9942 56.174 49.2997L56.4723 50.5441C56.565 50.9306 56.9105 51.2031 57.308 51.2031H59.567C59.9645 51.2031 60.31 50.9306 60.4027 50.5441L60.701 49.2997C60.7743 48.9942 60.9913 48.74 61.2816 48.6198C61.572 48.4993 61.9051 48.5257 62.1731 48.6898L63.2713 49.3628C63.6099 49.5702 64.0469 49.5186 64.328 49.2376L65.9251 47.6404C66.2061 47.3594 66.2578 46.9225 66.0502 46.5838L65.3772 45.4857C65.2131 45.2177 65.1869 44.8844 65.3071 44.5942C65.4275 44.3039 65.6817 44.0867 65.9872 44.0135L67.2316 43.7152C67.6181 43.6225 67.8906 43.277 67.8906 42.8795V40.6205C67.8906 40.223 67.6181 39.8775 67.2316 39.7848L65.9872 39.4865C65.6817 39.4132 65.4275 39.1962 65.3073 38.9059C65.1869 38.6156 65.2132 38.2823 65.3773 38.0144L66.0503 36.9162C66.2579 36.5775 66.2062 36.1405 65.9251 35.8595L64.3279 34.2624C64.0469 33.9814 63.6099 33.9298 63.2713 34.1373L62.1732 34.8103C61.9051 34.9743 61.5718 35.0004 61.2817 34.8804C60.9914 34.76 60.7742 34.5058 60.701 34.2003L60.4027 32.9559C60.31 32.5694 59.9645 32.2969 59.567 32.2969H57.308C56.9105 32.2969 56.565 32.5694 56.4723 32.9559L56.174 34.2003C56.1007 34.5058 55.8837 34.76 55.5934 34.8802C55.3031 35.0006 54.9699 34.9746 54.7019 34.8102L53.6037 34.1372C53.2651 33.9298 52.8281 33.9814 52.547 34.2624L50.9499 35.8596C50.6689 36.1406 50.6172 36.5775 50.8248 36.9162L51.4978 38.0143C51.6619 38.2823 51.6881 38.6157 51.5679 38.9058C51.4475 39.1962 51.1933 39.4133 50.8878 39.4865L49.6434 39.7848C49.2569 39.8775 48.9844 40.223 48.9844 40.6205V42.8795ZM50.7031 41.2982L51.2885 41.1578C52.1273 40.9567 52.8253 40.3609 53.1557 39.5638C53.4858 38.7668 53.414 37.852 52.9633 37.1164L52.6443 36.5959L53.2833 35.9567L53.8039 36.2757C54.5393 36.7265 55.4544 36.7984 56.2514 36.4681C57.0484 36.1379 57.6442 35.4399 57.8453 34.601L57.9857 34.0156H58.8893L59.0297 34.601C59.2308 35.4398 59.8266 36.1378 60.6237 36.4682C61.4207 36.7985 62.3356 36.7262 63.0711 36.2758L63.5917 35.9568L64.2308 36.5959L63.9118 37.1164C63.461 37.8519 63.3891 38.7669 63.7194 39.5639C64.0496 40.3609 64.7476 40.9567 65.5865 41.1578L66.1719 41.2982V42.2018L65.5865 42.3422C64.7477 42.5433 64.0497 43.1391 63.7193 43.9362C63.3892 44.7332 63.461 45.648 63.9117 46.3836L64.2307 46.9042L63.5917 47.5433L63.0711 47.2243C62.3356 46.7734 61.4208 46.7016 60.6236 47.0319C59.8266 47.3621 59.2308 48.0601 59.0297 48.899L58.8893 49.4844H57.9857L57.8453 48.899C57.6442 48.0602 57.0484 47.3622 56.2513 47.0318C55.4545 46.7018 54.5396 46.7739 53.8039 47.2242L53.2833 47.5432L52.6442 46.9042L52.9632 46.3836C53.414 45.6481 53.4859 44.7331 53.1556 43.9361C52.8254 43.1391 52.1274 42.5433 51.2885 42.3422L50.7031 42.2018V41.2982Z"
        fill="black" />
    <path
        d="M58.4375 46.0469C60.8068 46.0469 62.7344 44.1193 62.7344 41.75C62.7344 39.3807 60.8068 37.4531 58.4375 37.4531C56.0682 37.4531 54.1406 39.3807 54.1406 41.75C54.1406 44.1193 56.0682 46.0469 58.4375 46.0469ZM58.4375 39.1719C59.8591 39.1719 61.0156 40.3284 61.0156 41.75C61.0156 43.1716 59.8591 44.3281 58.4375 44.3281C57.0159 44.3281 55.8594 43.1716 55.8594 41.75C55.8594 40.3284 57.0159 39.1719 58.4375 39.1719Z"
        fill="black" />
    <path
        d="M49.2678 48.1334C48.9159 47.6289 48.6039 47.0919 48.3405 46.5376L46.7881 47.2751C47.092 47.915 47.452 48.5346 47.8581 49.1168L49.2678 48.1334Z"
        fill="black" />
    <path
        d="M50.4576 49.5684L49.23 50.7714C51.675 53.2664 54.945 54.6405 58.4376 54.6405C59.6908 54.6405 60.9298 54.4609 62.1203 54.1066L61.63 52.4592C60.5988 52.7662 59.5248 52.9217 58.4376 52.9217C55.4106 52.9217 52.5766 51.7309 50.4576 49.5684Z"
        fill="black" />
    <path
        d="M64.8208 50.9201L65.804 52.3298C66.4627 51.8704 67.0821 51.3462 67.645 50.7717L66.4174 49.5688C65.9291 50.0671 65.392 50.5217 64.8208 50.9201Z"
        fill="black" />
    <path
        d="M71.3282 41.75C71.3282 41.1342 71.2843 40.5151 71.1978 39.9097L69.4962 40.1528C69.5713 40.678 69.6094 41.2154 69.6094 41.75C69.6094 44.0483 68.9172 46.2557 67.6074 48.1333L69.0171 49.1167C70.529 46.9492 71.3282 44.4018 71.3282 41.75Z"
        fill="black" />
    <path
        d="M67.6074 35.3667C67.9594 35.8712 68.2714 36.4082 68.5348 36.9625L70.0871 36.225C69.7832 35.5851 69.4232 34.9655 69.0171 34.3833L67.6074 35.3667Z"
        fill="black" />
    <path
        d="M49.23 32.7283L50.4576 33.9314C52.5765 31.769 55.4105 30.5781 58.4375 30.5781C61.4645 30.5781 64.2985 31.769 66.4176 33.9315L67.6452 32.7285C65.2002 30.2334 61.9302 28.8594 58.4375 28.8594C54.9448 28.8594 51.6749 30.2334 49.23 32.7283Z"
        fill="black" />
    <path
        d="M67.6144 53.1178C65.0286 55.208 61.7695 56.3591 58.4375 56.3591C52.8505 56.3591 47.8343 53.2489 45.3463 48.2423L43.8071 49.0072C46.5875 54.6022 52.1935 58.0779 58.4375 58.0779C62.1615 58.0779 65.8043 56.791 68.6949 54.4545C71.5428 52.1524 73.5551 48.9288 74.361 45.3775L72.6848 44.9971C71.964 48.1735 70.1634 51.0574 67.6144 53.1178Z"
        fill="black" />
    <path
        d="M48.6979 30.8604C51.378 28.4617 54.8368 27.1406 58.4373 27.1406C66.4929 27.1406 73.0467 33.6944 73.0467 41.75C73.0467 42.2927 73.0167 42.8391 72.9576 43.3742L74.6658 43.5633C74.732 42.9656 74.7655 42.3555 74.7655 41.75C74.7655 32.7466 67.4408 25.4219 58.4373 25.4219C54.4133 25.4219 50.5474 26.8985 47.5518 29.5798L48.6979 30.8604Z"
        fill="black" />
    <path
        d="M40.3906 17.6875V15.9688C40.3906 13.5995 38.463 11.6719 36.0938 11.6719H12.0312C9.66199 11.6719 7.73438 13.5995 7.73438 15.9688V33.1562C7.73438 35.5255 9.66199 37.4531 12.0312 37.4531H27.5V35.7344H12.0312C10.6097 35.7344 9.45312 34.5778 9.45312 33.1562V15.9688C9.45312 14.5472 10.6097 13.3906 12.0312 13.3906H36.0938C37.5153 13.3906 38.6719 14.5472 38.6719 15.9688V17.6875H40.3906Z"
        fill="black" />
    <path
        d="M20.2527 16.9131C19.955 17.0561 19.7656 17.3572 19.7656 17.6876V31.4376C19.7656 31.7679 19.955 32.069 20.2527 32.2121C20.3711 32.269 20.4984 32.2969 20.6249 32.2969C20.8164 32.2969 21.0064 32.2329 21.1619 32.1086L29.7556 25.2336C29.9595 25.0705 30.0781 24.8237 30.0781 24.5626C30.0781 24.3015 29.9595 24.0546 29.7556 23.8915L21.1619 17.0165C20.9037 16.8101 20.5504 16.7698 20.2527 16.9131ZM21.4844 19.4755L27.843 24.5626L21.4844 29.6496V19.4755Z"
        fill="black" />
    <path
        d="M98.8281 40.0312V9.09375C98.8281 8.61916 98.4433 8.23438 97.9688 8.23438H73.9062C73.4317 8.23438 73.0469 8.61916 73.0469 9.09375V19.4062H74.7656V9.95312H97.1094V39.1719H84.2188V40.8906H97.9688C98.4433 40.8906 98.8281 40.5058 98.8281 40.0312Z"
        fill="black" />
    <path d="M94.5312 13.3906H77.3438V15.1094H94.5312V13.3906Z" fill="black" />
    <path d="M94.5312 18.5469H77.3438V20.2656H94.5312V18.5469Z" fill="black" />
    <path d="M94.5312 23.7031H79.0625V25.4219H94.5312V23.7031Z" fill="black" />
    <path d="M94.5312 28.8594H80.7812V30.5781H94.5312V28.8594Z" fill="black" />
    <path d="M94.5312 34.0156H84.2188V35.7344H94.5312V34.0156Z" fill="black" />
    <path
        d="M97.233 92.9206L98.6081 91.8894L90.7069 81.3545C90.5446 81.1381 90.2899 81.0107 90.0194 81.0107C89.7489 81.0107 89.4942 81.1381 89.3318 81.3545L87.2264 84.1617L83.8319 79.6358C83.6695 79.4193 83.4148 79.292 83.1444 79.292C82.8739 79.292 82.6192 79.4193 82.4568 79.6358L73.2666 91.8894L74.6417 92.9206L83.1444 81.5836L91.6471 92.9206L93.0222 91.8894L88.3006 85.5941L90.0194 83.3024L97.233 92.9206Z"
        fill="black" />
    <path
        d="M18.3906 77.1564L11.7448 82.1408H8.59375C8.11916 82.1408 7.73438 82.5256 7.73438 83.0002V89.8752C7.73438 90.3497 8.11916 90.7345 8.59375 90.7345H11.7448L18.3906 95.7189C18.5422 95.8327 18.7237 95.8908 18.9064 95.8908C19.0374 95.8908 19.1689 95.8609 19.2906 95.8C19.5817 95.6544 19.7656 95.3569 19.7656 95.0314V77.8439C19.7656 77.5184 19.5817 77.2209 19.2906 77.0753C18.9993 76.9295 18.6508 76.9609 18.3906 77.1564ZM9.45312 83.8595H11.1719V89.0158H9.45312V83.8595ZM18.0469 93.3127L12.8906 89.4455V83.4298L18.0469 79.5627V93.3127Z"
        fill="black" />
    <path d="M40.3906 84.7188H38.6719V93.3125H40.3906V84.7188Z" fill="black" />
    <path d="M33.5156 83H31.7969V89.875H33.5156V83Z" fill="black" />
    <path d="M30.0781 81.2812H28.3594V91.5938H30.0781V81.2812Z" fill="black" />
    <path d="M26.6406 83H24.9219V89.875H26.6406V83Z" fill="black" />
    <path d="M23.2031 84.7188H21.4844V88.1562H23.2031V84.7188Z" fill="black" />
    <path d="M36.9531 84.7188H35.2344V91.5938H36.9531V84.7188Z" fill="black" />
    <path
        d="M99.6875 4.79688H72.1875C68.8704 4.79688 66.1719 7.49543 66.1719 10.8125V15.9688H67.8906V10.8125C67.8906 8.44324 69.8182 6.51562 72.1875 6.51562H99.6875C102.057 6.51562 103.984 8.44324 103.984 10.8125V38.3125C103.984 40.6818 102.057 42.6094 99.6875 42.6094H84.2188V44.3281H99.6875C103.005 44.3281 105.703 41.6296 105.703 38.3125V10.8125C105.703 7.49543 103.005 4.79688 99.6875 4.79688Z"
        fill="black" />
    <path
        d="M10.3125 44.3281H27.5V42.6094H10.3125C7.94324 42.6094 6.01562 40.6818 6.01562 38.3125V10.8125C6.01562 8.44324 7.94324 6.51562 10.3125 6.51562H37.8125C40.1818 6.51562 42.1094 8.44324 42.1094 10.8125V15.9688H43.8281V10.8125C43.8281 7.49543 41.1296 4.79688 37.8125 4.79688H10.3125C6.99543 4.79688 4.29688 7.49543 4.29688 10.8125V38.3125C4.29688 41.6296 6.99543 44.3281 10.3125 44.3281Z"
        fill="black" />
    <path
        d="M42.1094 100.188C42.1094 102.557 40.1818 104.484 37.8125 104.484H10.3125C7.94324 104.484 6.01562 102.557 6.01562 100.188V72.6875C6.01562 70.3182 7.94324 68.3906 10.3125 68.3906H29.2188V66.6719H10.3125C6.99543 66.6719 4.29688 69.3704 4.29688 72.6875V100.188C4.29688 103.505 6.99543 106.203 10.3125 106.203H37.8125C41.1296 106.203 43.8281 103.505 43.8281 100.188V98.4688H42.1094V100.188Z"
        fill="black" />
    <path
        d="M99.6875 66.6719H79.0625V68.3906H99.6875C102.057 68.3906 103.984 70.3182 103.984 72.6875V100.188C103.984 102.557 102.057 104.484 99.6875 104.484H72.1875C69.8182 104.484 67.8906 102.557 67.8906 100.188V98.4688H66.1719V100.188C66.1719 103.505 68.8704 106.203 72.1875 106.203H99.6875C103.005 106.203 105.703 103.505 105.703 100.188V72.6875C105.703 69.3704 103.005 66.6719 99.6875 66.6719Z"
        fill="black" />
    <path
        d="M12.0487 46.7354C11.4669 49.6014 11.1719 52.5503 11.1719 55.5001C11.1719 58.4499 11.4669 61.3988 12.0487 64.2648L13.733 63.9229C13.1741 61.1692 12.8906 58.3353 12.8906 55.5001C12.8906 52.6648 13.1741 49.831 13.733 47.0773L12.0487 46.7354Z"
        fill="black" />
    <path
        d="M46.5773 96.7671L46.2354 98.4514C49.1014 99.0332 52.0503 99.3282 55.0001 99.3282C57.9499 99.3282 60.8988 99.0332 63.7648 98.4514L63.4229 96.7671C57.9156 97.8849 52.0846 97.8849 46.5773 96.7671Z"
        fill="black" />
    <path
        d="M97.9514 64.2648C98.5332 61.3988 98.8282 58.4499 98.8282 55.5001C98.8282 52.5503 98.5332 49.6014 97.9514 46.7354L96.2671 47.0773C96.826 49.831 97.1095 52.6648 97.1095 55.5001C97.1095 58.3353 96.826 61.1692 96.2671 63.9229L97.9514 64.2648Z"
        fill="black" />
    <path
        d="M63.4229 14.2328L63.7648 12.5485C58.0327 11.3849 51.9675 11.3849 46.2354 12.5485L46.5773 14.2328C52.0846 13.115 57.9156 13.115 63.4229 14.2328Z"
        fill="black" />
    <path
        d="M70.4688 97.6094V99.3281H101.406C101.881 99.3281 102.266 98.9433 102.266 98.4688V74.4062C102.266 73.9317 101.881 73.5469 101.406 73.5469H75.625V75.2656H100.547V97.6094H70.4688Z"
        fill="black" />
</svg>