<svg width="102" height="101" viewBox="0 0 102 101" fill="none" xmlns="http://www.w3.org/2000/svg">
    <mask id="path-1-outside-1_1833_2286" maskUnits="userSpaceOnUse" x="0" y="-0.5" width="102"
        height="102" fill="black">
        <rect fill="white" y="-0.5" width="102" height="102" />
        <path
            d="M84 47.5H98C99.654 47.5 101 46.154 101 44.5V30.5C101 28.846 99.654 27.5 98 27.5H84C82.346 27.5 81 28.846 81 30.5V33.5C79.686 33.5 78.578 34.355 78.174 35.535C78.115 35.524 78.062 35.5 78 35.5H72C71.447 35.5 71 35.948 71 36.5V46.5H61C60.938 46.5 60.886 46.524 60.827 46.535C60.424 45.354 59.317 44.5 58 44.5C56.683 44.5 55.576 45.354 55.173 46.535C55.114 46.524 55.062 46.5 55 46.5H42V42.5H50C50.062 42.5 50.114 42.476 50.173 42.465C50.576 43.646 51.683 44.5 53 44.5C54.657 44.5 56 43.158 56 41.5C56 40.182 55.146 39.076 53.965 38.673C53.976 38.614 54 38.562 54 38.5V11.5H68C68.062 11.5 68.115 11.476 68.174 11.465C68.578 12.645 69.686 13.5 71 13.5V17.5C71 19.154 72.346 20.5 74 20.5H88C89.654 20.5 91 19.154 91 17.5V3.5C91 1.846 89.654 0.5 88 0.5H74C72.346 0.5 71 1.846 71 3.5V7.5C69.686 7.5 68.578 8.355 68.174 9.535C68.115 9.524 68.062 9.5 68 9.5H53C52.447 9.5 52 9.948 52 10.5V38.5C52 38.562 52.024 38.614 52.035 38.673C51.159 38.972 50.472 39.659 50.173 40.535C50.114 40.524 50.062 40.5 50 40.5H42V34.5H36V26.5C36 25.948 35.552 25.5 35 25.5C34.448 25.5 34 25.948 34 26.5V34.5H30V26.5C30 25.948 29.552 25.5 29 25.5C28.448 25.5 28 25.948 28 26.5V34.5H24V26.5C24 25.948 23.552 25.5 23 25.5C22.448 25.5 22 25.948 22 26.5V34.5H18V26.5C18 25.948 17.552 25.5 17 25.5C16.448 25.5 16 25.948 16 26.5V34.5H10V40.5H2C1.448 40.5 1 40.948 1 41.5C1 42.052 1.448 42.5 2 42.5H10V46.5H2C1.448 46.5 1 46.948 1 47.5C1 48.052 1.448 48.5 2 48.5H10V52.5H2C1.448 52.5 1 52.947 1 53.5C1 54.053 1.448 54.5 2 54.5H10V58.5H2C1.448 58.5 1 58.947 1 59.5C1 60.053 1.448 60.5 2 60.5H10V66.5H16V74.5C16 75.053 16.448 75.5 17 75.5C17.552 75.5 18 75.053 18 74.5V66.5H22V74.5C22 75.053 22.448 75.5 23 75.5C23.552 75.5 24 75.053 24 74.5V66.5H28V74.5C28 75.053 28.448 75.5 29 75.5C29.552 75.5 30 75.053 30 74.5V66.5H34V74.5C34 75.053 34.448 75.5 35 75.5C35.552 75.5 36 75.053 36 74.5V66.5H42V60.5H55C55.062 60.5 55.114 60.476 55.173 60.465C55.472 61.342 56.158 62.028 57.035 62.327C57.024 62.386 57 62.438 57 62.5V90.5C57 91.053 57.447 91.5 58 91.5H78C78.062 91.5 78.115 91.476 78.174 91.465C78.578 92.645 79.686 93.5 81 93.5V97.5C81 99.154 82.346 100.5 84 100.5H98C99.654 100.5 101 99.154 101 97.5V83.5C101 81.846 99.654 80.5 98 80.5H84C82.346 80.5 81 81.846 81 83.5V87.5C79.686 87.5 78.578 88.355 78.174 89.535C78.115 89.524 78.062 89.5 78 89.5H59V62.5C59 62.438 58.976 62.386 58.965 62.327C60.146 61.924 61 60.818 61 59.5C61 57.842 59.657 56.5 58 56.5C56.683 56.5 55.576 57.354 55.173 58.535C55.114 58.524 55.062 58.5 55 58.5H42V54.5H50C50.062 54.5 50.114 54.476 50.173 54.465C50.576 55.646 51.683 56.5 53 56.5C54.317 56.5 55.424 55.646 55.827 54.465C55.886 54.476 55.938 54.5 56 54.5H63V63.5C63 64.053 63.447 64.5 64 64.5H68C68.062 64.5 68.115 64.476 68.174 64.465C68.578 65.645 69.686 66.5 71 66.5V70.5C71 72.154 72.346 73.5 74 73.5H88C89.654 73.5 91 72.154 91 70.5V56.5C91 54.846 89.654 53.5 88 53.5H74C72.346 53.5 71 54.846 71 56.5V60.5C69.686 60.5 68.578 61.355 68.174 62.535C68.115 62.524 68.062 62.5 68 62.5H65V53.5C65 52.947 64.553 52.5 64 52.5H56C55.938 52.5 55.886 52.524 55.827 52.535C55.424 51.354 54.317 50.5 53 50.5C51.683 50.5 50.576 51.354 50.173 52.535C50.114 52.524 50.062 52.5 50 52.5H42V48.5H55C55.062 48.5 55.114 48.476 55.173 48.465C55.576 49.646 56.683 50.5 58 50.5C59.317 50.5 60.424 49.646 60.827 48.465C60.886 48.476 60.938 48.5 61 48.5H72C72.553 48.5 73 48.052 73 47.5V37.5H78C78.062 37.5 78.115 37.476 78.174 37.465C78.578 38.645 79.686 39.5 81 39.5V44.5C81 46.154 82.346 47.5 84 47.5ZM83 30.5C83 29.949 83.448 29.5 84 29.5H98C98.552 29.5 99 29.949 99 30.5V44.5C99 45.051 98.552 45.5 98 45.5H84C83.448 45.5 83 45.051 83 44.5V30.5ZM73 3.5C73 2.949 73.448 2.5 74 2.5H88C88.552 2.5 89 2.949 89 3.5V17.5C89 18.051 88.552 18.5 88 18.5H74C73.448 18.5 73 18.051 73 17.5V3.5ZM71 9.5V11.5C70.448 11.5 70 11.051 70 10.5C70 9.949 70.448 9.5 71 9.5ZM53 40.5C53.552 40.5 54 40.949 54 41.5C54 42.051 53.552 42.5 53 42.5C52.448 42.5 52 42.051 52 41.5C52 40.949 52.448 40.5 53 40.5ZM83 83.5C83 82.948 83.448 82.5 84 82.5H98C98.552 82.5 99 82.948 99 83.5V97.5C99 98.052 98.552 98.5 98 98.5H84C83.448 98.5 83 98.052 83 97.5V83.5ZM81 89.5V91.5C80.448 91.5 80 91.052 80 90.5C80 89.948 80.448 89.5 81 89.5ZM58 58.5C58.552 58.5 59 58.948 59 59.5C59 60.052 58.552 60.5 58 60.5C57.448 60.5 57 60.052 57 59.5C57 58.948 57.448 58.5 58 58.5ZM73 56.5C73 55.948 73.448 55.5 74 55.5H88C88.552 55.5 89 55.948 89 56.5V70.5C89 71.052 88.552 71.5 88 71.5H74C73.448 71.5 73 71.052 73 70.5V56.5ZM71 62.5V64.5C70.448 64.5 70 64.052 70 63.5C70 62.948 70.448 62.5 71 62.5ZM53 52.5C53.552 52.5 54 52.948 54 53.5C54 54.052 53.552 54.5 53 54.5C52.448 54.5 52 54.052 52 53.5C52 52.948 52.448 52.5 53 52.5ZM40 64.5H12V36.5H40V64.5ZM58 48.5C57.448 48.5 57 48.051 57 47.5C57 46.949 57.448 46.5 58 46.5C58.552 46.5 59 46.949 59 47.5C59 48.051 58.552 48.5 58 48.5ZM80 36.5C80 35.949 80.448 35.5 81 35.5V37.5C80.448 37.5 80 37.051 80 36.5Z" />
    </mask>
    <path
        d="M84 47.5H98C99.654 47.5 101 46.154 101 44.5V30.5C101 28.846 99.654 27.5 98 27.5H84C82.346 27.5 81 28.846 81 30.5V33.5C79.686 33.5 78.578 34.355 78.174 35.535C78.115 35.524 78.062 35.5 78 35.5H72C71.447 35.5 71 35.948 71 36.5V46.5H61C60.938 46.5 60.886 46.524 60.827 46.535C60.424 45.354 59.317 44.5 58 44.5C56.683 44.5 55.576 45.354 55.173 46.535C55.114 46.524 55.062 46.5 55 46.5H42V42.5H50C50.062 42.5 50.114 42.476 50.173 42.465C50.576 43.646 51.683 44.5 53 44.5C54.657 44.5 56 43.158 56 41.5C56 40.182 55.146 39.076 53.965 38.673C53.976 38.614 54 38.562 54 38.5V11.5H68C68.062 11.5 68.115 11.476 68.174 11.465C68.578 12.645 69.686 13.5 71 13.5V17.5C71 19.154 72.346 20.5 74 20.5H88C89.654 20.5 91 19.154 91 17.5V3.5C91 1.846 89.654 0.5 88 0.5H74C72.346 0.5 71 1.846 71 3.5V7.5C69.686 7.5 68.578 8.355 68.174 9.535C68.115 9.524 68.062 9.5 68 9.5H53C52.447 9.5 52 9.948 52 10.5V38.5C52 38.562 52.024 38.614 52.035 38.673C51.159 38.972 50.472 39.659 50.173 40.535C50.114 40.524 50.062 40.5 50 40.5H42V34.5H36V26.5C36 25.948 35.552 25.5 35 25.5C34.448 25.5 34 25.948 34 26.5V34.5H30V26.5C30 25.948 29.552 25.5 29 25.5C28.448 25.5 28 25.948 28 26.5V34.5H24V26.5C24 25.948 23.552 25.5 23 25.5C22.448 25.5 22 25.948 22 26.5V34.5H18V26.5C18 25.948 17.552 25.5 17 25.5C16.448 25.5 16 25.948 16 26.5V34.5H10V40.5H2C1.448 40.5 1 40.948 1 41.5C1 42.052 1.448 42.5 2 42.5H10V46.5H2C1.448 46.5 1 46.948 1 47.5C1 48.052 1.448 48.5 2 48.5H10V52.5H2C1.448 52.5 1 52.947 1 53.5C1 54.053 1.448 54.5 2 54.5H10V58.5H2C1.448 58.5 1 58.947 1 59.5C1 60.053 1.448 60.5 2 60.5H10V66.5H16V74.5C16 75.053 16.448 75.5 17 75.5C17.552 75.5 18 75.053 18 74.5V66.5H22V74.5C22 75.053 22.448 75.5 23 75.5C23.552 75.5 24 75.053 24 74.5V66.5H28V74.5C28 75.053 28.448 75.5 29 75.5C29.552 75.5 30 75.053 30 74.5V66.5H34V74.5C34 75.053 34.448 75.5 35 75.5C35.552 75.5 36 75.053 36 74.5V66.5H42V60.5H55C55.062 60.5 55.114 60.476 55.173 60.465C55.472 61.342 56.158 62.028 57.035 62.327C57.024 62.386 57 62.438 57 62.5V90.5C57 91.053 57.447 91.5 58 91.5H78C78.062 91.5 78.115 91.476 78.174 91.465C78.578 92.645 79.686 93.5 81 93.5V97.5C81 99.154 82.346 100.5 84 100.5H98C99.654 100.5 101 99.154 101 97.5V83.5C101 81.846 99.654 80.5 98 80.5H84C82.346 80.5 81 81.846 81 83.5V87.5C79.686 87.5 78.578 88.355 78.174 89.535C78.115 89.524 78.062 89.5 78 89.5H59V62.5C59 62.438 58.976 62.386 58.965 62.327C60.146 61.924 61 60.818 61 59.5C61 57.842 59.657 56.5 58 56.5C56.683 56.5 55.576 57.354 55.173 58.535C55.114 58.524 55.062 58.5 55 58.5H42V54.5H50C50.062 54.5 50.114 54.476 50.173 54.465C50.576 55.646 51.683 56.5 53 56.5C54.317 56.5 55.424 55.646 55.827 54.465C55.886 54.476 55.938 54.5 56 54.5H63V63.5C63 64.053 63.447 64.5 64 64.5H68C68.062 64.5 68.115 64.476 68.174 64.465C68.578 65.645 69.686 66.5 71 66.5V70.5C71 72.154 72.346 73.5 74 73.5H88C89.654 73.5 91 72.154 91 70.5V56.5C91 54.846 89.654 53.5 88 53.5H74C72.346 53.5 71 54.846 71 56.5V60.5C69.686 60.5 68.578 61.355 68.174 62.535C68.115 62.524 68.062 62.5 68 62.5H65V53.5C65 52.947 64.553 52.5 64 52.5H56C55.938 52.5 55.886 52.524 55.827 52.535C55.424 51.354 54.317 50.5 53 50.5C51.683 50.5 50.576 51.354 50.173 52.535C50.114 52.524 50.062 52.5 50 52.5H42V48.5H55C55.062 48.5 55.114 48.476 55.173 48.465C55.576 49.646 56.683 50.5 58 50.5C59.317 50.5 60.424 49.646 60.827 48.465C60.886 48.476 60.938 48.5 61 48.5H72C72.553 48.5 73 48.052 73 47.5V37.5H78C78.062 37.5 78.115 37.476 78.174 37.465C78.578 38.645 79.686 39.5 81 39.5V44.5C81 46.154 82.346 47.5 84 47.5ZM83 30.5C83 29.949 83.448 29.5 84 29.5H98C98.552 29.5 99 29.949 99 30.5V44.5C99 45.051 98.552 45.5 98 45.5H84C83.448 45.5 83 45.051 83 44.5V30.5ZM73 3.5C73 2.949 73.448 2.5 74 2.5H88C88.552 2.5 89 2.949 89 3.5V17.5C89 18.051 88.552 18.5 88 18.5H74C73.448 18.5 73 18.051 73 17.5V3.5ZM71 9.5V11.5C70.448 11.5 70 11.051 70 10.5C70 9.949 70.448 9.5 71 9.5ZM53 40.5C53.552 40.5 54 40.949 54 41.5C54 42.051 53.552 42.5 53 42.5C52.448 42.5 52 42.051 52 41.5C52 40.949 52.448 40.5 53 40.5ZM83 83.5C83 82.948 83.448 82.5 84 82.5H98C98.552 82.5 99 82.948 99 83.5V97.5C99 98.052 98.552 98.5 98 98.5H84C83.448 98.5 83 98.052 83 97.5V83.5ZM81 89.5V91.5C80.448 91.5 80 91.052 80 90.5C80 89.948 80.448 89.5 81 89.5ZM58 58.5C58.552 58.5 59 58.948 59 59.5C59 60.052 58.552 60.5 58 60.5C57.448 60.5 57 60.052 57 59.5C57 58.948 57.448 58.5 58 58.5ZM73 56.5C73 55.948 73.448 55.5 74 55.5H88C88.552 55.5 89 55.948 89 56.5V70.5C89 71.052 88.552 71.5 88 71.5H74C73.448 71.5 73 71.052 73 70.5V56.5ZM71 62.5V64.5C70.448 64.5 70 64.052 70 63.5C70 62.948 70.448 62.5 71 62.5ZM53 52.5C53.552 52.5 54 52.948 54 53.5C54 54.052 53.552 54.5 53 54.5C52.448 54.5 52 54.052 52 53.5C52 52.948 52.448 52.5 53 52.5ZM40 64.5H12V36.5H40V64.5ZM58 48.5C57.448 48.5 57 48.051 57 47.5C57 46.949 57.448 46.5 58 46.5C58.552 46.5 59 46.949 59 47.5C59 48.051 58.552 48.5 58 48.5ZM80 36.5C80 35.949 80.448 35.5 81 35.5V37.5C80.448 37.5 80 37.051 80 36.5Z"
        fill="black" />
    <path
        d="M84 47.5H98C99.654 47.5 101 46.154 101 44.5V30.5C101 28.846 99.654 27.5 98 27.5H84C82.346 27.5 81 28.846 81 30.5V33.5C79.686 33.5 78.578 34.355 78.174 35.535C78.115 35.524 78.062 35.5 78 35.5H72C71.447 35.5 71 35.948 71 36.5V46.5H61C60.938 46.5 60.886 46.524 60.827 46.535C60.424 45.354 59.317 44.5 58 44.5C56.683 44.5 55.576 45.354 55.173 46.535C55.114 46.524 55.062 46.5 55 46.5H42V42.5H50C50.062 42.5 50.114 42.476 50.173 42.465C50.576 43.646 51.683 44.5 53 44.5C54.657 44.5 56 43.158 56 41.5C56 40.182 55.146 39.076 53.965 38.673C53.976 38.614 54 38.562 54 38.5V11.5H68C68.062 11.5 68.115 11.476 68.174 11.465C68.578 12.645 69.686 13.5 71 13.5V17.5C71 19.154 72.346 20.5 74 20.5H88C89.654 20.5 91 19.154 91 17.5V3.5C91 1.846 89.654 0.5 88 0.5H74C72.346 0.5 71 1.846 71 3.5V7.5C69.686 7.5 68.578 8.355 68.174 9.535C68.115 9.524 68.062 9.5 68 9.5H53C52.447 9.5 52 9.948 52 10.5V38.5C52 38.562 52.024 38.614 52.035 38.673C51.159 38.972 50.472 39.659 50.173 40.535C50.114 40.524 50.062 40.5 50 40.5H42V34.5H36V26.5C36 25.948 35.552 25.5 35 25.5C34.448 25.5 34 25.948 34 26.5V34.5H30V26.5C30 25.948 29.552 25.5 29 25.5C28.448 25.5 28 25.948 28 26.5V34.5H24V26.5C24 25.948 23.552 25.5 23 25.5C22.448 25.5 22 25.948 22 26.5V34.5H18V26.5C18 25.948 17.552 25.5 17 25.5C16.448 25.5 16 25.948 16 26.5V34.5H10V40.5H2C1.448 40.5 1 40.948 1 41.5C1 42.052 1.448 42.5 2 42.5H10V46.5H2C1.448 46.5 1 46.948 1 47.5C1 48.052 1.448 48.5 2 48.5H10V52.5H2C1.448 52.5 1 52.947 1 53.5C1 54.053 1.448 54.5 2 54.5H10V58.5H2C1.448 58.5 1 58.947 1 59.5C1 60.053 1.448 60.5 2 60.5H10V66.5H16V74.5C16 75.053 16.448 75.5 17 75.5C17.552 75.5 18 75.053 18 74.5V66.5H22V74.5C22 75.053 22.448 75.5 23 75.5C23.552 75.5 24 75.053 24 74.5V66.5H28V74.5C28 75.053 28.448 75.5 29 75.5C29.552 75.5 30 75.053 30 74.5V66.5H34V74.5C34 75.053 34.448 75.5 35 75.5C35.552 75.5 36 75.053 36 74.5V66.5H42V60.5H55C55.062 60.5 55.114 60.476 55.173 60.465C55.472 61.342 56.158 62.028 57.035 62.327C57.024 62.386 57 62.438 57 62.5V90.5C57 91.053 57.447 91.5 58 91.5H78C78.062 91.5 78.115 91.476 78.174 91.465C78.578 92.645 79.686 93.5 81 93.5V97.5C81 99.154 82.346 100.5 84 100.5H98C99.654 100.5 101 99.154 101 97.5V83.5C101 81.846 99.654 80.5 98 80.5H84C82.346 80.5 81 81.846 81 83.5V87.5C79.686 87.5 78.578 88.355 78.174 89.535C78.115 89.524 78.062 89.5 78 89.5H59V62.5C59 62.438 58.976 62.386 58.965 62.327C60.146 61.924 61 60.818 61 59.5C61 57.842 59.657 56.5 58 56.5C56.683 56.5 55.576 57.354 55.173 58.535C55.114 58.524 55.062 58.5 55 58.5H42V54.5H50C50.062 54.5 50.114 54.476 50.173 54.465C50.576 55.646 51.683 56.5 53 56.5C54.317 56.5 55.424 55.646 55.827 54.465C55.886 54.476 55.938 54.5 56 54.5H63V63.5C63 64.053 63.447 64.5 64 64.5H68C68.062 64.5 68.115 64.476 68.174 64.465C68.578 65.645 69.686 66.5 71 66.5V70.5C71 72.154 72.346 73.5 74 73.5H88C89.654 73.5 91 72.154 91 70.5V56.5C91 54.846 89.654 53.5 88 53.5H74C72.346 53.5 71 54.846 71 56.5V60.5C69.686 60.5 68.578 61.355 68.174 62.535C68.115 62.524 68.062 62.5 68 62.5H65V53.5C65 52.947 64.553 52.5 64 52.5H56C55.938 52.5 55.886 52.524 55.827 52.535C55.424 51.354 54.317 50.5 53 50.5C51.683 50.5 50.576 51.354 50.173 52.535C50.114 52.524 50.062 52.5 50 52.5H42V48.5H55C55.062 48.5 55.114 48.476 55.173 48.465C55.576 49.646 56.683 50.5 58 50.5C59.317 50.5 60.424 49.646 60.827 48.465C60.886 48.476 60.938 48.5 61 48.5H72C72.553 48.5 73 48.052 73 47.5V37.5H78C78.062 37.5 78.115 37.476 78.174 37.465C78.578 38.645 79.686 39.5 81 39.5V44.5C81 46.154 82.346 47.5 84 47.5ZM83 30.5C83 29.949 83.448 29.5 84 29.5H98C98.552 29.5 99 29.949 99 30.5V44.5C99 45.051 98.552 45.5 98 45.5H84C83.448 45.5 83 45.051 83 44.5V30.5ZM73 3.5C73 2.949 73.448 2.5 74 2.5H88C88.552 2.5 89 2.949 89 3.5V17.5C89 18.051 88.552 18.5 88 18.5H74C73.448 18.5 73 18.051 73 17.5V3.5ZM71 9.5V11.5C70.448 11.5 70 11.051 70 10.5C70 9.949 70.448 9.5 71 9.5ZM53 40.5C53.552 40.5 54 40.949 54 41.5C54 42.051 53.552 42.5 53 42.5C52.448 42.5 52 42.051 52 41.5C52 40.949 52.448 40.5 53 40.5ZM83 83.5C83 82.948 83.448 82.5 84 82.5H98C98.552 82.5 99 82.948 99 83.5V97.5C99 98.052 98.552 98.5 98 98.5H84C83.448 98.5 83 98.052 83 97.5V83.5ZM81 89.5V91.5C80.448 91.5 80 91.052 80 90.5C80 89.948 80.448 89.5 81 89.5ZM58 58.5C58.552 58.5 59 58.948 59 59.5C59 60.052 58.552 60.5 58 60.5C57.448 60.5 57 60.052 57 59.5C57 58.948 57.448 58.5 58 58.5ZM73 56.5C73 55.948 73.448 55.5 74 55.5H88C88.552 55.5 89 55.948 89 56.5V70.5C89 71.052 88.552 71.5 88 71.5H74C73.448 71.5 73 71.052 73 70.5V56.5ZM71 62.5V64.5C70.448 64.5 70 64.052 70 63.5C70 62.948 70.448 62.5 71 62.5ZM53 52.5C53.552 52.5 54 52.948 54 53.5C54 54.052 53.552 54.5 53 54.5C52.448 54.5 52 54.052 52 53.5C52 52.948 52.448 52.5 53 52.5ZM40 64.5H12V36.5H40V64.5ZM58 48.5C57.448 48.5 57 48.051 57 47.5C57 46.949 57.448 46.5 58 46.5C58.552 46.5 59 46.949 59 47.5C59 48.051 58.552 48.5 58 48.5ZM80 36.5C80 35.949 80.448 35.5 81 35.5V37.5C80.448 37.5 80 37.051 80 36.5Z"
        stroke="black" stroke-width="0.4" mask="url(#path-1-outside-1_1833_2286)" />
    <path
        d="M78.5208 5.58871L78.5208 5.5887C78.1953 5.40284 77.7963 5.40497 77.473 5.59183L77.4729 5.59186C77.1484 5.77984 76.95 6.12637 76.95 6.50012V14.5001C76.95 14.8739 77.1484 15.2204 77.4729 15.4084C77.6357 15.5029 77.8174 15.5501 78 15.5501C78.1795 15.5501 78.3601 15.5039 78.5209 15.4115L85.5208 11.4115C85.8484 11.2246 86.05 10.8771 86.05 10.5001C86.05 10.1232 85.8484 9.7756 85.5208 9.58869L78.5208 5.58871ZM79.05 12.691V8.30929L82.8832 10.5001L79.05 12.691Z"
        fill="black" stroke="black" stroke-width="0.1" />
    <path
        d="M87 43.5499C88.1316 43.5499 89.05 42.6316 89.05 41.4999V38.5618L94.95 37.0563V38.4505C93.8415 38.4771 92.95 39.385 92.95 40.4999C92.95 41.6316 93.8684 42.5499 95 42.5499C96.1316 42.5499 97.05 41.6316 97.05 40.4999V32.4579C97.05 32.1334 96.8998 31.8279 96.6437 31.6285C96.3877 31.4291 96.0497 31.3586 95.7404 31.4406C95.7403 31.4406 95.7403 31.4406 95.7402 31.4406L87.7406 33.4825C87.7406 33.4825 87.7406 33.4825 87.7406 33.4825C87.2755 33.6011 86.95 34.0201 86.95 34.4999V39.4505C85.8415 39.4771 84.95 40.385 84.95 41.4999C84.95 42.6316 85.8684 43.5499 87 43.5499ZM89.05 35.3158L94.95 33.8103V34.8901L89.05 36.3956V35.3158Z"
        fill="black" stroke="black" stroke-width="0.1" />
    <path
        d="M79.0284 60.451L79.0284 60.451C79.3705 60.4605 79.6846 60.6337 79.8736 60.9183L79.0284 60.451ZM79.0284 60.451C78.6832 60.4416 78.3627 60.598 78.1599 60.8711C78.1599 60.8711 78.1599 60.8712 78.1598 60.8712L77.05 62.351M79.0284 60.451L77.05 62.351M77.05 62.351V59.55H84.95V62.9653L83.7424 61.7576C83.3318 61.3471 82.6682 61.3471 82.2576 61.7576L81.1628 62.8525L79.8737 60.9183L77.05 62.351ZM77.05 65.8497V67.45H84.95V65.9347L83 63.9847L81.7424 65.2414C81.5199 65.4638 81.2162 65.5752 80.8961 65.5438C80.8961 65.5438 80.8961 65.5438 80.8961 65.5438L80.901 65.494C80.604 65.465 80.334 65.303 80.168 65.054L77.05 65.8497ZM77.05 65.8497L78.9496 63.3165L77.05 65.8497ZM76 69.55H86C86.5806 69.55 87.05 69.0806 87.05 68.5V58.5C87.05 57.9194 86.5806 57.45 86 57.45H76C75.4194 57.45 74.95 57.9194 74.95 58.5V68.5C74.95 69.0806 75.4194 69.55 76 69.55Z"
        fill="black" stroke="black" stroke-width="0.1" />
    <path
        d="M88 87.55H96C96.5806 87.55 97.05 87.0806 97.05 86.5C97.05 85.9194 96.5806 85.45 96 85.45H88C87.4194 85.45 86.95 85.9194 86.95 86.5C86.95 87.0806 87.4194 87.55 88 87.55Z"
        fill="black" stroke="black" stroke-width="0.1" />
    <path
        d="M86 91.55H96C96.5806 91.55 97.05 91.0806 97.05 90.5C97.05 89.9194 96.5806 89.45 96 89.45H86C85.4194 89.45 84.95 89.9194 84.95 90.5C84.95 91.0806 85.4194 91.55 86 91.55Z"
        fill="black" stroke="black" stroke-width="0.1" />
    <path
        d="M86 95.55H96C96.5806 95.55 97.05 95.0806 97.05 94.5C97.05 93.9194 96.5806 93.45 96 93.45H86C85.4194 93.45 84.95 93.9194 84.95 94.5C84.95 95.0806 85.4194 95.55 86 95.55Z"
        fill="black" stroke="black" stroke-width="0.1" />
</svg>