<svg width="99" height="98" viewBox="0 0 99 98" fill="none" xmlns="http://www.w3.org/2000/svg">
    <path
        d="M31.2869 68.0669H68.3097V31.0441H31.2869V68.0669ZM33.9959 33.7531H65.6007V65.3579H33.9959V33.7531ZM40.9942 61.1064C40.9942 62.3531 39.9836 63.3639 38.7368 63.3639C37.49 63.3639 36.4793 62.3531 36.4793 61.1064C36.4793 59.8596 37.49 58.8489 38.7368 58.8489C39.9836 58.8489 40.9942 59.8596 40.9942 61.1064ZM59.5621 44.9654H40.0348V38.7573H59.5621V44.9654ZM55.9501 49.311H40.0348V47H55.9501V49.311ZM59.5874 48.0694C59.5874 48.6772 59.0947 49.1699 58.4869 49.1699C57.8791 49.1699 57.3864 48.6772 57.3864 48.0694C57.3864 47.4616 57.8791 46.9689 58.4869 46.9689C59.0947 46.9689 59.5874 47.4616 59.5874 48.0694ZM59.5874 53.6567H40.0348V51.3456H59.5874V53.6567ZM94.4331 62.6392C92.6696 62.6392 91.1802 63.775 90.6192 65.3482H87.3493L84.4895 62.0369H75.2321V56.2428H80.8084C81.3694 57.816 82.8588 58.9518 84.6223 58.9518C86.863 58.9518 88.6857 57.1291 88.6857 54.8883C88.6857 52.6476 86.863 50.8249 84.6223 50.8249C82.8588 50.8249 81.3694 51.9607 80.8084 53.5338H75.2321V46.9871H86.7232L90.1101 48.1826C90.108 48.2365 90.094 48.2872 90.094 48.3416C90.094 50.5824 91.9168 52.4051 94.1575 52.4051C96.3982 52.4051 98.221 50.5824 98.221 48.3416C98.221 46.1009 96.3982 44.2781 94.1575 44.2781C92.9452 44.2781 91.8675 44.8225 91.1224 45.6671L87.1871 44.2781H75.2321V39.0859H84.6928L87.934 37.1633C88.5502 37.54 89.2666 37.7689 90.0402 37.7689C92.281 37.7689 94.1037 35.9462 94.1037 33.7054C94.1037 31.4647 92.281 29.642 90.0402 29.642C87.7995 29.642 85.9768 31.4647 85.9768 33.7054C85.9768 34.1723 86.072 34.6138 86.2176 35.0317L83.9494 36.3769H75.2321V30.3166L67.9834 23.0679H64.0959V15.8616L67.4067 13.0023V8.49208C68.9799 7.93113 70.1157 6.44172 70.1157 4.67822C70.1157 2.43749 68.293 0.614746 66.0522 0.614746C63.8115 0.614746 61.9888 2.43749 61.9888 4.67822C61.9888 6.44172 63.1245 7.93113 64.6977 8.49208V11.7624L61.3869 14.6217V23.0679H55.5928V18.3033C57.166 17.7424 58.3018 16.253 58.3018 14.4895C58.3018 12.2487 56.4791 10.426 54.2383 10.426C51.9976 10.426 50.1749 12.2487 50.1749 14.4895C50.1749 16.253 51.3107 17.7424 52.8839 18.3033V23.0679H46.3371V12.3885L47.5326 9.00162C47.5865 9.00377 47.6372 9.01771 47.6916 9.01771C49.9324 9.01771 51.7551 7.19497 51.7551 4.95424C51.7551 2.7135 49.9324 0.890759 47.6916 0.890759C45.4509 0.890759 43.6282 2.7135 43.6282 4.95424C43.6282 6.16653 44.1725 7.24418 45.0172 7.98927L43.6282 11.9247V23.0679H38.4359V14.4185L36.5132 11.1778C36.89 10.5616 37.1189 9.84514 37.1189 9.0715C37.1189 6.83077 35.2962 5.00803 33.0555 5.00803C30.8147 5.00803 28.992 6.83077 28.992 9.0715C28.992 11.3122 30.8147 13.135 33.0555 13.135C33.5222 13.135 33.9637 13.0397 34.3815 12.8942L35.727 15.1619V23.0679H31.0043L23.7557 30.3166V33.5273H15.7381L12.8787 30.2165H8.36855C7.80759 28.6433 6.31818 27.5075 4.55469 27.5075C2.31396 27.5075 0.491211 29.3302 0.491211 31.571C0.491211 33.8117 2.31396 35.6344 4.55469 35.6344C6.31818 35.6344 7.80759 34.4986 8.36855 32.9255H11.6389L14.4982 36.2363H23.7557V42.0308H18.1798C17.6188 40.4576 16.1294 39.3218 14.3659 39.3218C12.1252 39.3218 10.3025 41.1446 10.3025 43.3853C10.3025 45.626 12.1252 47.4488 14.3659 47.4488C16.1294 47.4488 17.6188 46.313 18.1798 44.7398H23.7557V51.2865H12.265L8.87808 50.0911C8.88023 50.0371 8.89418 49.9865 8.89418 49.932C8.89418 47.6913 7.07143 45.8685 4.8307 45.8685C2.58997 45.8685 0.767224 47.6913 0.767224 49.932C0.767224 52.1727 2.58997 53.9955 4.8307 53.9955C6.043 53.9955 7.12065 53.4511 7.86574 52.6065L11.8011 53.9955H23.7557V59.1877H14.2949L11.0545 61.1101C10.4382 60.7332 9.72172 60.5043 8.94797 60.5043C6.70724 60.5043 4.88449 62.327 4.88449 64.5677C4.88449 66.8085 6.70724 68.6312 8.94797 68.6312C11.1887 68.6312 13.0114 66.8085 13.0114 64.5677C13.0114 64.101 12.9162 63.6596 12.7707 63.2418L15.0383 61.8967H23.7557V67.9923L30.3077 74.5443H35.2693V82.1382L31.958 84.9976V89.5077C30.3848 90.0687 29.249 91.5581 29.249 93.3216C29.249 95.5623 31.0718 97.3851 33.3125 97.3851C35.5532 97.3851 37.376 95.5623 37.376 93.3216C37.376 91.5581 36.2402 90.0687 34.667 89.5077V86.2374L37.9783 83.3781V74.5443H43.7723V79.6965C42.1992 80.2574 41.0634 81.7468 41.0634 83.5103C41.0634 85.7511 42.8861 87.5738 45.1268 87.5738C47.3676 87.5738 49.1903 85.7511 49.1903 83.5103C49.1903 81.7468 48.0545 80.2574 46.4813 79.6965V74.5443H53.028V85.6113L51.8326 88.9982C51.7786 88.996 51.728 88.9821 51.6735 88.9821C49.4328 88.9821 47.6101 90.8048 47.6101 93.0456C47.6101 95.2863 49.4328 97.1091 51.6735 97.1091C53.9143 97.1091 55.737 95.2863 55.737 93.0456C55.737 91.8333 55.1927 90.7556 54.348 90.0105L55.737 86.0751V74.5443H60.9292V83.5813L62.8519 86.8222C62.4752 87.4384 62.2463 88.1547 62.2463 88.9283C62.2463 91.169 64.069 92.9918 66.3097 92.9918C68.5505 92.9918 70.3732 91.169 70.3732 88.9283C70.3732 86.6876 68.5505 84.8648 66.3097 84.8648C65.8428 84.8648 65.4012 84.9601 64.9833 85.1057L63.6382 82.838V74.5443H68.6801L75.2321 67.9923V64.7459H83.2497L86.1095 68.0572H90.6192C91.1802 69.6303 92.6696 70.7661 94.4331 70.7661C96.6738 70.7661 98.4965 68.9434 98.4965 66.7027C98.4965 64.4619 96.6738 62.6392 94.4331 62.6392ZM84.6223 53.5338C85.3692 53.5338 85.9768 54.1414 85.9768 54.8883C85.9768 55.6352 85.3692 56.2428 84.6223 56.2428C83.8754 56.2428 83.2678 55.6352 83.2678 54.8883C83.2678 54.1414 83.8754 53.5338 84.6223 53.5338ZM94.1575 46.9871C94.9044 46.9871 95.512 47.5947 95.512 48.3416C95.512 49.0885 94.9044 49.6961 94.1575 49.6961C93.4106 49.6961 92.803 49.0885 92.803 48.3416C92.803 47.5947 93.4106 46.9871 94.1575 46.9871ZM90.0402 32.3509C90.7871 32.3509 91.3947 32.9585 91.3947 33.7054C91.3947 34.4524 90.7871 35.0599 90.0402 35.0599C89.2933 35.0599 88.6857 34.4524 88.6857 33.7054C88.6857 32.9585 89.2933 32.3509 90.0402 32.3509ZM66.0522 3.32373C66.7991 3.32373 67.4067 3.93131 67.4067 4.67822C67.4067 5.42513 66.7991 6.03271 66.0522 6.03271C65.3053 6.03271 64.6977 5.42513 64.6977 4.67822C64.6977 3.93131 65.3053 3.32373 66.0522 3.32373ZM47.6916 3.59974C48.4385 3.59974 49.0461 4.20732 49.0461 4.95424C49.0461 5.70115 48.4385 6.30873 47.6916 6.30873C46.9447 6.30873 46.3371 5.70115 46.3371 4.95424C46.3371 4.20732 46.9447 3.59974 47.6916 3.59974ZM33.0555 10.426C32.3085 10.426 31.701 9.81841 31.701 9.0715C31.701 8.32459 32.3085 7.71701 33.0555 7.71701C33.8024 7.71701 34.4099 8.32459 34.4099 9.0715C34.4099 9.81841 33.8024 10.426 33.0555 10.426ZM4.55469 32.9255C3.80778 32.9255 3.20019 32.3179 3.20019 31.571C3.20019 30.8241 3.80778 30.2165 4.55469 30.2165C5.3016 30.2165 5.90918 30.8241 5.90918 31.571C5.90918 32.3179 5.3016 32.9255 4.55469 32.9255ZM14.3659 44.7398C13.619 44.7398 13.0114 44.1322 13.0114 43.3853C13.0114 42.6384 13.619 42.0308 14.3659 42.0308C15.1128 42.0308 15.7204 42.6384 15.7204 43.3853C15.7204 44.1322 15.1128 44.7398 14.3659 44.7398ZM4.8307 51.2865C4.08379 51.2865 3.47621 50.6789 3.47621 49.932C3.47621 49.1851 4.08379 48.5775 4.8307 48.5775C5.57761 48.5775 6.18519 49.1851 6.18519 49.932C6.18519 50.6789 5.57761 51.2865 4.8307 51.2865ZM8.94797 65.9222C8.20106 65.9222 7.59347 65.3147 7.59347 64.5677C7.59347 63.8208 8.20106 63.2133 8.94797 63.2133C9.69488 63.2133 10.3025 63.8208 10.3025 64.5677C10.3025 65.3147 9.69488 65.9222 8.94797 65.9222ZM33.3125 94.6761C32.5656 94.6761 31.958 94.0685 31.958 93.3216C31.958 92.5747 32.5656 91.9671 33.3125 91.9671C34.0594 91.9671 34.667 92.5747 34.667 93.3216C34.667 94.0685 34.0594 94.6761 33.3125 94.6761ZM51.6735 94.4001C50.9266 94.4001 50.319 93.7925 50.319 93.0456C50.319 92.2987 50.9266 91.6911 51.6735 91.6911C52.4205 91.6911 53.028 92.2987 53.028 93.0456C53.028 93.7925 52.4205 94.4001 51.6735 94.4001ZM66.3097 87.5738C67.0566 87.5738 67.6642 88.1814 67.6642 88.9283C67.6642 89.6752 67.0566 90.2828 66.3097 90.2828C65.5628 90.2828 64.9552 89.6752 64.9552 88.9283C64.9552 88.1814 65.5628 87.5738 66.3097 87.5738ZM54.2383 13.135C54.9853 13.135 55.5928 13.7426 55.5928 14.4895C55.5928 15.2364 54.9853 15.844 54.2383 15.844C53.4914 15.844 52.8839 15.2364 52.8839 14.4895C52.8839 13.7426 53.4914 13.135 54.2383 13.135ZM45.1268 84.8648C44.3799 84.8648 43.7723 84.2573 43.7723 83.5103C43.7723 82.7634 44.3799 82.1559 45.1268 82.1559C45.8737 82.1559 46.4813 82.7634 46.4813 83.5103C46.4813 84.2573 45.8737 84.8648 45.1268 84.8648ZM72.5231 66.8706L67.5584 71.8354H31.4294L26.4646 66.8706V31.4383L32.126 25.7769H66.8617L72.5231 31.4383V66.8706ZM94.4331 68.0572C93.6861 68.0572 93.0786 67.4496 93.0786 66.7027C93.0786 65.9557 93.6861 65.3482 94.4331 65.3482C95.18 65.3482 95.7876 65.9557 95.7876 66.7027C95.7876 67.4496 95.18 68.0572 94.4331 68.0572ZM60.5963 55.6698H63.3053V63.3827H55.95V60.6737H60.5963V55.6698Z"
        fill="black" />
</svg>