<svg width="68" height="90" viewBox="0 0 68 90" fill="none" xmlns="http://www.w3.org/2000/svg">
    <path
        d="M33.6892 15.6643H33.7031L36.0686 15.6389C36.3656 15.6353 36.6512 15.5239 36.8721 15.3253C37.093 15.1268 37.2342 14.8547 37.2693 14.5597L38.7745 1.8233C38.7948 1.65188 38.7785 1.47811 38.7268 1.31342C38.6751 1.14873 38.5891 0.996861 38.4745 0.867797C38.3599 0.738734 38.2192 0.635404 38.0618 0.564605C37.9043 0.493807 37.7337 0.457145 37.5611 0.457031H32.5152C32.3451 0.457133 32.177 0.492662 32.0214 0.561353C31.8659 0.630045 31.7264 0.730391 31.6118 0.855994C31.4972 0.981598 31.41 1.1297 31.3558 1.29087C31.3017 1.45203 31.2816 1.62271 31.2971 1.79204L32.4711 14.5528C32.4989 14.8566 32.6392 15.1391 32.8646 15.3448C33.09 15.5505 33.3841 15.6644 33.6892 15.6643ZM36.1879 2.90358L34.9663 13.2085H34.8031L33.8559 2.90358H36.1879ZM19.5425 21.1757C19.7788 21.372 20.0802 21.4722 20.3869 21.4565C20.6936 21.4409 20.9832 21.3105 21.1982 21.0912L22.8517 19.4007C23.0592 19.1883 23.1825 18.9077 23.1984 18.6112C23.2144 18.3147 23.122 18.0225 22.9385 17.789L15.0014 7.71564C14.8948 7.57962 14.7605 7.46779 14.6075 7.38755C14.4544 7.30732 14.286 7.2605 14.1135 7.25021C13.941 7.23993 13.7683 7.26639 13.6068 7.32786C13.4452 7.38934 13.2986 7.48441 13.1766 7.6068L9.60578 11.1776C9.48563 11.2979 9.39185 11.4419 9.33042 11.6004C9.26899 11.7589 9.24126 11.9285 9.24899 12.0983C9.25673 12.2681 9.29976 12.4345 9.37534 12.5868C9.45092 12.739 9.5574 12.8739 9.68799 12.9827L19.5425 21.1757ZM13.9315 10.3092L20.3519 18.4582L20.2361 18.574L12.2804 11.9569L13.9315 10.3092ZM16.1928 33.7674L16.1674 31.4054C16.1638 31.1084 16.0524 30.8228 15.8538 30.6019C15.6553 30.381 15.3832 30.2398 15.0882 30.2047L2.3518 28.6925C2.18026 28.6725 2.00642 28.6889 1.84167 28.7407C1.67692 28.7926 1.525 28.8787 1.39587 28.9934C1.26674 29.108 1.16332 29.2488 1.09241 29.4062C1.02149 29.5637 0.984673 29.7344 0.984375 29.9071V34.9565C0.984682 35.2807 1.1136 35.5915 1.34283 35.8208C1.57207 36.05 1.88289 36.1789 2.20707 36.1792C2.24528 36.1792 2.28233 36.1792 2.32286 36.1792L15.0859 35.004C15.3919 34.9744 15.6756 34.8308 15.8807 34.6017C16.0857 34.3727 16.1972 34.0748 16.1928 33.7674ZM3.43093 33.6157V31.2827L13.7359 32.5065V32.6686L3.43093 33.6157ZM48.0733 22.3255C48.2856 22.5333 48.5663 22.6567 48.863 22.6724C49.1596 22.6882 49.4519 22.5953 49.685 22.4112L59.7584 14.474C59.8939 14.3671 60.0053 14.2326 60.0851 14.0794C60.1649 13.9263 60.2114 13.758 60.2214 13.5856C60.2315 13.4132 60.2049 13.2406 60.1435 13.0792C60.082 12.9178 59.9871 12.7713 59.8649 12.6493L56.2952 9.07959C56.175 8.95935 56.031 8.86551 55.8724 8.80408C55.7138 8.74264 55.5442 8.71496 55.3743 8.72281C55.2044 8.73065 55.038 8.77385 54.8858 8.84964C54.7335 8.92543 54.5988 9.03214 54.4901 9.16296L46.2971 19.0175C46.1015 19.2541 46.0021 19.5558 46.0188 19.8624C46.0356 20.169 46.1672 20.4581 46.3874 20.6721L48.0733 22.3255ZM55.5148 11.7566L57.1636 13.4053L49.0135 19.8268L48.8977 19.711L55.5148 11.7566ZM66.6152 31.0858C66.4893 30.9719 66.3412 30.8852 66.1802 30.8312C66.0192 30.7772 65.8488 30.757 65.6797 30.772L52.9166 31.9461C52.6106 31.9743 52.3264 32.1168 52.1206 32.345C51.9148 32.5733 51.8026 32.8708 51.8062 33.1781L51.834 35.5424C51.8375 35.8391 51.9488 36.1244 52.1472 36.3451C52.3455 36.5658 52.6173 36.7069 52.912 36.742L65.6484 38.2472C65.8199 38.2673 65.9938 38.2508 66.1585 38.199C66.3233 38.1471 66.4752 38.061 66.6043 37.9463C66.7335 37.8316 66.8369 37.6909 66.9078 37.5335C66.9787 37.376 67.0155 37.2053 67.0158 37.0326V31.9843C67.0147 31.8149 66.9784 31.6476 66.9092 31.4929C66.8401 31.3382 66.7407 31.1996 66.6152 31.0858ZM64.5658 35.6628L54.2609 34.4401V34.2769L64.5658 33.3298V35.6628ZM65.7086 52.6995H43.5356C43.2452 52.0624 42.7517 51.5395 42.1323 51.2129L42.167 49.7076C45.4227 47.9038 47.9871 45.0698 49.4576 41.6505C50.9281 38.2313 51.2213 34.4205 50.2913 30.8166C49.3612 27.2127 47.2606 24.0197 44.3192 21.739C41.3778 19.4583 37.7622 18.219 34.0402 18.2159C30.3182 18.2127 26.7006 19.4458 23.7553 21.7214C20.81 23.9971 18.704 27.1865 17.7678 30.7889C16.8316 34.3912 17.1183 38.2025 18.583 41.6242C20.0476 45.046 22.6072 47.8844 25.8598 49.6937L25.8158 52.7042H4.06891C3.82479 52.7042 3.58626 52.7773 3.38403 52.914C3.18181 53.0508 3.02515 53.2449 2.93423 53.4715C2.84331 53.698 2.82229 53.9466 2.87387 54.1852C2.92546 54.4238 3.04728 54.6415 3.22367 54.8103L12.0373 63.2418V82.8096C12.0372 83.0823 12.1284 83.3471 12.2962 83.562C12.4641 83.7768 12.699 83.9294 12.9636 83.9953L34.6155 89.5067C34.714 89.5311 34.8151 89.5435 34.9165 89.5437C35.0144 89.5442 35.112 89.5329 35.2072 89.5101L57.511 83.9987C57.7758 83.9326 58.0109 83.7796 58.1788 83.5643C58.3467 83.3491 58.4377 83.0838 58.4373 82.8108V63.2094L66.5886 54.7709C66.7556 54.5985 66.8681 54.3807 66.912 54.1447C66.956 53.9087 66.9294 53.665 66.8357 53.444C66.7419 53.223 66.5851 53.0345 66.3849 52.9021C66.1846 52.7697 65.9487 52.6993 65.7086 52.6995ZM34.267 66.0971C31.6398 66.0971 29.353 64.8397 28.678 63.1851L39.5734 61.3939V62.1581C39.5758 64.4032 37.2936 66.0971 34.267 66.0971ZM40.5982 58.7482L39.8791 58.864L27.5144 60.8868C27.3245 60.9155 27.1309 60.869 26.9748 60.7571C26.8973 60.7018 26.8314 60.6318 26.7811 60.551C26.7307 60.4702 26.6968 60.3803 26.6813 60.2863C26.6658 60.1924 26.669 60.0963 26.6908 60.0036C26.7125 59.911 26.7524 59.8235 26.8081 59.7463C26.9203 59.5892 27.0901 59.483 27.2805 59.451L40.5484 57.2823C40.5867 57.2767 40.6254 57.274 40.6642 57.2742C40.8366 57.275 41.0033 57.3364 41.135 57.4478C41.2667 57.5591 41.355 57.7133 41.3843 57.8833C41.4126 58.0734 41.3657 58.2671 41.2535 58.4232C41.1413 58.5793 40.9727 58.6855 40.7834 58.7192L40.6028 58.7482H40.5982ZM40.7823 54.727L27.5144 56.8956C27.3241 56.9239 27.1302 56.8768 26.9741 56.7644C26.818 56.6519 26.7119 56.483 26.6784 56.2935C26.6486 56.1036 26.6948 55.9096 26.8071 55.7535C26.9194 55.5975 27.0886 55.492 27.2782 55.4599L40.5449 53.2912C40.6392 53.276 40.7355 53.2795 40.8284 53.3015C40.9213 53.3236 41.009 53.3637 41.0864 53.4196C41.1638 53.4755 41.2295 53.5461 41.2796 53.6274C41.3297 53.7087 41.3633 53.799 41.3785 53.8933C41.3938 53.9876 41.3902 54.0839 41.3682 54.1768C41.3462 54.2697 41.3061 54.3574 41.2502 54.4348C41.1943 54.5122 41.1236 54.5779 41.0424 54.628C40.9611 54.6781 40.8707 54.7117 40.7765 54.727H40.7823ZM19.6733 35.0075C19.672 32.4487 20.3545 29.936 21.6502 27.7295C22.946 25.5231 24.8078 23.703 27.0431 22.4576C29.2784 21.2123 31.8059 20.5869 34.364 20.6463C36.9221 20.7057 39.4179 21.4477 41.593 22.7954C43.7681 24.1432 45.5435 26.0477 46.7354 28.312C47.9273 30.5762 48.4925 33.1178 48.3724 35.6738C48.2523 38.2298 47.4513 40.7072 46.0523 42.8497C44.6533 44.9922 42.7071 46.7219 40.4152 47.8597C40.2157 47.9589 40.0471 48.1109 39.9277 48.299C39.8083 48.4872 39.7426 48.7044 39.7379 48.9272L39.6927 50.9222L38.9123 51.0508L38.8255 47.3896C38.8162 46.8714 38.664 46.3659 38.3858 45.9287C38.1075 45.4915 37.714 45.1396 37.2485 44.9118V42.1329H37.7406C37.9042 42.138 38.0672 42.1101 38.2199 42.0509C38.3726 41.9918 38.5118 41.9026 38.6294 41.7886C38.7469 41.6746 38.8404 41.5382 38.9042 41.3874C38.968 41.2366 39.0009 41.0746 39.0009 40.9108C39.0009 40.7471 38.968 40.585 38.9042 40.4342C38.8404 40.2835 38.7469 40.147 38.6294 40.033C38.5118 39.9191 38.3726 39.8298 38.2199 39.7707C38.0672 39.7116 37.9042 39.6837 37.7406 39.6887H30.0038C29.8401 39.6837 29.6771 39.7116 29.5244 39.7707C29.3717 39.8298 29.2325 39.9191 29.115 40.033C28.9974 40.147 28.904 40.2835 28.8401 40.4342C28.7763 40.585 28.7434 40.7471 28.7434 40.9108C28.7434 41.0746 28.7763 41.2366 28.8401 41.3874C28.904 41.5382 28.9974 41.6746 29.115 41.7886C29.2325 41.9026 29.3717 41.9918 29.5244 42.0509C29.6771 42.1101 29.8401 42.138 30.0038 42.1329H30.4171V45.0681C30.022 45.3202 29.6965 45.6674 29.4701 46.0778C29.2438 46.4882 29.1239 46.9487 29.1215 47.4174L29.1087 52.666L28.26 52.8061L28.3168 48.9724C28.3204 48.7418 28.2586 48.5148 28.1385 48.3179C28.0184 48.121 27.8449 47.9621 27.6383 47.8597C25.2411 46.6772 23.2239 44.8458 21.8159 42.5738C20.4079 40.3019 19.6656 37.6804 19.6733 35.0075ZM36.3812 47.4521L36.475 51.4467L31.5553 52.1762L31.5669 47.429C31.5677 47.3342 31.6055 47.2436 31.672 47.1761C31.7386 47.1087 31.8288 47.0698 31.9235 47.0677H36.0246C36.1225 47.0725 36.2146 47.1154 36.2812 47.1873C36.3479 47.2591 36.3838 47.3542 36.3812 47.4521ZM34.8019 44.6235H32.8637V42.5521H34.8019V44.6235ZM24.409 55.1449C24.2252 55.6533 24.1774 56.2009 24.2704 56.7334C24.3635 57.2659 24.594 57.7649 24.9393 58.1808C24.8999 58.2295 24.8536 58.27 24.8166 58.3209C24.5408 58.7038 24.3544 59.1436 24.2711 59.608C24.1878 60.0725 24.2098 60.5496 24.3353 61.0045C24.4608 61.4593 24.6868 61.8802 24.9965 62.2361C25.3062 62.5921 25.6918 62.874 26.1249 63.0612C26.1711 63.3148 26.2365 63.5644 26.3206 63.808L13.8378 61.5768L7.11523 55.1449H24.409ZM14.4827 64.1762L28.4406 66.6749C29.9583 67.7985 31.7782 68.4406 33.6649 68.5182L33.6846 86.7429L14.4827 81.8544V64.1762ZM36.1346 86.7544L36.1161 68.3653C37.2737 68.1612 38.3747 67.7136 39.3465 67.0523L55.9977 64.1693V81.8474L36.1346 86.7544ZM56.6136 61.5792L41.6541 64.1716C41.897 63.5281 42.0214 62.8459 42.0212 62.1581V60.8555C42.4578 60.6546 42.8422 60.3559 43.1446 59.9823C43.4469 59.6088 43.6591 59.1706 43.7646 58.7017C43.8701 58.2329 43.8661 57.746 43.7529 57.2789C43.6397 56.8119 43.4203 56.3772 43.1119 56.0087C43.3225 55.7498 43.4912 55.4595 43.6121 55.1484H62.829L56.6136 61.5792Z"
        fill="black" />
</svg>