<svg width="87" height="86" viewBox="0 0 87 86" fill="none" xmlns="http://www.w3.org/2000/svg">
    <path
        d="M86.0322 20.7942C86.0322 20.7902 86.0283 20.7902 86.0283 20.7862C86.0283 20.5245 85.945 20.2866 85.83 20.0685C85.7983 20.005 85.7586 19.9575 85.715 19.898C85.6 19.7354 85.4612 19.6006 85.2947 19.4935C85.259 19.4697 85.2431 19.4261 85.2035 19.4063L76.2337 14.4812C75.7618 14.2194 75.1789 14.2194 74.7031 14.4851L65.8047 19.4102C65.765 19.4301 65.7492 19.4776 65.7095 19.5014C65.5469 19.6085 65.4121 19.7394 65.2971 19.9019C65.2574 19.9614 65.2138 20.009 65.1821 20.0764C65.0671 20.2945 64.9878 20.5285 64.9878 20.7902C64.9878 20.7942 64.9838 20.7942 64.9838 20.7981V23.3955L53.7502 17.2293V6.68896C53.7502 6.685 53.7462 6.685 53.7462 6.68103C53.7462 6.41932 53.6629 6.18138 53.548 5.96329C53.5162 5.89984 53.4766 5.85225 53.433 5.79278C53.318 5.63019 53.1792 5.49537 53.0126 5.3883C52.9769 5.36451 52.9611 5.32089 52.9214 5.30106L43.9517 0.375958C43.4758 0.114243 42.8968 0.118202 42.421 0.379924L33.5226 5.30502C33.483 5.32485 33.4671 5.37244 33.4314 5.39623C33.2688 5.5033 33.13 5.63812 33.019 5.79673C32.9794 5.85225 32.9397 5.9038 32.908 5.96328C32.793 6.18137 32.7137 6.41931 32.7097 6.68102C32.7097 6.68499 32.7057 6.68499 32.7057 6.68895V17.1216L21.4122 23.3752V20.7976C21.4122 20.7936 21.4082 20.7936 21.4082 20.7897C21.4082 20.528 21.325 20.29 21.21 20.0719C21.1782 20.0085 21.1386 19.9609 21.095 19.9054C20.98 19.7428 20.8451 19.6119 20.6786 19.5049C20.6429 19.4811 20.6231 19.4375 20.5834 19.4137L11.6097 14.4886C11.1299 14.2269 10.5549 14.2269 10.0791 14.4925L1.18066 19.4176C1.141 19.4375 1.12514 19.4851 1.08945 19.5088C0.926868 19.6159 0.788077 19.7507 0.67705 19.9094C0.637395 19.9649 0.597741 20.0164 0.566013 20.0759C0.451017 20.294 0.371703 20.5319 0.367744 20.7936C0.367744 20.7976 0.363779 20.7976 0.363779 20.8016V32.2931C0.363779 32.8681 0.677044 33.3994 1.17669 33.677L9.26216 38.1897V47.4569L1.18065 51.9298C1.141 51.9496 1.12513 51.9972 1.08944 52.021C0.926858 52.1281 0.788067 52.2629 0.67704 52.4215C0.637386 52.477 0.597732 52.5286 0.566003 52.5881C0.451007 52.8062 0.371694 53.0441 0.367735 53.3058C0.367735 53.3098 0.36377 53.3098 0.36377 53.3137V64.8052C0.36377 65.3802 0.677035 65.9116 1.17668 66.1892L10.0751 71.1578C10.0949 71.1697 10.1227 71.1658 10.1425 71.1737C10.3566 71.2808 10.5906 71.3561 10.8483 71.3561C11.1021 71.3561 11.3361 71.2808 11.5502 71.1737C11.57 71.1618 11.5978 71.1697 11.6176 71.1578L19.3145 66.895L32.6424 74.3341V79.2672C32.6424 79.8422 32.9557 80.3735 33.4553 80.6511L42.3537 85.6198C42.3735 85.6317 42.4013 85.6277 42.4211 85.6356C42.6353 85.7427 42.8692 85.818 43.127 85.818C43.3807 85.818 43.6147 85.7427 43.8288 85.6356C43.8487 85.6237 43.8764 85.6317 43.8963 85.6198L52.87 80.6511C53.3736 80.3735 53.6869 79.8382 53.6869 79.2632V74.2906L67.0584 66.8911L74.6879 71.1499C74.7077 71.1618 74.7355 71.1579 74.7592 71.1698C74.9734 71.2768 75.2073 71.3522 75.4651 71.3522C75.7189 71.3522 75.9528 71.2768 76.167 71.1698C76.1868 71.1579 76.2146 71.1658 76.2344 71.1539L85.2041 66.1852C85.7077 65.9037 86.021 65.3723 86.021 64.7973V53.3058C86.021 53.3019 86.0171 53.3019 86.0171 53.2979C86.0171 53.0362 85.9338 52.7983 85.8188 52.5802C85.7871 52.5167 85.7474 52.4691 85.7038 52.4096C85.5888 52.2471 85.45 52.1122 85.2835 52.0052C85.2478 51.9814 85.2319 51.9378 85.1923 51.9179L77.0434 47.445V38.1857L85.1962 33.6691C85.6998 33.3876 86.0131 32.8562 86.0131 32.2812V20.7897L86.0322 20.7942ZM75.4767 17.6853L81.1592 20.806L75.4767 23.9507L69.8418 20.806L75.4767 17.6853ZM73.8866 67.0743L68.1605 63.8782V56.0187L73.8866 59.2148V67.0743ZM65.8051 51.9303C65.7654 51.9502 65.7496 51.9977 65.7099 52.0215C65.5473 52.1286 65.4125 52.2595 65.2975 52.422C65.2579 52.4815 65.2142 52.5291 65.1825 52.5965C65.0675 52.8146 64.9882 53.0486 64.9882 53.3103C64.9882 53.3143 64.9842 53.3143 64.9842 53.3182V54.9401L53.6907 48.7382V48.7342V42.7662L67.9383 34.8751L73.8825 38.1941V47.4613L65.801 51.9343L65.8051 51.9303ZM35.8379 47.8102L35.8339 39.9349L41.56 43.1389V50.9984L35.8379 47.8102ZM12.4458 59.2185L18.2471 56.0065V63.8699L12.4458 67.0819V59.2185ZM21.4195 53.314C21.4195 53.31 21.4155 53.31 21.4155 53.306C21.4155 53.0443 21.3322 52.8064 21.2173 52.5883C21.1855 52.5249 21.1459 52.4773 21.1023 52.4218C20.9873 52.2592 20.8524 52.1283 20.6859 52.0213C20.6502 51.9975 20.6304 51.9538 20.5907 51.93L12.4418 47.4571V38.1978L18.4495 34.8748L32.6575 42.7938V48.7062L21.4157 54.924V53.322L21.4195 53.314ZM18.2471 31.3532L12.4458 34.5653V26.7018L18.2471 23.4898V31.3532ZM43.1498 40.3904L37.5109 37.2339L43.1498 34.1171L48.8243 37.2339L43.1498 40.3904ZM44.732 43.1384L50.5215 39.9224V47.7938L44.732 51.0019V43.1384ZM73.8861 34.5533L68.16 31.3572V23.4977L73.8861 26.6938V34.5533ZM35.885 17.244V9.38449L41.611 12.5806V20.4401L35.885 17.244ZM44.7834 12.5846L50.5808 9.37261V17.2361L44.7834 20.4481V12.5846ZM43.2012 3.56727L48.8837 6.68805L43.2012 9.83268L37.5663 6.68805L43.2012 3.56727ZM34.1877 19.9244L42.424 24.5242C42.4438 24.5361 42.4715 24.5322 42.4914 24.5401C42.7055 24.6472 42.9395 24.7225 43.1972 24.7225C43.451 24.7225 43.685 24.6472 43.8991 24.5401C43.9189 24.5282 43.9467 24.5361 43.9665 24.5242L52.1829 19.9719L64.987 27.0026V32.2806C64.987 32.463 65.0663 32.6256 65.1258 32.7921L53.6932 39.1249V37.2215C53.6932 36.9519 53.6099 36.71 53.487 36.484C53.4553 36.4284 53.4196 36.3848 53.3839 36.3293C53.2649 36.1588 53.1222 36.02 52.9477 35.909C52.916 35.8852 52.9001 35.8455 52.8644 35.8257L43.9065 30.9046C43.4267 30.6428 42.8517 30.6428 42.3759 30.9085L33.4775 35.8297C33.4378 35.8495 33.422 35.8931 33.3863 35.9169C33.2197 36.0279 33.0809 36.1588 32.9699 36.3214C32.9303 36.3769 32.8906 36.4285 32.8589 36.4879C32.7439 36.7021 32.6646 36.94 32.6646 37.1977C32.6646 37.2017 32.6606 37.2057 32.6606 37.2096V37.2136V39.1408L21.2757 32.7961C21.3391 32.6256 21.4184 32.459 21.4184 32.2726V26.9828L34.187 19.9125L34.1877 19.9244ZM10.8626 17.676L16.5491 20.7968L10.8626 23.9414L5.22775 20.7968L10.8626 17.676ZM3.54646 31.3491V23.4896L9.27251 26.6857V34.5452L3.54646 31.3491ZM10.8626 50.1923L16.5491 53.3131L10.8626 56.4577L5.22775 53.3131L10.8626 50.1923ZM3.54646 56.0096L9.27251 59.2057V67.0652L3.54646 63.8691V56.0096ZM35.8252 70.4796L41.5512 73.6756V81.5351L35.8252 78.339V70.4796ZM43.1414 70.9276L37.5065 67.783L43.1414 64.6622L48.8239 67.783L43.1414 70.9276ZM44.7236 81.5431V73.6796L50.5249 70.4676V78.331L44.7236 81.5431ZM53.6973 67.7756C53.6973 67.7716 53.6933 67.7716 53.6933 67.7677C53.6933 67.506 53.6101 67.268 53.4951 67.0499C53.4633 66.9865 53.4237 66.9389 53.3801 66.8794C53.2651 66.7168 53.1263 66.582 52.9597 66.4749C52.924 66.4512 52.9082 66.4075 52.8685 66.3877L43.8988 61.4626C43.4189 61.2009 42.8439 61.2009 42.3681 61.4666L33.4697 66.3917C33.4301 66.4115 33.4142 66.4591 33.3785 66.4829C33.2159 66.5899 33.0771 66.7248 32.9661 66.8834C32.9265 66.9389 32.8868 66.9904 32.8551 67.0499C32.7401 67.268 32.6608 67.506 32.6568 67.7677C32.6568 67.7716 32.6529 67.7716 32.6529 67.7756V70.6981L21.4151 64.4248V58.5322L35.0567 50.9899L42.3729 55.0703C42.3927 55.0822 42.4205 55.0782 42.4403 55.0862C42.6545 55.1932 42.8884 55.2686 43.1422 55.2686C43.396 55.2686 43.63 55.1932 43.8441 55.0862C43.8639 55.0743 43.8917 55.0822 43.9115 55.0703L51.2555 51.0018L64.9834 58.5401V64.4129L53.6939 70.6624V67.7715L53.6973 67.7756ZM77.0579 67.0777V59.2142L82.8553 56.0022V63.8657L77.0579 67.0777ZM75.4757 56.4623L69.8408 53.3176L75.4757 50.1969L81.1582 53.3176L75.4757 56.4623ZM77.0579 34.5614V26.698L82.8553 23.4859V31.3494L77.0579 34.5614Z"
        fill="black" />
</svg>