<svg id="Group_174" data-name="Group 174" xmlns="http://www.w3.org/2000/svg" xmlns:xlink="http://www.w3.org/1999/xlink" width="1920" height="1080" viewBox="0 0 1920 1080">
  <defs>
    <clipPath id="clip-path">
      <rect id="Rectangle_122" data-name="Rectangle 122" width="1920" height="1080" fill="#fff" stroke="#707070" stroke-width="1"/>
    </clipPath>
  </defs>
  <g id="Mask_Group_4" data-name="Mask Group 4" clip-path="url(#clip-path)">
    <g id="Group_84" data-name="Group 84">
      <path id="Path_16" data-name="Path 16" d="M31.195,1671.429,1537.927,23.694l1324.06,1.228L4365.04,1671.429,2861.987,3315.478H1537.927ZM1528.411,0,0,1671.444l1528.411,1667.7H2871.52L4396.2,1671.444,2871.52,1.248Z" transform="translate(-1626.85 -1129.574)" fill="#191919"/>
      <path id="Path_17" data-name="Path 17" d="M2547.415,1.106,1355.9,0,0,1483.212,1355.9,2963.107H2547.415L3900.006,1483.212Zm-9.523,2938.351H1365.406L31.16,1483.2,1365.406,23.673,2537.892,24.76,3868.881,1483.2Z" transform="translate(-1378.613 -941.459)" fill="#191919"/>
      <path id="Path_18" data-name="Path 18" d="M2176.656.946,1158.557,0,0,1267.887l1158.557,1265.05h1018.1l1155.73-1265.05Zm-5.343,2518.737H1163.872L17.439,1267.871,1163.872,13.255l1007.442.936L3314.947,1267.871Z" transform="translate(-1094.801 -726.374)" fill="#7fbc8c"/>
      <path id="Path_19" data-name="Path 19" d="M1805.737.785,961.131,0,0,1052.467,961.131,2102.579h844.606l958.783-1050.112ZM1796.4,2079.408H970.412L30.466,1052.441,970.412,23.171l825.991.768,937.652,1028.5Z" transform="translate(-810.869 -511.195)" fill="#c693ff"/>
      <path id="Path_20" data-name="Path 20" d="M1614.871.705,859.537,0,0,941.62l859.537,939.512h755.334L2472.309,941.62Zm-16.821,1838.646H876.266L54.91,941.573,876.266,41.78l721.783.674L2417.4,941.573Z" transform="translate(-664.762 -400.472)" fill="#ffc700"/>
      <path id="Path_21" data-name="Path 21" d="M1416.808.62,754.114,0,0,826.59l754.114,824.739h662.693L2169.08,826.59Zm-76.36,1460.962H830.05l-580.809-635.2L830.05,189.748l510.4.478,579.39,636.151Z" transform="translate(-513.148 -285.57)" fill="#ff8f40"/>
    </g>
  </g>
  <g id="Group_17" data-name="Group 17">
    <circle id="Ellipse_1" data-name="Ellipse 1" cx="210.5" cy="210.5" r="210.5" transform="translate(1374 625)" fill="#f9f5f2"/>
    <circle id="Ellipse_2" data-name="Ellipse 2" cx="191.5" cy="191.5" r="191.5" transform="translate(1393 644)" fill="#282826"/>
    <path id="Path_200" data-name="Path 200" d="M88.657,1.778a7.184,7.184,0,0,1,10.137.676l67.048,76.626a7.183,7.183,0,0,1,0,9.461L98.794,165.166A7.184,7.184,0,0,1,87.982,155.7L144.6,90.993H7.184a7.184,7.184,0,1,1,0-14.367H144.6L87.982,11.914A7.184,7.184,0,0,1,88.657,1.778Z" transform="translate(1466 835.524) rotate(-45)" fill="#f9f5f2" fill-rule="evenodd"/>
  </g>
  <g id="Group_172" data-name="Group 172" transform="translate(219.993 -161.143)">
    <circle id="Ellipse_1-2" data-name="Ellipse 1" cx="91" cy="91" r="91" transform="translate(1374.007 626.143)" fill="#f9f5f2"/>
    <ellipse id="Ellipse_2-2" data-name="Ellipse 2" cx="83" cy="82.5" rx="83" ry="82.5" transform="translate(1383.007 633.143)" fill="#5865f2"/>
    <path id="discord-mark-white" d="M70.264,5.265A68.6,68.6,0,0,0,53.151,0a47.014,47.014,0,0,0-2.192,4.456,63.726,63.726,0,0,0-18.991,0A47.214,47.214,0,0,0,29.776,0,69.083,69.083,0,0,0,12.65,5.278C1.82,21.3-1.116,36.926.352,52.329h0A68.978,68.978,0,0,0,21.34,62.866a50.692,50.692,0,0,0,4.5-7.248,44.637,44.637,0,0,1-7.079-3.379c.594-.431,1.174-.874,1.735-1.3a49.3,49.3,0,0,0,41.963,0c.568.463,1.148.907,1.735,1.3A44.808,44.808,0,0,1,57.1,55.624a50.234,50.234,0,0,0,4.5,7.242,68.665,68.665,0,0,0,21-10.53h0C84.317,34.473,79.652,18.992,70.264,5.265ZM27.695,42.856c-4.091,0-7.47-3.712-7.47-8.279s3.262-8.312,7.457-8.312,7.548,3.745,7.477,8.312S31.863,42.856,27.695,42.856Zm27.558,0c-4.1,0-7.464-3.712-7.464-8.279s3.262-8.312,7.464-8.312,7.529,3.745,7.457,8.312S59.421,42.856,55.252,42.856Z" transform="translate(1424.438 684.805)" fill="#fff"/>
  </g>
</svg>
