<svg xmlns="http://www.w3.org/2000/svg" xmlns:xlink="http://www.w3.org/1999/xlink" width="335" height="707" viewBox="0 0 335 707">
  <defs>
    <clipPath id="clip-path">
      <rect id="Rectangle_175" data-name="Rectangle 175" width="335" height="707" fill="#fff" stroke="#707070" stroke-width="1"/>
    </clipPath>
    <clipPath id="clip-path-2">
      <rect id="Rectangle_171" data-name="Rectangle 171" width="69.697" height="29.183" fill="none"/>
    </clipPath>
  </defs>
  <g id="Mask_Group_8" data-name="Mask Group 8" clip-path="url(#clip-path)">
    <g id="Group_198" data-name="Group 198">
      <g id="Group_182" data-name="Group 182" transform="translate(657.229 -660.842) rotate(-90)">
        <path id="Path_214" data-name="Path 214" d="M10.408,557.669,513.127,7.906l441.77.41,501.491,549.354L954.9,1106.2H513.127ZM509.951,0,0,557.674,509.951,1114.1H958.078l508.708-556.427L958.078.416Z" transform="translate(-1626.85 -1129.574)" fill="#191919"/>
        <path id="Path_215" data-name="Path 215" d="M849.941.369,452.394,0,0,494.871,452.394,988.636H849.941l451.29-493.764Zm-3.177,980.376h-391.2L10.4,494.866,455.566,7.9l391.2.363,444.082,486.605Z" transform="translate(-1544.026 -1066.809)" fill="#191919"/>
        <path id="Path_216" data-name="Path 216" d="M726.237.315,386.551,0,0,423.028,386.551,845.11H726.237l385.608-422.082Zm-1.782,840.372H388.324L5.818,423.023,388.324,4.423l336.131.312,381.571,418.288Z" transform="translate(-1449.332 -995.047)" fill="#7fbc8c"/>
        <path id="Path_217" data-name="Path 217" d="M602.481.262,320.68,0,0,351.154,320.68,701.522h281.8l319.9-350.368Zm-3.114,693.529H323.776L10.165,351.145,323.776,7.731l275.59.256L912.213,351.145Z" transform="translate(-1354.599 -923.253)" fill="#c693ff"/>
        <path id="Path_218" data-name="Path 218" d="M538.8.235,286.783,0,0,314.17,286.783,627.636H538.8L824.882,314.17ZM533.187,613.7H292.365L18.321,314.154,292.365,13.94l240.822.225,273.374,299.99Z" transform="translate(-1305.85 -886.31)" fill="#ffc700"/>
        <path id="Path_219" data-name="Path 219" d="M472.715.207,251.609,0,0,275.79,251.609,550.963H472.715L723.709,275.79ZM447.238,487.654H276.945L83.159,275.719,276.945,63.309l170.293.159L640.551,275.719Z" transform="translate(-1255.265 -847.974)" fill="#ff8f40"/>
      </g>
      <g id="Group_183" data-name="Group 183" transform="translate(-1358.3 -221.143)">
        <circle id="Ellipse_6" data-name="Ellipse 6" cx="55" cy="55" r="55" transform="translate(1374.3 626.143)" fill="#f9f5f2"/>
        <ellipse id="Ellipse_7" data-name="Ellipse 7" cx="50.5" cy="50" rx="50.5" ry="50" transform="translate(1379.3 630.143)" fill="#5865f2"/>
        <path id="discord-mark-white" d="M42.536,3.187A41.529,41.529,0,0,0,32.176,0a28.461,28.461,0,0,0-1.327,2.7,38.578,38.578,0,0,0-11.5,0A28.582,28.582,0,0,0,18.025,0,41.821,41.821,0,0,0,7.658,3.2,41.855,41.855,0,0,0,.213,31.679h0a41.757,41.757,0,0,0,12.705,6.378,30.688,30.688,0,0,0,2.721-4.388,27.022,27.022,0,0,1-4.285-2.046c.359-.261.711-.529,1.051-.79a29.846,29.846,0,0,0,25.4,0c.344.28.7.549,1.051.79a27.125,27.125,0,0,1-4.293,2.05,30.41,30.41,0,0,0,2.721,4.384A41.568,41.568,0,0,0,50,31.683h0A41.83,41.83,0,0,0,42.536,3.187ZM16.766,25.944a4.8,4.8,0,0,1-4.522-5.012A4.772,4.772,0,0,1,16.758,15.9a4.754,4.754,0,0,1,4.526,5.032C21.24,23.7,19.289,25.944,16.766,25.944Zm16.683,0a4.8,4.8,0,0,1-4.518-5.012A4.773,4.773,0,0,1,33.448,15.9a4.742,4.742,0,0,1,4.514,5.032C37.919,23.7,35.972,25.944,33.448,25.944Z" transform="translate(1404.652 661.655)" fill="#fff"/>
      </g>
      <g id="Group_197" data-name="Group 197" transform="translate(-1225 -165)">
        <circle id="Ellipse_8" data-name="Ellipse 8" cx="85" cy="85" r="85" transform="translate(1374 625)" fill="#f9f5f2"/>
        <circle id="Ellipse_9" data-name="Ellipse 9" cx="77" cy="77" r="77" transform="translate(1382 633)" fill="#282826"/>
        <path id="Path_220" data-name="Path 220" d="M36.991.742a3,3,0,0,1,4.229.282L69.194,32.994a3,3,0,0,1,0,3.948L41.22,68.913a3,3,0,0,1-4.511-3.948l23.625-27H3a3,3,0,0,1,0-5.995H60.334l-23.625-27A3,3,0,0,1,36.991.742Z" transform="translate(1411.264 708.89) rotate(-45)" fill="#f9f5f2" fill-rule="evenodd"/>
        <g id="Group_196" data-name="Group 196" transform="translate(1379.992 633.176)">
          <g id="Group_186" data-name="Group 186" transform="translate(43.602 13.299) rotate(-11)">
            <path id="Path_221" data-name="Path 221" d="M2.909,3.041l.114-.046L6.167,9.154l-1.141.464ZM0,1.731,3.891,14.775l2.439-.992-.666-2.089,1.512-.615,1,1.953,2.375-.965L4.257,0Z" transform="translate(0 3.537)" fill="#fff"/>
            <g id="Group_185" data-name="Group 185">
              <g id="Group_184" data-name="Group 184" clip-path="url(#clip-path-2)">
                <path id="Path_222" data-name="Path 222" d="M3.1,14.119,0,.929,3.485.111a2.876,2.876,0,0,1,1.849.08A2.74,2.74,0,0,1,6.578,1.362a7.512,7.512,0,0,1,.78,2.078,8.533,8.533,0,0,1,.258,2.142,2.616,2.616,0,0,1-.505,1.57,2.675,2.675,0,0,1-1.575.884l-1.072.252,1.226,5.224Zm.811-8.2.15-.035q.734-.173.8-.623a3.528,3.528,0,0,0-.12-1.253,3.359,3.359,0,0,0-.433-1.12.741.741,0,0,0-.856-.23l-.292.069Z" transform="translate(7.839 1.401)" fill="#fff"/>
                <path id="Path_223" data-name="Path 223" d="M1.057,13.8,0,.294,3.569.014a2.876,2.876,0,0,1,1.816.36A2.741,2.741,0,0,1,6.436,1.72a7.517,7.517,0,0,1,.455,2.173,8.522,8.522,0,0,1-.07,2.156,2.613,2.613,0,0,1-.738,1.475,2.675,2.675,0,0,1-1.692.634l-1.1.086.419,5.349ZM3.1,5.819l.153-.012q.752-.059.888-.494a3.523,3.523,0,0,0,.071-1.256,3.358,3.358,0,0,0-.258-1.173.742.742,0,0,0-.812-.357l-.3.023Z" transform="translate(16.711 0.176)" fill="#fff"/>
                <path id="Path_224" data-name="Path 224" d="M0,13.524.814,0l2.7.163L2.844,11.382l2.782.167-.139,2.305Z" transform="translate(24.792 0)" fill="#fff"/>
                <path id="Path_225" data-name="Path 225" d="M0,13.715l.824-4.38L.38,0,3.02.5,2.913,5.145,4.5.776l2.633.5-3.8,8.536-.824,4.38Z" transform="translate(31.808 0.434)" fill="#fff"/>
                <path id="Path_226" data-name="Path 226" d="M0,12.4,5.468,0l2.55,1.125L6.54,7.566,9.159,1.628l2.395,1.057-5.468,12.4L3.663,14.012,5.157,7.267l-2.734,6.2Z" transform="translate(39.999 3.742)" fill="#fff"/>
                <path id="Path_227" data-name="Path 227" d="M1.58,12.25a3.121,3.121,0,0,1-1.55-2.173A4.184,4.184,0,0,1,.85,7.229l3.5-5.4A3.708,3.708,0,0,1,6.5.073a3.263,3.263,0,0,1,2.58.6,3.264,3.264,0,0,1,1.6,2.109,3.709,3.709,0,0,1-.721,2.679l-3.5,5.4A4.184,4.184,0,0,1,4.2,12.775,3.121,3.121,0,0,1,1.58,12.25m1.375-2.081Q3.472,10.5,4.12,9.5L7.715,3.951q.544-.84.04-1.166-.569-.368-1.125.491L3.039,8.82a1.947,1.947,0,0,0-.362.843.537.537,0,0,0,.278.506" transform="translate(47.808 8.797)" fill="#fff"/>
                <path id="Path_228" data-name="Path 228" d="M0,10.764,8.357,0l1.906,1.838-5.4,6.675,6.485-5.628,1.818,1.752L7.752,11.3l6.457-5.655L16.137,7.5,5.669,16.23,3.331,13.975,7.369,8.811,2.378,13.056Z" transform="translate(53.559 12.954)" fill="#fff"/>
              </g>
            </g>
          </g>
          <g id="Group_189" data-name="Group 189" transform="matrix(-0.966, 0.259, -0.259, -0.966, 118.032, 137.9)">
            <path id="Path_229" data-name="Path 229" d="M2.909,3.041l.114-.046L6.167,9.154l-1.141.464ZM0,1.731,3.891,14.775l2.439-.992-.666-2.089,1.512-.615,1,1.953,2.375-.965L4.257,0Z" transform="translate(0 3.537)" fill="#fff"/>
            <g id="Group_188" data-name="Group 188">
              <g id="Group_187" data-name="Group 187" clip-path="url(#clip-path-2)">
                <path id="Path_230" data-name="Path 230" d="M3.1,14.119,0,.929,3.485.111a2.876,2.876,0,0,1,1.849.08A2.74,2.74,0,0,1,6.578,1.362a7.512,7.512,0,0,1,.78,2.078,8.533,8.533,0,0,1,.258,2.142,2.616,2.616,0,0,1-.505,1.57,2.675,2.675,0,0,1-1.575.884l-1.072.252,1.226,5.224Zm.811-8.2.15-.035q.734-.173.8-.623a3.528,3.528,0,0,0-.12-1.253,3.359,3.359,0,0,0-.433-1.12.741.741,0,0,0-.856-.23l-.292.069Z" transform="translate(7.839 1.401)" fill="#fff"/>
                <path id="Path_231" data-name="Path 231" d="M1.057,13.8,0,.294,3.569.014a2.876,2.876,0,0,1,1.816.36A2.741,2.741,0,0,1,6.436,1.72a7.517,7.517,0,0,1,.455,2.173,8.522,8.522,0,0,1-.07,2.156,2.613,2.613,0,0,1-.738,1.475,2.675,2.675,0,0,1-1.692.634l-1.1.086.419,5.349ZM3.1,5.819l.153-.012q.752-.059.888-.494a3.523,3.523,0,0,0,.071-1.256,3.358,3.358,0,0,0-.258-1.173.742.742,0,0,0-.812-.357l-.3.023Z" transform="translate(16.711 0.176)" fill="#fff"/>
                <path id="Path_232" data-name="Path 232" d="M0,13.524.814,0l2.7.163L2.844,11.382l2.782.167-.139,2.305Z" transform="translate(24.792 0)" fill="#fff"/>
                <path id="Path_233" data-name="Path 233" d="M0,13.715l.824-4.38L.38,0,3.02.5,2.913,5.145,4.5.776l2.633.5-3.8,8.536-.824,4.38Z" transform="translate(31.808 0.434)" fill="#fff"/>
                <path id="Path_234" data-name="Path 234" d="M0,12.4,5.468,0l2.55,1.125L6.54,7.566,9.159,1.628l2.395,1.057-5.468,12.4L3.663,14.012,5.157,7.267l-2.734,6.2Z" transform="translate(39.999 3.742)" fill="#fff"/>
                <path id="Path_235" data-name="Path 235" d="M1.58,12.25a3.121,3.121,0,0,1-1.55-2.173A4.184,4.184,0,0,1,.85,7.229l3.5-5.4A3.708,3.708,0,0,1,6.5.073a3.263,3.263,0,0,1,2.58.6,3.264,3.264,0,0,1,1.6,2.109,3.709,3.709,0,0,1-.721,2.679l-3.5,5.4A4.184,4.184,0,0,1,4.2,12.775,3.121,3.121,0,0,1,1.58,12.25m1.375-2.081Q3.472,10.5,4.12,9.5L7.715,3.951q.544-.84.04-1.166-.569-.368-1.125.491L3.039,8.82a1.947,1.947,0,0,0-.362.843.537.537,0,0,0,.278.506" transform="translate(47.808 8.797)" fill="#fff"/>
                <path id="Path_236" data-name="Path 236" d="M0,10.764,8.357,0l1.906,1.838-5.4,6.675,6.485-5.628,1.818,1.752L7.752,11.3l6.457-5.655L16.137,7.5,5.669,16.23,3.331,13.975,7.369,8.811,2.378,13.056Z" transform="translate(53.559 12.954)" fill="#fff"/>
              </g>
            </g>
          </g>
          <g id="Group_192" data-name="Group 192" transform="translate(142.237 41.179) rotate(79)">
            <path id="Path_237" data-name="Path 237" d="M2.909,3.041l.114-.046L6.167,9.154l-1.141.464ZM0,1.731,3.891,14.775l2.439-.992-.666-2.089,1.512-.615,1,1.953,2.375-.965L4.257,0Z" transform="translate(0 3.537)" fill="#fff"/>
            <g id="Group_191" data-name="Group 191" transform="translate(0 0)">
              <g id="Group_190" data-name="Group 190" clip-path="url(#clip-path-2)">
                <path id="Path_238" data-name="Path 238" d="M3.1,14.119,0,.929,3.485.111a2.876,2.876,0,0,1,1.849.08A2.74,2.74,0,0,1,6.578,1.362a7.512,7.512,0,0,1,.78,2.078,8.533,8.533,0,0,1,.258,2.142,2.616,2.616,0,0,1-.505,1.57,2.675,2.675,0,0,1-1.575.884l-1.072.252,1.226,5.224Zm.811-8.2.15-.035q.734-.173.8-.623a3.528,3.528,0,0,0-.12-1.253,3.359,3.359,0,0,0-.433-1.12.741.741,0,0,0-.856-.23l-.292.069Z" transform="translate(7.839 1.401)" fill="#fff"/>
                <path id="Path_239" data-name="Path 239" d="M1.057,13.8,0,.294,3.569.014a2.876,2.876,0,0,1,1.816.36A2.741,2.741,0,0,1,6.436,1.72a7.517,7.517,0,0,1,.455,2.173,8.522,8.522,0,0,1-.07,2.156,2.613,2.613,0,0,1-.738,1.475,2.675,2.675,0,0,1-1.692.634l-1.1.086.419,5.349ZM3.1,5.819l.153-.012q.752-.059.888-.494a3.523,3.523,0,0,0,.071-1.256,3.358,3.358,0,0,0-.258-1.173.742.742,0,0,0-.812-.357l-.3.023Z" transform="translate(16.711 0.176)" fill="#fff"/>
                <path id="Path_240" data-name="Path 240" d="M0,13.524.814,0l2.7.163L2.844,11.382l2.782.167-.139,2.305Z" transform="translate(24.792 0)" fill="#fff"/>
                <path id="Path_241" data-name="Path 241" d="M0,13.715l.824-4.38L.38,0,3.02.5,2.913,5.145,4.5.776l2.633.5-3.8,8.536-.824,4.38Z" transform="translate(31.808 0.434)" fill="#fff"/>
                <path id="Path_242" data-name="Path 242" d="M0,12.4,5.468,0l2.55,1.125L6.54,7.566,9.159,1.628l2.395,1.057-5.468,12.4L3.663,14.012,5.157,7.267l-2.734,6.2Z" transform="translate(39.999 3.742)" fill="#fff"/>
                <path id="Path_243" data-name="Path 243" d="M1.58,12.25a3.121,3.121,0,0,1-1.55-2.173A4.184,4.184,0,0,1,.85,7.229l3.5-5.4A3.708,3.708,0,0,1,6.5.073a3.263,3.263,0,0,1,2.58.6,3.264,3.264,0,0,1,1.6,2.109,3.709,3.709,0,0,1-.721,2.679l-3.5,5.4A4.184,4.184,0,0,1,4.2,12.775,3.121,3.121,0,0,1,1.58,12.25m1.375-2.081Q3.472,10.5,4.12,9.5L7.715,3.951q.544-.84.04-1.166-.569-.368-1.125.491L3.039,8.82a1.947,1.947,0,0,0-.362.843.537.537,0,0,0,.278.506" transform="translate(47.808 8.797)" fill="#fff"/>
                <path id="Path_244" data-name="Path 244" d="M0,10.764,8.357,0l1.906,1.838-5.4,6.675,6.485-5.628,1.818,1.752L7.752,11.3l6.457-5.655L16.137,7.5,5.669,16.23,3.331,13.975,7.369,8.811,2.378,13.056Z" transform="translate(53.559 12.954)" fill="#fff"/>
              </g>
            </g>
          </g>
          <g id="Group_195" data-name="Group 195" transform="matrix(-0.259, -0.966, 0.966, -0.259, 18.039, 115.609)">
            <path id="Path_245" data-name="Path 245" d="M2.909,3.041l.114-.046L6.167,9.154l-1.141.464ZM0,1.731,3.891,14.775l2.439-.992-.666-2.089,1.512-.615,1,1.953,2.375-.965L4.257,0Z" transform="translate(0 3.537)" fill="#fff"/>
            <g id="Group_194" data-name="Group 194">
              <g id="Group_193" data-name="Group 193" clip-path="url(#clip-path-2)">
                <path id="Path_246" data-name="Path 246" d="M3.1,14.119,0,.929,3.485.111a2.876,2.876,0,0,1,1.849.08A2.74,2.74,0,0,1,6.578,1.362a7.512,7.512,0,0,1,.78,2.078,8.533,8.533,0,0,1,.258,2.142,2.616,2.616,0,0,1-.505,1.57,2.675,2.675,0,0,1-1.575.884l-1.072.252,1.226,5.224Zm.811-8.2.15-.035q.734-.173.8-.623a3.528,3.528,0,0,0-.12-1.253,3.359,3.359,0,0,0-.433-1.12.741.741,0,0,0-.856-.23l-.292.069Z" transform="translate(7.839 1.401)" fill="#fff"/>
                <path id="Path_247" data-name="Path 247" d="M1.057,13.8,0,.294,3.569.014a2.876,2.876,0,0,1,1.816.36A2.741,2.741,0,0,1,6.436,1.72a7.517,7.517,0,0,1,.455,2.173,8.522,8.522,0,0,1-.07,2.156,2.613,2.613,0,0,1-.738,1.475,2.675,2.675,0,0,1-1.692.634l-1.1.086.419,5.349ZM3.1,5.819l.153-.012q.752-.059.888-.494a3.523,3.523,0,0,0,.071-1.256,3.358,3.358,0,0,0-.258-1.173.742.742,0,0,0-.812-.357l-.3.023Z" transform="translate(16.711 0.176)" fill="#fff"/>
                <path id="Path_248" data-name="Path 248" d="M0,13.524.814,0l2.7.163L2.844,11.382l2.782.167-.139,2.305Z" transform="translate(24.792 0)" fill="#fff"/>
                <path id="Path_249" data-name="Path 249" d="M0,13.715l.824-4.38L.38,0,3.02.5,2.913,5.145,4.5.776l2.633.5-3.8,8.536-.824,4.38Z" transform="translate(31.808 0.434)" fill="#fff"/>
                <path id="Path_250" data-name="Path 250" d="M0,12.4,5.468,0l2.55,1.125L6.54,7.566,9.159,1.628l2.395,1.057-5.468,12.4L3.663,14.012,5.157,7.267l-2.734,6.2Z" transform="translate(39.999 3.742)" fill="#fff"/>
                <path id="Path_251" data-name="Path 251" d="M1.58,12.25a3.121,3.121,0,0,1-1.55-2.173A4.184,4.184,0,0,1,.85,7.229l3.5-5.4A3.708,3.708,0,0,1,6.5.073a3.263,3.263,0,0,1,2.58.6,3.264,3.264,0,0,1,1.6,2.109,3.709,3.709,0,0,1-.721,2.679l-3.5,5.4A4.184,4.184,0,0,1,4.2,12.775,3.121,3.121,0,0,1,1.58,12.25m1.375-2.081Q3.472,10.5,4.12,9.5L7.715,3.951q.544-.84.04-1.166-.569-.368-1.125.491L3.039,8.82a1.947,1.947,0,0,0-.362.843.537.537,0,0,0,.278.506" transform="translate(47.808 8.797)" fill="#fff"/>
                <path id="Path_252" data-name="Path 252" d="M0,10.764,8.357,0l1.906,1.838-5.4,6.675,6.485-5.628,1.818,1.752L7.752,11.3l6.457-5.655L16.137,7.5,5.669,16.23,3.331,13.975,7.369,8.811,2.378,13.056Z" transform="translate(53.559 12.954)" fill="#fff"/>
              </g>
            </g>
          </g>
          <path id="Path_253" data-name="Path 253" d="M8.6,4.3a4.3,4.3,0,0,0-4.3,4.3A4.3,4.3,0,0,0,0,4.3,4.3,4.3,0,0,0,4.3,0,4.3,4.3,0,0,0,8.6,4.3" transform="translate(30.598 34.657) rotate(-45)" fill="#f9f5f2"/>
          <path id="Path_254" data-name="Path 254" d="M8.6,4.3a4.3,4.3,0,0,0-4.3,4.3A4.3,4.3,0,0,0,0,4.3,4.3,4.3,0,0,0,4.3,0,4.3,4.3,0,0,0,8.6,4.3" transform="translate(33.425 121.687) rotate(-45)" fill="#f9f5f2"/>
          <path id="Path_255" data-name="Path 255" d="M8.6,4.3a4.3,4.3,0,0,0-4.3,4.3A4.3,4.3,0,0,0,0,4.3,4.3,4.3,0,0,0,4.3,0,4.3,4.3,0,0,0,8.6,4.3" transform="translate(115.396 34.657) rotate(-45)" fill="#f9f5f2"/>
          <path id="Path_256" data-name="Path 256" d="M8.6,4.3a4.3,4.3,0,0,0-4.3,4.3A4.3,4.3,0,0,0,0,4.3,4.3,4.3,0,0,0,4.3,0,4.3,4.3,0,0,0,8.6,4.3" transform="translate(115.396 119.051) rotate(-45)" fill="#f9f5f2"/>
        </g>
      </g>
    </g>
  </g>
</svg>
