<svg id="Group_174" data-name="Group 174" xmlns="http://www.w3.org/2000/svg" xmlns:xlink="http://www.w3.org/1999/xlink" width="1920" height="1080" viewBox="0 0 1920 1080">
  <defs>
    <clipPath id="clip-path">
      <rect id="Rectangle_122" data-name="Rectangle 122" width="1920" height="1080" fill="#fff" stroke="#707070" stroke-width="1"/>
    </clipPath>
    <clipPath id="clip-path-2">
      <rect id="Rectangle_170" data-name="Rectangle 170" width="172.602" height="72.272" fill="none"/>
    </clipPath>
  </defs>
  <g id="Mask_Group_4" data-name="Mask Group 4" clip-path="url(#clip-path)">
    <g id="Group_84" data-name="Group 84">
      <path id="Path_16" data-name="Path 16" d="M31.195,1671.429,1537.927,23.694l1324.06,1.228L4365.04,1671.429,2861.987,3315.478H1537.927ZM1528.411,0,0,1671.444l1528.411,1667.7H2871.52L4396.2,1671.444,2871.52,1.248Z" transform="translate(-1626.85 -1129.574)" fill="#191919"/>
      <path id="Path_17" data-name="Path 17" d="M2547.415,1.106,1355.9,0,0,1483.212,1355.9,2963.107H2547.415L3900.006,1483.212Zm-9.523,2938.351H1365.406L31.16,1483.2,1365.406,23.673,2537.892,24.76,3868.881,1483.2Z" transform="translate(-1378.613 -941.459)" fill="#191919"/>
      <path id="Path_18" data-name="Path 18" d="M2176.656.946,1158.557,0,0,1267.887l1158.557,1265.05h1018.1l1155.73-1265.05Zm-5.343,2518.737H1163.872L17.439,1267.871,1163.872,13.255l1007.442.936L3314.947,1267.871Z" transform="translate(-1094.801 -726.374)" fill="#7fbc8c"/>
      <path id="Path_19" data-name="Path 19" d="M1805.737.785,961.131,0,0,1052.467,961.131,2102.579h844.606l958.783-1050.112ZM1796.4,2079.408H970.412L30.466,1052.441,970.412,23.171l825.991.768,937.652,1028.5Z" transform="translate(-810.869 -511.195)" fill="#c693ff"/>
      <path id="Path_20" data-name="Path 20" d="M1614.871.705,859.537,0,0,941.62l859.537,939.512h755.334L2472.309,941.62Zm-16.821,1838.646H876.266L54.91,941.573,876.266,41.78l721.783.674L2417.4,941.573Z" transform="translate(-664.762 -400.472)" fill="#ffc700"/>
      <path id="Path_21" data-name="Path 21" d="M1416.808.62,754.114,0,0,826.59l754.114,824.739h662.693L2169.08,826.59Zm-76.36,1460.962H830.05l-580.809-635.2L830.05,189.748l510.4.478,579.39,636.151Z" transform="translate(-513.148 -285.57)" fill="#ff8f40"/>
    </g>
  </g>
  <g id="Group_17" data-name="Group 17">
    <circle id="Ellipse_1" data-name="Ellipse 1" cx="210.5" cy="210.5" r="210.5" transform="translate(1374 625)" fill="#f9f5f2"/>
    <circle id="Ellipse_2" data-name="Ellipse 2" cx="191.5" cy="191.5" r="191.5" transform="translate(1393 644)" fill="#282826"/>
    <path id="Path_200" data-name="Path 200" d="M88.657,1.778a7.184,7.184,0,0,1,10.137.676l67.048,76.626a7.183,7.183,0,0,1,0,9.461L98.794,165.166A7.184,7.184,0,0,1,87.982,155.7L144.6,90.993H7.184a7.184,7.184,0,1,1,0-14.367H144.6L87.982,11.914A7.184,7.184,0,0,1,88.657,1.778Z" transform="translate(1466 835.524) rotate(-45)" fill="#f9f5f2" fill-rule="evenodd"/>
  </g>
  <g id="Group_172" data-name="Group 172" transform="translate(219.993 -161.143)">
    <circle id="Ellipse_1-2" data-name="Ellipse 1" cx="91" cy="91" r="91" transform="translate(1374.007 626.143)" fill="#f9f5f2"/>
    <ellipse id="Ellipse_2-2" data-name="Ellipse 2" cx="83" cy="82.5" rx="83" ry="82.5" transform="translate(1383.007 633.143)" fill="#5865f2"/>
    <path id="discord-mark-white" d="M70.264,5.265A68.6,68.6,0,0,0,53.151,0a47.014,47.014,0,0,0-2.192,4.456,63.726,63.726,0,0,0-18.991,0A47.214,47.214,0,0,0,29.776,0,69.083,69.083,0,0,0,12.65,5.278C1.82,21.3-1.116,36.926.352,52.329h0A68.978,68.978,0,0,0,21.34,62.866a50.692,50.692,0,0,0,4.5-7.248,44.637,44.637,0,0,1-7.079-3.379c.594-.431,1.174-.874,1.735-1.3a49.3,49.3,0,0,0,41.963,0c.568.463,1.148.907,1.735,1.3A44.808,44.808,0,0,1,57.1,55.624a50.234,50.234,0,0,0,4.5,7.242,68.665,68.665,0,0,0,21-10.53h0C84.317,34.473,79.652,18.992,70.264,5.265ZM27.695,42.856c-4.091,0-7.47-3.712-7.47-8.279s3.262-8.312,7.457-8.312,7.548,3.745,7.477,8.312S31.863,42.856,27.695,42.856Zm27.558,0c-4.1,0-7.464-3.712-7.464-8.279s3.262-8.312,7.464-8.312,7.529,3.745,7.457,8.312S59.421,42.856,55.252,42.856Z" transform="translate(1424.438 684.805)" fill="#fff"/>
  </g>
  <g id="Group_17-2" data-name="Group 17">
    <circle id="Ellipse_1-3" data-name="Ellipse 1" cx="210.5" cy="210.5" r="210.5" transform="translate(1374 625)" fill="#f9f5f2"/>
    <circle id="Ellipse_2-3" data-name="Ellipse 2" cx="191.5" cy="191.5" r="191.5" transform="translate(1393 644)" fill="#282826"/>
    <path id="Path_172" data-name="Path 172" d="M94.856,5.087a7.422,7.422,0,0,1,10.474.7l69.278,79.174a7.421,7.421,0,0,1,0,9.776L105.33,173.91a7.423,7.423,0,0,1-11.172-9.776L152.665,97.27H10.673a7.423,7.423,0,1,1,0-14.845H152.665L94.158,15.561A7.422,7.422,0,0,1,94.856,5.087Z" transform="translate(1461.687 832.75) rotate(-45)" fill="#f9f5f2" fill-rule="evenodd"/>
    <g id="Group_175" data-name="Group 175">
      <g id="Group_177" data-name="Group 177" transform="translate(1496.818 678.182) rotate(-11)">
        <path id="Path_201" data-name="Path 201" d="M7.205,23.237l.282-.114,7.786,15.253-2.826,1.149ZM0,19.992,9.635,52.3l6.039-2.456-1.65-5.173,3.744-1.522,2.481,4.836L26.13,45.59,10.544,15.706Z" transform="translate(0 -6.946)" fill="#fff"/>
        <g id="Group_176" data-name="Group 176">
          <g id="Group_175-2" data-name="Group 175" clip-path="url(#clip-path-2)">
            <path id="Path_202" data-name="Path 202" d="M42.471,41.187,34.8,8.522,43.433,6.5a7.123,7.123,0,0,1,4.58.2,6.785,6.785,0,0,1,3.079,2.9,18.6,18.6,0,0,1,1.933,5.147,21.133,21.133,0,0,1,.639,5.3,6.478,6.478,0,0,1-1.252,3.887,6.624,6.624,0,0,1-3.9,2.189l-2.654.623L48.893,39.68ZM44.48,20.878l.371-.087q1.819-.428,1.988-1.544a8.736,8.736,0,0,0-.3-3.1,8.317,8.317,0,0,0-1.073-2.774,1.835,1.835,0,0,0-2.121-.569l-.724.17Z" transform="translate(-15.391 -2.751)" fill="#fff"/>
            <path id="Path_203" data-name="Path 203" d="M76.814,34.962,74.2,1.511,83.034.819a7.123,7.123,0,0,1,4.5.891,6.787,6.787,0,0,1,2.6,3.334,18.616,18.616,0,0,1,1.128,5.381,21.1,21.1,0,0,1-.175,5.339,6.47,6.47,0,0,1-1.827,3.652,6.626,6.626,0,0,1-4.189,1.571l-2.718.213L83.39,34.447Zm5.07-19.768.38-.03q1.862-.146,2.2-1.224a8.724,8.724,0,0,0,.177-3.111A8.316,8.316,0,0,0,84,7.924a1.837,1.837,0,0,0-2.011-.885L81.25,7.1Z" transform="translate(-32.812 -0.346)" fill="#fff"/>
            <path id="Path_204" data-name="Path 204" d="M110.074,33.492,112.091,0l6.7.4-1.673,27.784,6.889.414-.344,5.709Z" transform="translate(-48.678 0)" fill="#fff"/>
            <path id="Path_205" data-name="Path 205" d="M141.225,35.894l2.041-10.848-1.1-23.117,6.539,1.23-.265,11.512L152.375,3.85l6.52,1.227-9.409,21.14-2.041,10.847Z" transform="translate(-62.454 -0.853)" fill="#fff"/>
            <path id="Path_206" data-name="Path 206" d="M177.594,47.312l13.542-30.7L197.45,19.4l-3.661,15.951,6.486-14.7,5.931,2.616-13.542,30.7-6-2.647,3.7-16.7-6.77,15.35Z" transform="translate(-78.537 -7.347)" fill="#fff"/>
            <path id="Path_207" data-name="Path 207" d="M216.177,69.393a7.728,7.728,0,0,1-3.84-5.382q-.464-3.2,2.034-7.052l8.662-13.378q2.342-3.617,5.323-4.344t6.389,1.48a8.084,8.084,0,0,1,3.965,5.224q.556,3.017-1.786,6.634l-8.662,13.378q-2.5,3.857-5.6,4.742a7.73,7.73,0,0,1-6.482-1.3m3.405-5.154q1.28.829,2.886-1.652l8.9-13.746q1.346-2.08.1-2.889-1.409-.912-2.787,1.216L219.792,60.9a4.823,4.823,0,0,0-.9,2.087,1.331,1.331,0,0,0,.688,1.252" transform="translate(-93.87 -17.272)" fill="#fff"/>
            <path id="Path_208" data-name="Path 208" d="M237.8,84.169l20.7-26.656,4.72,4.552L249.847,78.6l16.06-13.938,4.5,4.34L257,85.491l15.991-14,4.776,4.6L251.841,97.706l-5.792-5.584,10-12.789-12.36,10.513Z" transform="translate(-105.163 -25.434)" fill="#fff"/>
          </g>
        </g>
      </g>
      <g id="Group_178" data-name="Group 178" transform="matrix(-0.966, 0.259, -0.259, -0.966, 1681.141, 986.754)">
        <path id="Path_201-2" data-name="Path 201" d="M7.205,23.237l.282-.114,7.786,15.253-2.826,1.149ZM0,19.992,9.635,52.3l6.039-2.456-1.65-5.173,3.744-1.522,2.481,4.836L26.13,45.59,10.544,15.706Z" transform="translate(0 -6.946)" fill="#fff"/>
        <g id="Group_176-2" data-name="Group 176">
          <g id="Group_175-3" data-name="Group 175" clip-path="url(#clip-path-2)">
            <path id="Path_202-2" data-name="Path 202" d="M42.471,41.187,34.8,8.522,43.433,6.5a7.123,7.123,0,0,1,4.58.2,6.785,6.785,0,0,1,3.079,2.9,18.6,18.6,0,0,1,1.933,5.147,21.133,21.133,0,0,1,.639,5.3,6.478,6.478,0,0,1-1.252,3.887,6.624,6.624,0,0,1-3.9,2.189l-2.654.623L48.893,39.68ZM44.48,20.878l.371-.087q1.819-.428,1.988-1.544a8.736,8.736,0,0,0-.3-3.1,8.317,8.317,0,0,0-1.073-2.774,1.835,1.835,0,0,0-2.121-.569l-.724.17Z" transform="translate(-15.391 -2.751)" fill="#fff"/>
            <path id="Path_203-2" data-name="Path 203" d="M76.814,34.962,74.2,1.511,83.034.819a7.123,7.123,0,0,1,4.5.891,6.787,6.787,0,0,1,2.6,3.334,18.616,18.616,0,0,1,1.128,5.381,21.1,21.1,0,0,1-.175,5.339,6.47,6.47,0,0,1-1.827,3.652,6.626,6.626,0,0,1-4.189,1.571l-2.718.213L83.39,34.447Zm5.07-19.768.38-.03q1.862-.146,2.2-1.224a8.724,8.724,0,0,0,.177-3.111A8.316,8.316,0,0,0,84,7.924a1.837,1.837,0,0,0-2.011-.885L81.25,7.1Z" transform="translate(-32.812 -0.346)" fill="#fff"/>
            <path id="Path_204-2" data-name="Path 204" d="M110.074,33.492,112.091,0l6.7.4-1.673,27.784,6.889.414-.344,5.709Z" transform="translate(-48.678 0)" fill="#fff"/>
            <path id="Path_205-2" data-name="Path 205" d="M141.225,35.894l2.041-10.848-1.1-23.117,6.539,1.23-.265,11.512L152.375,3.85l6.52,1.227-9.409,21.14-2.041,10.847Z" transform="translate(-62.454 -0.853)" fill="#fff"/>
            <path id="Path_206-2" data-name="Path 206" d="M177.594,47.312l13.542-30.7L197.45,19.4l-3.661,15.951,6.486-14.7,5.931,2.616-13.542,30.7-6-2.647,3.7-16.7-6.77,15.35Z" transform="translate(-78.537 -7.347)" fill="#fff"/>
            <path id="Path_207-2" data-name="Path 207" d="M216.177,69.393a7.728,7.728,0,0,1-3.84-5.382q-.464-3.2,2.034-7.052l8.662-13.378q2.342-3.617,5.323-4.344t6.389,1.48a8.084,8.084,0,0,1,3.965,5.224q.556,3.017-1.786,6.634l-8.662,13.378q-2.5,3.857-5.6,4.742a7.73,7.73,0,0,1-6.482-1.3m3.405-5.154q1.28.829,2.886-1.652l8.9-13.746q1.346-2.08.1-2.889-1.409-.912-2.787,1.216L219.792,60.9a4.823,4.823,0,0,0-.9,2.087,1.331,1.331,0,0,0,.688,1.252" transform="translate(-93.87 -17.272)" fill="#fff"/>
            <path id="Path_208-2" data-name="Path 208" d="M237.8,84.169l20.7-26.656,4.72,4.552L249.847,78.6l16.06-13.938,4.5,4.34L257,85.491l15.991-14,4.776,4.6L251.841,97.706l-5.792-5.584,10-12.789-12.36,10.513Z" transform="translate(-105.163 -25.434)" fill="#fff"/>
          </g>
        </g>
      </g>
      <g id="Group_179" data-name="Group 179" transform="translate(1749.083 747.227) rotate(79)">
        <path id="Path_201-3" data-name="Path 201" d="M7.205,23.237l.282-.114,7.786,15.253-2.826,1.149ZM0,19.992,9.635,52.3l6.039-2.456-1.65-5.173,3.744-1.522,2.481,4.836L26.13,45.59,10.544,15.706Z" transform="translate(-1.526 0.907)" fill="#fff"/>
        <g id="Group_176-3" data-name="Group 176" transform="translate(-1.526 7.853)">
          <g id="Group_175-4" data-name="Group 175" clip-path="url(#clip-path-2)">
            <path id="Path_202-3" data-name="Path 202" d="M42.471,41.187,34.8,8.522,43.433,6.5a7.123,7.123,0,0,1,4.58.2,6.785,6.785,0,0,1,3.079,2.9,18.6,18.6,0,0,1,1.933,5.147,21.133,21.133,0,0,1,.639,5.3,6.478,6.478,0,0,1-1.252,3.887,6.624,6.624,0,0,1-3.9,2.189l-2.654.623L48.893,39.68ZM44.48,20.878l.371-.087q1.819-.428,1.988-1.544a8.736,8.736,0,0,0-.3-3.1,8.317,8.317,0,0,0-1.073-2.774,1.835,1.835,0,0,0-2.121-.569l-.724.17Z" transform="translate(-15.391 -2.751)" fill="#fff"/>
            <path id="Path_203-3" data-name="Path 203" d="M76.814,34.962,74.2,1.511,83.034.819a7.123,7.123,0,0,1,4.5.891,6.787,6.787,0,0,1,2.6,3.334,18.616,18.616,0,0,1,1.128,5.381,21.1,21.1,0,0,1-.175,5.339,6.47,6.47,0,0,1-1.827,3.652,6.626,6.626,0,0,1-4.189,1.571l-2.718.213L83.39,34.447Zm5.07-19.768.38-.03q1.862-.146,2.2-1.224a8.724,8.724,0,0,0,.177-3.111A8.316,8.316,0,0,0,84,7.924a1.837,1.837,0,0,0-2.011-.885L81.25,7.1Z" transform="translate(-32.812 -0.346)" fill="#fff"/>
            <path id="Path_204-3" data-name="Path 204" d="M110.074,33.492,112.091,0l6.7.4-1.673,27.784,6.889.414-.344,5.709Z" transform="translate(-48.678 0)" fill="#fff"/>
            <path id="Path_205-3" data-name="Path 205" d="M141.225,35.894l2.041-10.848-1.1-23.117,6.539,1.23-.265,11.512L152.375,3.85l6.52,1.227-9.409,21.14-2.041,10.847Z" transform="translate(-62.454 -0.853)" fill="#fff"/>
            <path id="Path_206-3" data-name="Path 206" d="M177.594,47.312l13.542-30.7L197.45,19.4l-3.661,15.951,6.486-14.7,5.931,2.616-13.542,30.7-6-2.647,3.7-16.7-6.77,15.35Z" transform="translate(-78.537 -7.347)" fill="#fff"/>
            <path id="Path_207-3" data-name="Path 207" d="M216.177,69.393a7.728,7.728,0,0,1-3.84-5.382q-.464-3.2,2.034-7.052l8.662-13.378q2.342-3.617,5.323-4.344t6.389,1.48a8.084,8.084,0,0,1,3.965,5.224q.556,3.017-1.786,6.634l-8.662,13.378q-2.5,3.857-5.6,4.742a7.73,7.73,0,0,1-6.482-1.3m3.405-5.154q1.28.829,2.886-1.652l8.9-13.746q1.346-2.08.1-2.889-1.409-.912-2.787,1.216L219.792,60.9a4.823,4.823,0,0,0-.9,2.087,1.331,1.331,0,0,0,.688,1.252" transform="translate(-93.87 -17.272)" fill="#fff"/>
            <path id="Path_208-3" data-name="Path 208" d="M237.8,84.169l20.7-26.656,4.72,4.552L249.847,78.6l16.06-13.938,4.5,4.34L257,85.491l15.991-14,4.776,4.6L251.841,97.706l-5.792-5.584,10-12.789-12.36,10.513Z" transform="translate(-105.163 -25.434)" fill="#fff"/>
          </g>
        </g>
      </g>
      <g id="Group_180" data-name="Group 180" transform="matrix(-0.259, -0.966, 0.966, -0.259, 1433.511, 931.551)">
        <path id="Path_201-4" data-name="Path 201" d="M7.205,23.237l.282-.114,7.786,15.253-2.826,1.149ZM0,19.992,9.635,52.3l6.039-2.456-1.65-5.173,3.744-1.522,2.481,4.836L26.13,45.59,10.544,15.706Z" transform="translate(0 -6.946)" fill="#fff"/>
        <g id="Group_176-4" data-name="Group 176">
          <g id="Group_175-5" data-name="Group 175" clip-path="url(#clip-path-2)">
            <path id="Path_202-4" data-name="Path 202" d="M42.471,41.187,34.8,8.522,43.433,6.5a7.123,7.123,0,0,1,4.58.2,6.785,6.785,0,0,1,3.079,2.9,18.6,18.6,0,0,1,1.933,5.147,21.133,21.133,0,0,1,.639,5.3,6.478,6.478,0,0,1-1.252,3.887,6.624,6.624,0,0,1-3.9,2.189l-2.654.623L48.893,39.68ZM44.48,20.878l.371-.087q1.819-.428,1.988-1.544a8.736,8.736,0,0,0-.3-3.1,8.317,8.317,0,0,0-1.073-2.774,1.835,1.835,0,0,0-2.121-.569l-.724.17Z" transform="translate(-15.391 -2.751)" fill="#fff"/>
            <path id="Path_203-4" data-name="Path 203" d="M76.814,34.962,74.2,1.511,83.034.819a7.123,7.123,0,0,1,4.5.891,6.787,6.787,0,0,1,2.6,3.334,18.616,18.616,0,0,1,1.128,5.381,21.1,21.1,0,0,1-.175,5.339,6.47,6.47,0,0,1-1.827,3.652,6.626,6.626,0,0,1-4.189,1.571l-2.718.213L83.39,34.447Zm5.07-19.768.38-.03q1.862-.146,2.2-1.224a8.724,8.724,0,0,0,.177-3.111A8.316,8.316,0,0,0,84,7.924a1.837,1.837,0,0,0-2.011-.885L81.25,7.1Z" transform="translate(-32.812 -0.346)" fill="#fff"/>
            <path id="Path_204-4" data-name="Path 204" d="M110.074,33.492,112.091,0l6.7.4-1.673,27.784,6.889.414-.344,5.709Z" transform="translate(-48.678 0)" fill="#fff"/>
            <path id="Path_205-4" data-name="Path 205" d="M141.225,35.894l2.041-10.848-1.1-23.117,6.539,1.23-.265,11.512L152.375,3.85l6.52,1.227-9.409,21.14-2.041,10.847Z" transform="translate(-62.454 -0.853)" fill="#fff"/>
            <path id="Path_206-4" data-name="Path 206" d="M177.594,47.312l13.542-30.7L197.45,19.4l-3.661,15.951,6.486-14.7,5.931,2.616-13.542,30.7-6-2.647,3.7-16.7-6.77,15.35Z" transform="translate(-78.537 -7.347)" fill="#fff"/>
            <path id="Path_207-4" data-name="Path 207" d="M216.177,69.393a7.728,7.728,0,0,1-3.84-5.382q-.464-3.2,2.034-7.052l8.662-13.378q2.342-3.617,5.323-4.344t6.389,1.48a8.084,8.084,0,0,1,3.965,5.224q.556,3.017-1.786,6.634l-8.662,13.378q-2.5,3.857-5.6,4.742a7.73,7.73,0,0,1-6.482-1.3m3.405-5.154q1.28.829,2.886-1.652l8.9-13.746q1.346-2.08.1-2.889-1.409-.912-2.787,1.216L219.792,60.9a4.823,4.823,0,0,0-.9,2.087,1.331,1.331,0,0,0,.688,1.252" transform="translate(-93.87 -17.272)" fill="#fff"/>
            <path id="Path_208-4" data-name="Path 208" d="M237.8,84.169l20.7-26.656,4.72,4.552L249.847,78.6l16.06-13.938,4.5,4.34L257,85.491l15.991-14,4.776,4.6L251.841,97.706l-5.792-5.584,10-12.789-12.36,10.513Z" transform="translate(-105.163 -25.434)" fill="#fff"/>
          </g>
        </g>
      </g>
      <path id="Path_209" data-name="Path 209" d="M60.161,48.958A10.64,10.64,0,0,0,49.519,59.6,10.642,10.642,0,0,0,38.876,48.958,10.644,10.644,0,0,0,49.519,38.316,10.642,10.642,0,0,0,60.161,48.958" transform="translate(1410.031 731.471) rotate(-45)" fill="#f9f5f2"/>
      <path id="Path_212" data-name="Path 212" d="M60.161,48.958A10.64,10.64,0,0,0,49.519,59.6,10.642,10.642,0,0,0,38.876,48.958,10.644,10.644,0,0,0,49.519,38.316,10.642,10.642,0,0,0,60.161,48.958" transform="translate(1417.031 946.998) rotate(-45)" fill="#f9f5f2"/>
      <path id="Path_210" data-name="Path 210" d="M60.161,48.958A10.64,10.64,0,0,0,49.519,59.6,10.642,10.642,0,0,0,38.876,48.958,10.644,10.644,0,0,0,49.519,38.316,10.642,10.642,0,0,0,60.161,48.958" transform="translate(1620.031 731.471) rotate(-45)" fill="#f9f5f2"/>
      <path id="Path_213" data-name="Path 213" d="M60.161,48.958A10.64,10.64,0,0,0,49.519,59.6,10.642,10.642,0,0,0,38.876,48.958,10.644,10.644,0,0,0,49.519,38.316,10.642,10.642,0,0,0,60.161,48.958" transform="translate(1620.031 940.471) rotate(-45)" fill="#f9f5f2"/>
    </g>
  </g>
</svg>
