<svg xmlns="http://www.w3.org/2000/svg" xmlns:xlink="http://www.w3.org/1999/xlink" width="335" height="707" viewBox="0 0 335 707">
  <defs>
    <clipPath id="clip-path">
      <rect id="Rectangle_169" data-name="Rectangle 169" width="335" height="707" fill="#fff" stroke="#707070" stroke-width="1"/>
    </clipPath>
  </defs>
  <g id="Mask_Group_7" data-name="Mask Group 7" clip-path="url(#clip-path)">
    <g id="Group_168" data-name="Group 168">
      <g id="Group_163" data-name="Group 163" transform="translate(657.229 -660.842) rotate(-90)">
        <path id="Path_192" data-name="Path 192" d="M10.408,557.669,513.127,7.906l441.77.41,501.491,549.354L954.9,1106.2H513.127ZM509.951,0,0,557.674,509.951,1114.1H958.078l508.708-556.427L958.078.416Z" transform="translate(-1626.85 -1129.574)" fill="#191919"/>
        <path id="Path_193" data-name="Path 193" d="M849.941.369,452.394,0,0,494.871,452.394,988.636H849.941l451.29-493.764Zm-3.177,980.376h-391.2L10.4,494.866,455.566,7.9l391.2.363,444.082,486.605Z" transform="translate(-1544.026 -1066.809)" fill="#191919"/>
        <path id="Path_194" data-name="Path 194" d="M726.237.315,386.551,0,0,423.028,386.551,845.11H726.237l385.608-422.082Zm-1.782,840.372H388.324L5.818,423.023,388.324,4.423l336.131.312,381.571,418.288Z" transform="translate(-1449.332 -995.047)" fill="#7fbc8c"/>
        <path id="Path_195" data-name="Path 195" d="M602.481.262,320.68,0,0,351.154,320.68,701.522h281.8l319.9-350.368Zm-3.114,693.529H323.776L10.165,351.145,323.776,7.731l275.59.256L912.213,351.145Z" transform="translate(-1354.599 -923.253)" fill="#c693ff"/>
        <path id="Path_196" data-name="Path 196" d="M538.8.235,286.783,0,0,314.17,286.783,627.636H538.8L824.882,314.17ZM533.187,613.7H292.365L18.321,314.154,292.365,13.94l240.822.225,273.374,299.99Z" transform="translate(-1305.85 -886.31)" fill="#ffc700"/>
        <path id="Path_197" data-name="Path 197" d="M472.715.207,251.609,0,0,275.79,251.609,550.963H472.715L723.709,275.79ZM447.238,487.654H276.945L83.159,275.719,276.945,63.309l170.293.159L640.551,275.719Z" transform="translate(-1255.265 -847.974)" fill="#ff8f40"/>
      </g>
      <g id="Group_17" data-name="Group 17" transform="translate(-1225.3 -165.3)">
        <circle id="Ellipse_1" data-name="Ellipse 1" cx="85" cy="85" r="85" transform="translate(1374.3 625.3)" fill="#f9f5f2"/>
        <circle id="Ellipse_2" data-name="Ellipse 2" cx="77.5" cy="77.5" r="77.5" transform="translate(1381.3 632.3)" fill="#282826"/>
        <path id="Path_172" data-name="Path 172" d="M37.056.743a3,3,0,0,1,4.237.282L69.316,33.052a3,3,0,0,1,0,3.955L41.293,69.034a3,3,0,0,1-4.519-3.955L60.44,38.032H3a3,3,0,1,1,0-6.005H60.44L36.774,4.98A3,3,0,0,1,37.056.743Z" transform="translate(1411.33 709.038) rotate(-45)" fill="#f9f5f2" fill-rule="evenodd"/>
      </g>
      <g id="Group_171" data-name="Group 171" transform="translate(-1358.3 -221.143)">
        <circle id="Ellipse_1-2" data-name="Ellipse 1" cx="55" cy="55" r="55" transform="translate(1374.3 626.143)" fill="#f9f5f2"/>
        <ellipse id="Ellipse_2-2" data-name="Ellipse 2" cx="50.5" cy="50" rx="50.5" ry="50" transform="translate(1379.3 630.143)" fill="#5865f2"/>
        <path id="discord-mark-white" d="M42.536,3.187A41.529,41.529,0,0,0,32.176,0a28.461,28.461,0,0,0-1.327,2.7,38.578,38.578,0,0,0-11.5,0A28.582,28.582,0,0,0,18.025,0,41.821,41.821,0,0,0,7.658,3.2,41.855,41.855,0,0,0,.213,31.679h0a41.757,41.757,0,0,0,12.705,6.378,30.688,30.688,0,0,0,2.721-4.388,27.022,27.022,0,0,1-4.285-2.046c.359-.261.711-.529,1.051-.79a29.846,29.846,0,0,0,25.4,0c.344.28.7.549,1.051.79a27.125,27.125,0,0,1-4.293,2.05,30.41,30.41,0,0,0,2.721,4.384A41.568,41.568,0,0,0,50,31.683h0A41.83,41.83,0,0,0,42.536,3.187ZM16.766,25.944a4.8,4.8,0,0,1-4.522-5.012A4.772,4.772,0,0,1,16.758,15.9a4.754,4.754,0,0,1,4.526,5.032C21.24,23.7,19.289,25.944,16.766,25.944Zm16.683,0a4.8,4.8,0,0,1-4.518-5.012A4.773,4.773,0,0,1,33.448,15.9a4.742,4.742,0,0,1,4.514,5.032C37.919,23.7,35.972,25.944,33.448,25.944Z" transform="translate(1404.652 661.655)" fill="#fff"/>
      </g>
    </g>
  </g>
</svg>
