<?xml version="1.0" encoding="UTF-8"?>
<svg id="Layer_2" data-name="Layer 2" xmlns="http://www.w3.org/2000/svg" viewBox="0 0 271.17 205.43">
  <defs>
    <style>
      .cls-1 {
        fill: #272725;
      }

      .cls-2 {
        fill: #282826;
      }

      .cls-3 {
        isolation: isolate;
      }

      .cls-4 {
        fill: #f9f5f2;
      }
    </style>
  </defs>
  <g id="OBJECTS">
    <g>
      <g id="Mask_Group_1" data-name="Mask Group 1">
        <g id="INNOVATE" class="cls-3">
          <g class="cls-3">
            <path class="cls-2" d="M.75,49.43V.45h9.46v48.98H.75Z"/>
            <path class="cls-2" d="M14.11,49.43V.45h10.08l4.51,23.46V.45h9.46v48.98h-9.57l-4.9-24.49v24.49h-9.57Z"/>
            <path class="cls-2" d="M42.5,49.43V.45h10.08l4.51,23.46V.45h9.46v48.98h-9.57l-4.9-24.49v24.49h-9.57Z"/>
            <path class="cls-2" d="M82.58,49.88c-3.92,0-6.91-1.18-8.98-3.55-2.07-2.37-3.1-5.78-3.1-10.26V12.8c0-4.19,1.02-7.38,3.08-9.55,2.05-2.17,5.05-3.26,9-3.26s6.95,1.09,9,3.26c2.05,2.17,3.08,5.35,3.08,9.55v23.27c0,4.47-1.04,7.89-3.1,10.26-2.07,2.37-5.06,3.55-8.98,3.55ZM82.66,40.86c1.48,0,2.23-1.44,2.23-4.31V12.64c0-2.41-.72-3.62-2.17-3.62-1.63,0-2.45,1.23-2.45,3.7v23.88c0,1.52.19,2.61.56,3.27.37.66.98.99,1.84.99Z"/>
            <path class="cls-2" d="M103.12,49.43L97.08.42h9.32l3.59,33.34L113.2.42h9.32l-6.04,49.01h-13.36Z"/>
            <path class="cls-2" d="M122.85,49.43L127.58.45h16.62l4.65,48.98h-9.27l-.7-7.9h-5.9l-.61,7.9h-9.52ZM133.68,33.71h4.45l-2.14-24.91h-.45l-1.86,24.91Z"/>
            <path class="cls-2" d="M155.33,49.43V9.85h-5.82V.45h21.43v9.41h-5.82v39.58h-9.8Z"/>
            <path class="cls-2" d="M173.67,49.43V.45h19.59v9.46h-9.63v9.55h9.24v9.21h-9.24v11.22h10.27v9.55h-20.23Z"/>
          </g>
        </g>
      </g>
      <g id="Mask_Group_2" data-name="Mask Group 2">
        <g id="FOR_GOOD" data-name="FOR GOOD" class="cls-3">
          <g class="cls-3">
            <path class="cls-2" d="M0,126.43V59.4h26.81v13.06h-13.33v10.66h12.64v12.91h-12.64v30.39H0Z"/>
            <path class="cls-2" d="M47.11,127.04c-5.36,0-9.45-1.62-12.28-4.86-2.83-3.24-4.25-7.92-4.25-14.04v-31.84c0-5.74,1.4-10.09,4.21-13.06s6.91-4.46,12.32-4.46,9.51,1.49,12.32,4.46,4.21,7.33,4.21,13.06v31.84c0,6.12-1.42,10.8-4.25,14.04-2.83,3.24-6.93,4.86-12.28,4.86ZM47.23,114.7c2.03,0,3.05-1.97,3.05-5.9v-32.72c0-3.3-.99-4.95-2.97-4.95-2.23,0-3.35,1.69-3.35,5.07v32.68c0,2.08.25,3.57.76,4.48.51.9,1.35,1.35,2.51,1.35Z"/>
            <path class="cls-2" d="M69.05,126.43V59.4h20.57c3.43,0,6.02.78,7.77,2.34,1.75,1.56,2.93,3.75,3.52,6.55.6,2.81.9,6.1.9,9.88s-.46,6.58-1.39,8.76-2.67,3.69-5.24,4.53c2.11.43,3.59,1.48,4.44,3.14s1.28,3.81,1.28,6.46v25.37h-13.22v-26.24c0-1.96-.4-3.17-1.2-3.64-.8-.47-2.09-.7-3.87-.7v30.58h-13.56ZM82.68,84.23h3.24c1.85,0,2.78-2.02,2.78-6.06,0-2.62-.2-4.33-.61-5.14-.41-.81-1.17-1.22-2.29-1.22h-3.12v12.42Z"/>
            <path class="cls-2" d="M138.33,127.04c-9.57,0-14.36-6.86-14.36-20.57v-28.91c0-12.52,5.48-18.78,16.45-18.78,4.52,0,7.98.91,10.4,2.72,2.41,1.82,4.08,4.46,4.99,7.94s1.37,7.72,1.37,12.72h-13.1v-5.94c0-1.45-.2-2.66-.59-3.64s-1.21-1.47-2.46-1.47c-1.55,0-2.57.52-3.07,1.56s-.74,2.18-.74,3.43v32.49c0,1.8.23,3.27.7,4.4.47,1.13,1.39,1.7,2.76,1.7s2.37-.56,2.84-1.7c.47-1.13.71-2.62.71-4.47v-9.56h-3.58v-11.58h16.38v39.04h-5.37l-2.29-5.64c-2.34,4.16-6.02,6.25-11.04,6.25Z"/>
            <path class="cls-2" d="M178.32,127.04c-5.36,0-9.45-1.62-12.28-4.86-2.83-3.24-4.25-7.92-4.25-14.04v-31.84c0-5.74,1.4-10.09,4.21-13.06s6.91-4.46,12.32-4.46,9.51,1.49,12.32,4.46,4.21,7.33,4.21,13.06v31.84c0,6.12-1.42,10.8-4.25,14.04-2.83,3.24-6.93,4.86-12.28,4.86ZM178.43,114.7c2.03,0,3.05-1.97,3.05-5.9v-32.72c0-3.3-.99-4.95-2.97-4.95-2.23,0-3.35,1.69-3.35,5.07v32.68c0,2.08.25,3.57.76,4.48.51.9,1.35,1.35,2.51,1.35Z"/>
            <path class="cls-2" d="M216.25,127.04c-5.36,0-9.45-1.62-12.28-4.86-2.83-3.24-4.25-7.92-4.25-14.04v-31.84c0-5.74,1.4-10.09,4.21-13.06s6.91-4.46,12.32-4.46,9.51,1.49,12.32,4.46,4.21,7.33,4.21,13.06v31.84c0,6.12-1.42,10.8-4.25,14.04-2.83,3.24-6.93,4.86-12.28,4.86ZM216.37,114.7c2.03,0,3.05-1.97,3.05-5.9v-32.72c0-3.3-.99-4.95-2.97-4.95-2.23,0-3.35,1.69-3.35,5.07v32.68c0,2.08.25,3.57.76,4.48.51.9,1.35,1.35,2.51,1.35Z"/>
            <path class="cls-2" d="M238.19,126.43V59.4h18.43c4.82,0,8.46,1.34,10.89,4.02,2.44,2.68,3.66,6.6,3.66,11.75v31.38c0,6.35-1.11,11.25-3.33,14.7s-6.11,5.18-11.67,5.18h-17.98ZM251.67,114.58h2.32c2.46,0,3.69-1.19,3.69-3.58v-34.58c0-2.23-.3-3.67-.9-4.32-.6-.65-1.81-.97-3.64-.97h-1.49v43.46Z"/>
          </g>
        </g>
      </g>
      <path id="Union_8" data-name="Union 8" class="cls-1" d="M10.03,205.43c-3.31,0-6-2.69-6-6v-20.88c0-.91.2-1.8.6-2.62-.4-.81-.6-1.71-.6-2.61v-20.89c0-3.31,2.69-6,6-6h204c3.31,0,6,2.69,6,6v20.89c0,3.31-2.69,6-6,6h-14.16v20.11c0,3.31-2.69,6-6,6H10.03Z"/>
      <g id="Union_7" data-name="Union 7">
        <path class="cls-4" d="M189.87,200.93H6.03c-3.03,0-5.5-2.47-5.5-5.5v-20.88c0-.84.18-1.65.55-2.4l.11-.22-.11-.22c-.36-.75-.55-1.56-.55-2.4v-20.88c0-3.03,2.47-5.5,5.5-5.5h204c3.03,0,5.5,2.47,5.5,5.5v20.88c0,3.03-2.47,5.5-5.5,5.5h-14.66v20.61c0,3.03-2.47,5.5-5.5,5.5Z"/>
        <path class="cls-2" d="M189.87,200.43c2.76,0,5-2.24,5-5v-21.11h15.16c2.76,0,5-2.24,5-5v-20.88c0-2.76-2.24-5-5-5H6.03c-2.76,0-5,2.24-5,5v20.88c0,.76.17,1.5.5,2.18l.21.44-.21.44c-.33.68-.5,1.41-.5,2.18v20.88c0,2.76,2.24,5,5,5h183.84M189.87,201.43H6.03c-3.31,0-6-2.69-6-6v-20.88c0-.94.21-1.82.6-2.61-.38-.79-.6-1.68-.6-2.61v-20.88c0-3.31,2.69-6,6-6h204c3.31,0,6,2.69,6,6v20.88c0,3.31-2.69,6-6,6h-14.16v20.11c0,3.31-2.69,6-6,6Z"/>
      </g>
      <g id="GANDHINAGAR_INDIA" data-name="GANDHINAGAR INDIA" class="cls-3">
        <g class="cls-3">
          <path class="cls-2" d="M45.15,162.95c-.41.54-.98.94-1.71,1.22-.73.28-1.56.41-2.48.41s-1.8-.22-2.53-.65-1.3-1.05-1.7-1.86-.61-1.74-.62-2.82v-.89c0-1.72.41-3.06,1.23-4.03.82-.97,1.97-1.45,3.45-1.45,1.27,0,2.27.31,3.02.94.74.63,1.19,1.53,1.34,2.71h-1.94c-.22-1.37-1.01-2.05-2.38-2.05-.89,0-1.56.32-2.02.96s-.7,1.57-.71,2.81v.88c0,1.23.26,2.18.78,2.86.52.68,1.24,1.02,2.16,1.02,1.01,0,1.73-.23,2.16-.69v-2.23h-2.34v-1.5h4.31v4.36Z"/>
          <path class="cls-2" d="M53.69,161.78h-4.41l-.92,2.65h-2.05l4.3-11.38h1.77l4.3,11.38h-2.06l-.93-2.65ZM49.83,160.19h3.3l-1.65-4.72-1.65,4.72Z"/>
          <path class="cls-2" d="M66.99,164.43h-1.98l-5.07-8.07v8.07h-1.98v-11.38h1.98l5.09,8.1v-8.1h1.96v11.38Z"/>
          <path class="cls-2" d="M69.33,164.43v-11.38h3.36c1,0,1.9.22,2.68.67.78.45,1.38,1.08,1.81,1.91.43.82.64,1.77.64,2.83v.57c0,1.08-.21,2.03-.64,2.84s-1.04,1.45-1.84,1.89c-.79.44-1.71.66-2.73.66h-3.27ZM71.3,154.65v8.2h1.29c1.04,0,1.83-.32,2.39-.97s.84-1.58.85-2.79v-.63c0-1.23-.27-2.18-.8-2.83-.54-.65-1.32-.98-2.34-.98h-1.38Z"/>
          <path class="cls-2" d="M88.81,164.43h-1.97v-5.05h-5.09v5.05h-1.98v-11.38h1.98v4.73h5.09v-4.73h1.97v11.38Z"/>
          <path class="cls-2" d="M93.23,164.43h-1.97v-11.38h1.97v11.38Z"/>
          <path class="cls-2" d="M104.69,164.43h-1.98l-5.07-8.07v8.07h-1.98v-11.38h1.98l5.09,8.1v-8.1h1.96v11.38Z"/>
          <path class="cls-2" d="M113.39,161.78h-4.41l-.92,2.65h-2.05l4.3-11.38h1.77l4.3,11.38h-2.06l-.93-2.65ZM109.54,160.19h3.3l-1.65-4.72-1.65,4.72Z"/>
          <path class="cls-2" d="M126.39,162.95c-.41.54-.98.94-1.71,1.22-.73.28-1.56.41-2.48.41s-1.8-.22-2.53-.65-1.3-1.05-1.7-1.86-.61-1.74-.62-2.82v-.89c0-1.72.41-3.06,1.23-4.03.82-.97,1.97-1.45,3.45-1.45,1.27,0,2.27.31,3.02.94.74.63,1.19,1.53,1.34,2.71h-1.94c-.22-1.37-1.01-2.05-2.38-2.05-.89,0-1.56.32-2.02.96s-.7,1.57-.71,2.81v.88c0,1.23.26,2.18.78,2.86.52.68,1.24,1.02,2.16,1.02,1.01,0,1.73-.23,2.16-.69v-2.23h-2.34v-1.5h4.31v4.36Z"/>
          <path class="cls-2" d="M134.93,161.78h-4.41l-.92,2.65h-2.05l4.3-11.38h1.77l4.3,11.38h-2.06l-.93-2.65ZM131.08,160.19h3.3l-1.65-4.72-1.65,4.72Z"/>
          <path class="cls-2" d="M143.39,160.05h-2.2v4.38h-1.98v-11.38h4c1.31,0,2.33.29,3.04.88.71.59,1.07,1.44,1.07,2.56,0,.76-.18,1.4-.55,1.91-.37.51-.88.91-1.54,1.18l2.55,4.74v.1h-2.12l-2.28-4.38ZM141.19,158.46h2.03c.67,0,1.19-.17,1.56-.5s.56-.8.56-1.38-.17-1.08-.52-1.41c-.35-.33-.86-.5-1.55-.52h-2.09v3.81Z"/>
          <path class="cls-2" d="M149.28,166.99l-1.02-.61c.3-.47.51-.89.62-1.24.11-.35.17-.71.18-1.07v-1.48h1.71v1.37c-.01.55-.15,1.11-.43,1.66s-.63,1.01-1.06,1.37Z"/>
          <path class="cls-2" d="M158.78,164.43h-1.97v-11.38h1.97v11.38Z"/>
          <path class="cls-2" d="M170.23,164.43h-1.98l-5.07-8.07v8.07h-1.98v-11.38h1.98l5.09,8.1v-8.1h1.96v11.38Z"/>
          <path class="cls-2" d="M172.57,164.43v-11.38h3.36c1,0,1.9.22,2.68.67.78.45,1.38,1.08,1.81,1.91.43.82.64,1.77.64,2.83v.57c0,1.08-.21,2.03-.64,2.84s-1.04,1.45-1.84,1.89c-.79.44-1.71.66-2.73.66h-3.27ZM174.54,154.65v8.2h1.29c1.04,0,1.83-.32,2.39-.97s.84-1.58.85-2.79v-.63c0-1.23-.27-2.18-.8-2.83-.54-.65-1.32-.98-2.34-.98h-1.38Z"/>
          <path class="cls-2" d="M185.11,164.43h-1.97v-11.38h1.97v11.38Z"/>
          <path class="cls-2" d="M193.9,161.78h-4.41l-.92,2.65h-2.05l4.3-11.38h1.77l4.3,11.38h-2.06l-.93-2.65ZM190.05,160.19h3.3l-1.65-4.72-1.65,4.72Z"/>
        </g>
      </g>
      <g id="_21-23_MARCH_2025" data-name=" 21-23 MARCH 2025" class="cls-3">
        <g class="cls-3">
          <path class="cls-2" d="M23.11,190.43h-7.65v-1.3l3.79-4.13c.55-.61.94-1.12,1.17-1.53.23-.41.35-.82.35-1.23,0-.54-.15-.98-.46-1.31s-.71-.5-1.23-.5c-.62,0-1.09.19-1.43.56-.34.38-.51.89-.51,1.54h-1.9c0-.69.16-1.32.47-1.87.31-.55.77-.99,1.35-1.29s1.26-.46,2.03-.46c1.1,0,1.97.28,2.61.83.64.55.96,1.32.96,2.3,0,.57-.16,1.16-.48,1.79s-.85,1.33-1.57,2.12l-2.78,2.98h5.28v1.52Z"/>
          <path class="cls-2" d="M29.69,190.43h-1.89v-9.14l-2.79.95v-1.59l4.44-1.63h.24v11.41Z"/>
          <path class="cls-2" d="M37.45,186.36h-4.1v-1.53h4.1v1.53Z"/>
          <path class="cls-2" d="M46.54,190.43h-7.65v-1.3l3.79-4.13c.55-.61.94-1.12,1.17-1.53.23-.41.35-.82.35-1.23,0-.54-.15-.98-.46-1.31s-.71-.5-1.23-.5c-.62,0-1.09.19-1.43.56-.34.38-.51.89-.51,1.54h-1.9c0-.69.16-1.32.47-1.87.31-.55.77-.99,1.35-1.29s1.26-.46,2.03-.46c1.1,0,1.97.28,2.61.83.64.55.96,1.32.96,2.3,0,.57-.16,1.16-.48,1.79s-.85,1.33-1.57,2.12l-2.78,2.98h5.28v1.52Z"/>
          <path class="cls-2" d="M50.19,183.88h1.16c.58,0,1.04-.16,1.39-.45.34-.3.51-.73.51-1.29s-.14-.96-.43-1.26c-.28-.3-.72-.45-1.3-.45-.51,0-.93.15-1.26.44s-.49.68-.49,1.15h-1.9c0-.58.15-1.11.46-1.59.31-.48.74-.85,1.3-1.12s1.18-.4,1.86-.4c1.13,0,2.03.29,2.68.86s.97,1.36.97,2.38c0,.51-.16.99-.49,1.44-.33.45-.75.79-1.26,1.02.62.21,1.1.55,1.43,1.01.33.46.49,1,.49,1.64,0,1.02-.35,1.83-1.05,2.44-.7.6-1.62.91-2.76.91s-1.99-.29-2.69-.88c-.7-.58-1.05-1.36-1.05-2.33h1.9c0,.5.17.91.5,1.22s.79.47,1.36.47,1.05-.16,1.39-.47c.34-.31.51-.77.51-1.36s-.18-1.06-.53-1.38c-.35-.32-.88-.48-1.58-.48h-1.12v-1.5Z"/>
          <path class="cls-2" d="M63.94,179.05l3.28,8.72,3.27-8.72h2.55v11.38h-1.97v-3.75l.2-5.02-3.36,8.77h-1.41l-3.35-8.76.2,5.01v3.75h-1.97v-11.38h2.56Z"/>
          <path class="cls-2" d="M81.75,187.78h-4.41l-.92,2.65h-2.05l4.3-11.38h1.77l4.3,11.38h-2.06l-.93-2.65ZM77.9,186.19h3.3l-1.65-4.72-1.65,4.72Z"/>
          <path class="cls-2" d="M90.21,186.05h-2.2v4.38h-1.98v-11.38h4c1.31,0,2.33.29,3.04.88.71.59,1.07,1.44,1.07,2.56,0,.76-.18,1.4-.55,1.91-.37.51-.88.91-1.54,1.18l2.55,4.74v.1h-2.12l-2.28-4.38ZM88.01,184.46h2.03c.67,0,1.19-.17,1.56-.5s.56-.8.56-1.38-.17-1.08-.52-1.41c-.35-.33-.86-.5-1.55-.52h-2.09v3.81Z"/>
          <path class="cls-2" d="M104.69,186.73c-.12,1.21-.56,2.16-1.34,2.84s-1.82,1.02-3.12,1.02c-.91,0-1.71-.21-2.39-.64-.69-.43-1.22-1.04-1.6-1.83s-.57-1.71-.59-2.76v-1.06c0-1.07.19-2.02.57-2.84.38-.82.93-1.45,1.64-1.89s1.53-.66,2.46-.66c1.25,0,2.27.34,3.03,1.02s1.21,1.64,1.34,2.89h-1.97c-.09-.82-.33-1.41-.71-1.77s-.94-.54-1.68-.54c-.86,0-1.52.31-1.98.94s-.7,1.55-.71,2.76v1.01c0,1.23.22,2.17.66,2.82.44.65,1.08.97,1.93.97.78,0,1.36-.17,1.75-.52s.64-.93.74-1.74h1.97Z"/>
          <path class="cls-2" d="M115.49,190.43h-1.97v-5.05h-5.09v5.05h-1.98v-11.38h1.98v4.73h5.09v-4.73h1.97v11.38Z"/>
          <path class="cls-2" d="M129.15,190.43h-7.65v-1.3l3.79-4.13c.55-.61.94-1.12,1.17-1.53.23-.41.35-.82.35-1.23,0-.54-.15-.98-.46-1.31s-.71-.5-1.23-.5c-.62,0-1.09.19-1.43.56-.34.38-.51.89-.51,1.54h-1.9c0-.69.16-1.32.47-1.87.31-.55.77-.99,1.35-1.29s1.26-.46,2.03-.46c1.1,0,1.97.28,2.61.83.64.55.96,1.32.96,2.3,0,.57-.16,1.16-.48,1.79s-.85,1.33-1.57,2.12l-2.78,2.98h5.28v1.52Z"/>
          <path class="cls-2" d="M138.01,185.64c0,1.64-.31,2.87-.92,3.7-.61.83-1.54,1.25-2.79,1.25s-2.16-.41-2.78-1.21c-.62-.81-.94-2.01-.96-3.6v-1.97c0-1.64.31-2.86.92-3.68.61-.82,1.54-1.23,2.8-1.23s2.17.4,2.79,1.2c.61.8.93,1.99.94,3.58v1.97ZM136.12,183.52c0-1.07-.15-1.85-.44-2.35-.29-.5-.76-.75-1.39-.75s-1.08.24-1.37.71c-.29.47-.45,1.21-.46,2.21v2.58c0,1.06.15,1.85.45,2.38s.76.78,1.4.78,1.06-.24,1.35-.72c.29-.48.45-1.24.46-2.26v-2.57Z"/>
          <path class="cls-2" d="M147.34,190.43h-7.65v-1.3l3.79-4.13c.55-.61.94-1.12,1.17-1.53.23-.41.35-.82.35-1.23,0-.54-.15-.98-.46-1.31s-.71-.5-1.23-.5c-.62,0-1.09.19-1.43.56-.34.38-.51.89-.51,1.54h-1.9c0-.69.16-1.32.47-1.87.31-.55.77-.99,1.35-1.29s1.26-.46,2.03-.46c1.1,0,1.97.28,2.61.83.64.55.96,1.32.96,2.3,0,.57-.16,1.16-.48,1.79s-.85,1.33-1.57,2.12l-2.78,2.98h5.28v1.52Z"/>
          <path class="cls-2" d="M149.29,184.79l.62-5.73h6.11v1.64h-4.53l-.31,2.72c.53-.3,1.12-.45,1.78-.45,1.08,0,1.93.35,2.53,1.04s.9,1.62.9,2.8-.33,2.08-1,2.76c-.67.68-1.58,1.03-2.74,1.03-1.04,0-1.91-.3-2.59-.89-.69-.59-1.06-1.37-1.11-2.34h1.84c.07.55.27.98.59,1.27.32.29.74.44,1.27.44.58,0,1.04-.21,1.36-.62.33-.42.49-.98.49-1.7s-.18-1.24-.54-1.64-.85-.61-1.48-.61c-.34,0-.64.05-.88.14-.24.09-.5.27-.78.54l-1.52-.38Z"/>
        </g>
      </g>
      <path id="Path_169" data-name="Path 169" class="cls-2" d="M30.06,158.33c-4.09,0-7.4,3.31-7.4,7.4h0c0-4.09-3.31-7.4-7.4-7.4h0c4.09,0,7.4-3.31,7.4-7.4h0c0,4.09,3.31,7.4,7.4,7.4h0"/>
      <path id="Path_199" data-name="Path 199" class="cls-2" d="M180.36,184.24c-4.09,0-7.4,3.31-7.4,7.4h0c0-4.09-3.31-7.4-7.4-7.4h0c4.09,0,7.4-3.31,7.4-7.4h0c0,4.09,3.31,7.4,7.4,7.4h0"/>
    </g>
  </g>
</svg>