<svg width="980" height="641" viewBox="0 0 980 641" fill="none" xmlns="http://www.w3.org/2000/svg">
<path d="M6.23633 242V64.9688H40.4355V242H6.23633ZM54.5176 242V64.9688H90.9297L107.225 149.763V64.9688H141.424V242H106.822L89.1191 153.484V242H54.5176ZM157.115 242V64.9688H193.527L209.822 149.763V64.9688H244.021V242H209.42L191.717 153.484V242H157.115ZM301.959 243.609C287.81 243.609 276.98 239.351 269.47 230.835C262.026 222.252 258.305 209.88 258.305 193.719V109.629C258.305 94.474 261.993 82.9736 269.369 75.1279C276.812 67.2822 287.676 63.3594 301.959 63.3594C316.242 63.3594 327.072 67.2822 334.448 75.1279C341.892 82.9736 345.613 94.474 345.613 109.629V193.719C345.613 209.88 341.858 222.252 334.348 230.835C326.904 239.351 316.108 243.609 301.959 243.609ZM302.261 211.02C307.625 211.02 310.308 205.823 310.308 195.429V109.025C310.308 100.308 307.692 95.9492 302.462 95.9492C296.561 95.9492 293.61 100.409 293.61 109.327V195.63C293.61 201.129 294.281 205.085 295.622 207.499C296.963 209.846 299.176 211.02 302.261 211.02ZM376.191 242L354.364 64.8682H388.061L401.036 185.37L412.604 64.8682H446.3L424.473 242H376.191ZM447.607 242L464.707 64.9688H524.757L541.555 242H508.06L505.545 213.434H484.221L482.008 242H447.607ZM486.735 185.169H502.829L495.084 95.1445H493.475L486.735 185.169ZM564.991 242V98.9668H543.969V64.9688H621.42V98.9668H600.397V242H564.991ZM631.277 242V64.9688H702.09V99.168H667.287V133.669H700.682V166.963H667.287V207.499H704.403V242H631.277ZM10.5117 518V280.812H105.387V327.037H58.2188V364.771H102.961V410.457H58.2188V518H10.5117ZM177.352 520.156C158.395 520.156 143.885 514.451 133.822 503.041C123.85 491.541 118.863 474.965 118.863 453.312V340.648C118.863 320.344 123.805 304.936 133.688 294.424C143.66 283.912 158.215 278.656 177.352 278.656C196.488 278.656 210.998 283.912 220.881 294.424C230.854 304.936 235.84 320.344 235.84 340.648V453.312C235.84 474.965 230.809 491.541 220.746 503.041C210.773 514.451 196.309 520.156 177.352 520.156ZM177.756 476.492C184.943 476.492 188.537 469.529 188.537 455.604V339.84C188.537 328.16 185.033 322.32 178.025 322.32C170.119 322.32 166.166 328.295 166.166 340.244V455.873C166.166 463.24 167.064 468.541 168.861 471.775C170.658 474.92 173.623 476.492 177.756 476.492ZM254.977 518V280.812H327.75C339.879 280.812 349.043 283.598 355.242 289.168C361.441 294.648 365.574 302.375 367.641 312.348C369.797 322.23 370.875 333.865 370.875 347.252C370.875 360.189 369.213 370.521 365.889 378.248C362.654 385.975 356.5 391.32 347.426 394.285C354.883 395.812 360.094 399.541 363.059 405.471C366.113 411.311 367.641 418.902 367.641 428.246V518H320.877V425.146C320.877 418.229 319.439 413.961 316.564 412.344C313.779 410.637 309.242 409.783 302.953 409.783V518H254.977ZM303.223 368.68H314.678C321.236 368.68 324.516 361.537 324.516 347.252C324.516 337.998 323.797 331.934 322.359 329.059C320.922 326.184 318.227 324.746 314.273 324.746H303.223V368.68ZM500.115 520.156C466.244 520.156 449.309 495.898 449.309 447.383V345.096C449.309 300.803 468.715 278.656 507.527 278.656C523.52 278.656 535.783 281.891 544.318 288.359C552.854 294.738 558.738 304.082 561.973 316.391C565.207 328.699 566.824 343.703 566.824 361.402H520.465V340.379C520.465 335.258 519.746 330.99 518.309 327.576C516.961 324.072 514.086 322.32 509.684 322.32C504.203 322.32 500.564 324.162 498.768 327.846C497.061 331.529 496.207 335.572 496.207 339.975V454.93C496.207 461.309 497.016 466.52 498.633 470.562C500.34 474.516 503.619 476.492 508.471 476.492C513.502 476.492 516.826 474.516 518.443 470.562C520.15 466.52 521.004 461.219 521.004 454.66V420.834H508.336V379.865H566.285V518H547.283L539.197 498.055C530.932 512.789 517.904 520.156 500.115 520.156ZM641.754 520.156C622.797 520.156 608.287 514.451 598.225 503.041C588.252 491.541 583.266 474.965 583.266 453.312V340.648C583.266 320.344 588.207 304.936 598.09 294.424C608.062 283.912 622.617 278.656 641.754 278.656C660.891 278.656 675.4 283.912 685.283 294.424C695.256 304.936 700.242 320.344 700.242 340.648V453.312C700.242 474.965 695.211 491.541 685.148 503.041C675.176 514.451 660.711 520.156 641.754 520.156ZM642.158 476.492C649.346 476.492 652.939 469.529 652.939 455.604V339.84C652.939 328.16 649.436 322.32 642.428 322.32C634.521 322.32 630.568 328.295 630.568 340.244V455.873C630.568 463.24 631.467 468.541 633.264 471.775C635.061 474.92 638.025 476.492 642.158 476.492ZM775.98 520.156C757.023 520.156 742.514 514.451 732.451 503.041C722.479 491.541 717.492 474.965 717.492 453.312V340.648C717.492 320.344 722.434 304.936 732.316 294.424C742.289 283.912 756.844 278.656 775.98 278.656C795.117 278.656 809.627 283.912 819.51 294.424C829.482 304.936 834.469 320.344 834.469 340.648V453.312C834.469 474.965 829.438 491.541 819.375 503.041C809.402 514.451 794.938 520.156 775.98 520.156ZM776.385 476.492C783.572 476.492 787.166 469.529 787.166 455.604V339.84C787.166 328.16 783.662 322.32 776.654 322.32C768.748 322.32 764.795 328.295 764.795 340.244V455.873C764.795 463.24 765.693 468.541 767.49 471.775C769.287 474.92 772.252 476.492 776.385 476.492ZM853.605 518V280.812H918.832C935.902 280.812 948.75 285.574 957.375 295.098C966 304.531 970.312 318.367 970.312 336.605V447.652C970.312 470.113 966.359 487.453 958.453 499.672C950.637 511.891 936.891 518 917.215 518H853.605ZM901.312 476.088H909.533C918.248 476.088 922.605 471.865 922.605 463.42V341.053C922.605 333.146 921.527 328.07 919.371 325.824C917.305 323.488 913.037 322.32 906.568 322.32H901.312V476.088Z" fill="#282826"/>
<path d="M835 574H20C16.6863 574 14 576.686 14 580V635C14 638.314 16.6863 641 20 641H835C838.314 641 841 638.314 841 635V580C841 576.686 838.314 574 835 574Z" fill="#282826"/>
<path d="M835 575H20C17.2386 575 15 577.239 15 580V635C15 637.761 17.2386 640 20 640H835C837.761 640 840 637.761 840 635V580C840 577.239 837.761 575 835 575Z" stroke="#282826" stroke-width="2"/>
<path d="M829 568H14C10.6863 568 8 570.686 8 574V629C8 632.314 10.6863 635 14 635H829C832.314 635 835 632.314 835 629V574C835 570.686 832.314 568 829 568Z" fill="#F9F5F2"/>
<path d="M829 569H14C11.2386 569 9 571.239 9 574V629C9 631.761 11.2386 634 14 634H829C831.761 634 834 631.761 834 629V574C834 571.239 831.761 569 829 569Z" stroke="#282826" stroke-width="2"/>
<path d="M496.125 609V612H480.875V609.422L488.281 601.344C489.094 600.427 489.734 599.635 490.203 598.969C490.672 598.302 491 597.703 491.188 597.172C491.385 596.63 491.484 596.104 491.484 595.594C491.484 594.875 491.349 594.245 491.078 593.703C490.818 593.151 490.432 592.719 489.922 592.406C489.411 592.083 488.792 591.922 488.062 591.922C487.219 591.922 486.51 592.104 485.938 592.469C485.365 592.833 484.932 593.339 484.641 593.984C484.349 594.62 484.203 595.349 484.203 596.172H480.438C480.438 594.849 480.74 593.641 481.344 592.547C481.948 591.443 482.823 590.568 483.969 589.922C485.115 589.266 486.495 588.938 488.109 588.938C489.63 588.938 490.922 589.193 491.984 589.703C493.047 590.214 493.854 590.938 494.406 591.875C494.969 592.812 495.25 593.922 495.25 595.203C495.25 595.911 495.135 596.615 494.906 597.312C494.677 598.01 494.349 598.708 493.922 599.406C493.505 600.094 493.01 600.786 492.438 601.484C491.865 602.172 491.234 602.87 490.547 603.578L485.625 609H496.125ZM509.344 589.172V612H505.578V593.641L500 595.531V592.422L508.891 589.172H509.344ZM525.047 600.781V603.781H516.781V600.781H525.047ZM543.375 609V612H528.125V609.422L535.531 601.344C536.344 600.427 536.984 599.635 537.453 598.969C537.922 598.302 538.25 597.703 538.438 597.172C538.635 596.63 538.734 596.104 538.734 595.594C538.734 594.875 538.599 594.245 538.328 593.703C538.068 593.151 537.682 592.719 537.172 592.406C536.661 592.083 536.042 591.922 535.312 591.922C534.469 591.922 533.76 592.104 533.188 592.469C532.615 592.833 532.182 593.339 531.891 593.984C531.599 594.62 531.453 595.349 531.453 596.172H527.688C527.688 594.849 527.99 593.641 528.594 592.547C529.198 591.443 530.073 590.568 531.219 589.922C532.365 589.266 533.745 588.938 535.359 588.938C536.88 588.938 538.172 589.193 539.234 589.703C540.297 590.214 541.104 590.938 541.656 591.875C542.219 592.812 542.5 593.922 542.5 595.203C542.5 595.911 542.385 596.615 542.156 597.312C541.927 598.01 541.599 598.708 541.172 599.406C540.755 600.094 540.26 600.786 539.688 601.484C539.115 602.172 538.484 602.87 537.797 603.578L532.875 609H543.375ZM550.734 598.922H552.984C553.859 598.922 554.583 598.771 555.156 598.469C555.74 598.167 556.172 597.75 556.453 597.219C556.734 596.688 556.875 596.078 556.875 595.391C556.875 594.672 556.745 594.057 556.484 593.547C556.234 593.026 555.849 592.625 555.328 592.344C554.818 592.062 554.167 591.922 553.375 591.922C552.708 591.922 552.104 592.057 551.562 592.328C551.031 592.589 550.609 592.964 550.297 593.453C549.984 593.932 549.828 594.505 549.828 595.172H546.047C546.047 593.964 546.365 592.891 547 591.953C547.635 591.016 548.5 590.281 549.594 589.75C550.698 589.208 551.938 588.938 553.312 588.938C554.781 588.938 556.062 589.182 557.156 589.672C558.26 590.151 559.12 590.87 559.734 591.828C560.349 592.786 560.656 593.974 560.656 595.391C560.656 596.036 560.505 596.693 560.203 597.359C559.901 598.026 559.453 598.635 558.859 599.188C558.266 599.729 557.526 600.172 556.641 600.516C555.755 600.849 554.729 601.016 553.562 601.016H550.734V598.922ZM550.734 601.859V599.797H553.562C554.896 599.797 556.031 599.953 556.969 600.266C557.917 600.578 558.688 601.01 559.281 601.562C559.875 602.104 560.307 602.724 560.578 603.422C560.859 604.12 561 604.859 561 605.641C561 606.703 560.807 607.651 560.422 608.484C560.047 609.307 559.51 610.005 558.812 610.578C558.115 611.151 557.297 611.583 556.359 611.875C555.432 612.167 554.422 612.312 553.328 612.312C552.349 612.312 551.411 612.177 550.516 611.906C549.62 611.635 548.818 611.234 548.109 610.703C547.401 610.161 546.839 609.49 546.422 608.688C546.016 607.875 545.812 606.938 545.812 605.875H549.578C549.578 606.552 549.734 607.151 550.047 607.672C550.37 608.182 550.818 608.583 551.391 608.875C551.974 609.167 552.641 609.312 553.391 609.312C554.182 609.312 554.865 609.172 555.438 608.891C556.01 608.609 556.448 608.193 556.75 607.641C557.062 607.089 557.219 606.422 557.219 605.641C557.219 604.755 557.047 604.036 556.703 603.484C556.359 602.932 555.87 602.526 555.234 602.266C554.599 601.995 553.849 601.859 552.984 601.859H550.734ZM574.656 589.25H578.156L584.734 606.797L591.297 589.25H594.797L586.109 612H583.328L574.656 589.25ZM573.062 589.25H576.391L576.969 604.438V612H573.062V589.25ZM593.062 589.25H596.406V612H592.484V604.438L593.062 589.25ZM610.203 592.281L603.406 612H599.297L607.859 589.25H610.484L610.203 592.281ZM615.891 612L609.078 592.281L608.781 589.25H611.422L620.016 612H615.891ZM615.562 603.562V606.672H603.188V603.562H615.562ZM622.562 589.25H630.609C632.339 589.25 633.812 589.51 635.031 590.031C636.25 590.552 637.182 591.323 637.828 592.344C638.484 593.354 638.812 594.604 638.812 596.094C638.812 597.229 638.604 598.229 638.188 599.094C637.771 599.958 637.182 600.688 636.422 601.281C635.661 601.865 634.755 602.318 633.703 602.641L632.516 603.219H625.281L625.25 600.109H630.672C631.609 600.109 632.391 599.943 633.016 599.609C633.641 599.276 634.109 598.823 634.422 598.25C634.745 597.667 634.906 597.01 634.906 596.281C634.906 595.49 634.75 594.802 634.438 594.219C634.135 593.625 633.667 593.172 633.031 592.859C632.396 592.536 631.589 592.375 630.609 592.375H626.484V612H622.562V589.25ZM635.547 612L630.203 601.781L634.312 601.766L639.734 611.797V612H635.547ZM656.156 604.594H660.062C659.938 606.083 659.521 607.411 658.812 608.578C658.104 609.734 657.109 610.646 655.828 611.312C654.547 611.979 652.99 612.312 651.156 612.312C649.75 612.312 648.484 612.062 647.359 611.562C646.234 611.052 645.271 610.333 644.469 609.406C643.667 608.469 643.052 607.339 642.625 606.016C642.208 604.693 642 603.214 642 601.578V599.688C642 598.052 642.214 596.573 642.641 595.25C643.078 593.927 643.703 592.797 644.516 591.859C645.328 590.911 646.302 590.188 647.438 589.688C648.583 589.188 649.87 588.938 651.297 588.938C653.109 588.938 654.641 589.271 655.891 589.938C657.141 590.604 658.109 591.526 658.797 592.703C659.495 593.88 659.922 595.229 660.078 596.75H656.172C656.068 595.771 655.839 594.932 655.484 594.234C655.141 593.536 654.63 593.005 653.953 592.641C653.276 592.266 652.391 592.078 651.297 592.078C650.401 592.078 649.62 592.245 648.953 592.578C648.286 592.911 647.729 593.401 647.281 594.047C646.833 594.693 646.495 595.49 646.266 596.438C646.047 597.375 645.938 598.448 645.938 599.656V601.578C645.938 602.724 646.036 603.766 646.234 604.703C646.443 605.63 646.755 606.427 647.172 607.094C647.599 607.76 648.141 608.276 648.797 608.641C649.453 609.005 650.24 609.188 651.156 609.188C652.271 609.188 653.172 609.01 653.859 608.656C654.557 608.302 655.083 607.786 655.438 607.109C655.802 606.422 656.042 605.583 656.156 604.594ZM678.656 598.75V601.859H666.578V598.75H678.656ZM667.547 589.25V612H663.625V589.25H667.547ZM681.672 589.25V612H677.766V589.25H681.672ZM708.969 609V612H693.719V609.422L701.125 601.344C701.938 600.427 702.578 599.635 703.047 598.969C703.516 598.302 703.844 597.703 704.031 597.172C704.229 596.63 704.328 596.104 704.328 595.594C704.328 594.875 704.193 594.245 703.922 593.703C703.661 593.151 703.276 592.719 702.766 592.406C702.255 592.083 701.635 591.922 700.906 591.922C700.062 591.922 699.354 592.104 698.781 592.469C698.208 592.833 697.776 593.339 697.484 593.984C697.193 594.62 697.047 595.349 697.047 596.172H693.281C693.281 594.849 693.583 593.641 694.188 592.547C694.792 591.443 695.667 590.568 696.812 589.922C697.958 589.266 699.339 588.938 700.953 588.938C702.474 588.938 703.766 589.193 704.828 589.703C705.891 590.214 706.698 590.938 707.25 591.875C707.812 592.812 708.094 593.922 708.094 595.203C708.094 595.911 707.979 596.615 707.75 597.312C707.521 598.01 707.193 598.708 706.766 599.406C706.349 600.094 705.854 600.786 705.281 601.484C704.708 602.172 704.078 602.87 703.391 603.578L698.469 609H708.969ZM726.734 598.719V602.438C726.734 604.219 726.557 605.74 726.203 607C725.859 608.25 725.359 609.266 724.703 610.047C724.047 610.828 723.26 611.401 722.344 611.766C721.438 612.13 720.422 612.312 719.297 612.312C718.401 612.312 717.568 612.198 716.797 611.969C716.036 611.74 715.349 611.38 714.734 610.891C714.12 610.401 713.594 609.771 713.156 609C712.729 608.219 712.396 607.286 712.156 606.203C711.927 605.12 711.812 603.865 711.812 602.438V598.719C711.812 596.927 711.99 595.417 712.344 594.188C712.698 592.948 713.203 591.943 713.859 591.172C714.516 590.391 715.297 589.823 716.203 589.469C717.12 589.115 718.141 588.938 719.266 588.938C720.172 588.938 721.005 589.052 721.766 589.281C722.536 589.5 723.224 589.849 723.828 590.328C724.443 590.807 724.964 591.432 725.391 592.203C725.828 592.964 726.161 593.885 726.391 594.969C726.62 596.042 726.734 597.292 726.734 598.719ZM722.969 602.969V598.156C722.969 597.25 722.917 596.453 722.812 595.766C722.708 595.068 722.552 594.479 722.344 594C722.146 593.51 721.896 593.115 721.594 592.812C721.292 592.5 720.948 592.276 720.562 592.141C720.177 591.995 719.745 591.922 719.266 591.922C718.682 591.922 718.161 592.036 717.703 592.266C717.245 592.484 716.859 592.839 716.547 593.328C716.234 593.818 715.995 594.464 715.828 595.266C715.672 596.057 715.594 597.021 715.594 598.156V602.969C715.594 603.885 715.646 604.693 715.75 605.391C715.854 606.089 716.01 606.688 716.219 607.188C716.427 607.677 716.677 608.083 716.969 608.406C717.271 608.719 717.615 608.948 718 609.094C718.396 609.24 718.828 609.312 719.297 609.312C719.891 609.312 720.417 609.198 720.875 608.969C721.333 608.74 721.719 608.375 722.031 607.875C722.344 607.365 722.578 606.703 722.734 605.891C722.891 605.078 722.969 604.104 722.969 602.969ZM745.344 609V612H730.094V609.422L737.5 601.344C738.312 600.427 738.953 599.635 739.422 598.969C739.891 598.302 740.219 597.703 740.406 597.172C740.604 596.63 740.703 596.104 740.703 595.594C740.703 594.875 740.568 594.245 740.297 593.703C740.036 593.151 739.651 592.719 739.141 592.406C738.63 592.083 738.01 591.922 737.281 591.922C736.438 591.922 735.729 592.104 735.156 592.469C734.583 592.833 734.151 593.339 733.859 593.984C733.568 594.62 733.422 595.349 733.422 596.172H729.656C729.656 594.849 729.958 593.641 730.562 592.547C731.167 591.443 732.042 590.568 733.188 589.922C734.333 589.266 735.714 588.938 737.328 588.938C738.849 588.938 740.141 589.193 741.203 589.703C742.266 590.214 743.073 590.938 743.625 591.875C744.188 592.812 744.469 593.922 744.469 595.203C744.469 595.911 744.354 596.615 744.125 597.312C743.896 598.01 743.568 598.708 743.141 599.406C742.724 600.094 742.229 600.786 741.656 601.484C741.083 602.172 740.453 602.87 739.766 603.578L734.844 609H745.344ZM752.234 601.422L749.234 600.688L750.469 589.25H762.734V592.438H753.594L752.969 598.016C753.323 597.807 753.812 597.604 754.438 597.406C755.062 597.198 755.776 597.094 756.578 597.094C757.651 597.094 758.609 597.271 759.453 597.625C760.307 597.969 761.031 598.474 761.625 599.141C762.219 599.797 762.672 600.599 762.984 601.547C763.297 602.484 763.453 603.542 763.453 604.719C763.453 605.771 763.297 606.755 762.984 607.672C762.682 608.589 762.224 609.396 761.609 610.094C760.995 610.792 760.219 611.339 759.281 611.734C758.354 612.12 757.255 612.312 755.984 612.312C755.036 612.312 754.125 612.177 753.25 611.906C752.385 611.625 751.609 611.214 750.922 610.672C750.234 610.12 749.682 609.443 749.266 608.641C748.849 607.828 748.609 606.896 748.547 605.844H752.234C752.328 606.583 752.531 607.214 752.844 607.734C753.167 608.245 753.594 608.635 754.125 608.906C754.656 609.177 755.271 609.312 755.969 609.312C756.604 609.312 757.151 609.203 757.609 608.984C758.068 608.755 758.448 608.432 758.75 608.016C759.062 607.589 759.292 607.089 759.438 606.516C759.594 605.943 759.672 605.307 759.672 604.609C759.672 603.943 759.583 603.333 759.406 602.781C759.24 602.229 758.984 601.75 758.641 601.344C758.307 600.938 757.885 600.625 757.375 600.406C756.865 600.177 756.276 600.062 755.609 600.062C754.714 600.062 754.026 600.193 753.547 600.453C753.078 600.714 752.641 601.036 752.234 601.422Z" fill="#282826"/>
<path d="M60.298 601.648C57.5862 601.647 54.9008 602.181 52.3953 603.218C49.8899 604.256 47.6133 605.777 45.6958 607.695C43.7784 609.612 42.2575 611.889 41.2201 614.394C40.1827 616.9 39.6492 619.585 39.65 622.297C39.65 619.585 39.1159 616.9 38.0781 614.395C37.0403 611.89 35.5192 609.613 33.6016 607.696C31.6841 605.779 29.4076 604.258 26.9023 603.22C24.3969 602.183 21.7117 601.649 19 601.649C24.4762 601.648 29.728 599.473 33.6005 595.601C37.4729 591.729 39.6489 586.477 39.65 581.001C39.65 583.712 40.1841 586.397 41.2218 588.902C42.2594 591.408 43.7804 593.684 45.6977 595.601C47.6151 597.518 49.8913 599.039 52.3964 600.077C54.9016 601.114 57.5865 601.648 60.298 601.648Z" fill="#282826"/>
<path d="M452.249 616.248C450.332 614.33 448.056 612.809 445.55 611.771C443.045 610.732 440.36 610.198 437.648 610.198C434.936 610.198 432.251 610.733 429.746 611.771C427.241 612.809 424.965 614.331 423.048 616.249C424.965 614.331 426.486 612.055 427.524 609.55C428.561 607.044 429.095 604.359 429.095 601.647C429.095 598.936 428.561 596.251 427.523 593.745C426.485 591.24 424.964 588.964 423.046 587.047C426.919 590.919 432.171 593.094 437.647 593.094C443.123 593.094 448.375 590.92 452.248 587.048C450.331 588.965 448.81 591.242 447.772 593.747C446.735 596.252 446.201 598.937 446.201 601.648C446.201 604.36 446.735 607.045 447.773 609.55C448.811 612.055 450.332 614.331 452.249 616.248Z" fill="#282826"/>
<path d="M817.001 601.648C814.289 601.647 811.604 602.181 809.098 603.218C806.593 604.256 804.316 605.777 802.399 607.695C800.481 609.612 798.961 611.889 797.923 614.394C796.886 616.9 796.352 619.585 796.353 622.297C796.353 619.585 795.819 616.9 794.781 614.395C793.743 611.89 792.222 609.613 790.305 607.696C788.387 605.779 786.111 604.258 783.605 603.22C781.1 602.183 778.415 601.649 775.703 601.649C781.179 601.648 786.431 599.473 790.304 595.601C794.176 591.729 796.352 586.477 796.353 581.001C796.353 583.712 796.887 586.397 797.925 588.902C798.963 591.408 800.483 593.684 802.401 595.601C804.318 597.518 806.594 599.039 809.1 600.077C811.605 601.114 814.29 601.648 817.001 601.648Z" fill="#282826"/>
<path d="M92.2656 599.375V608.062C91.9427 608.49 91.4375 608.958 90.75 609.469C90.0729 609.969 89.1719 610.401 88.0469 610.766C86.9219 611.13 85.5208 611.312 83.8438 611.312C82.4167 611.312 81.1094 611.073 79.9219 610.594C78.7344 610.104 77.7083 609.391 76.8438 608.453C75.9896 607.516 75.3281 606.375 74.8594 605.031C74.3906 603.677 74.1562 602.135 74.1562 600.406V598.828C74.1562 597.109 74.3698 595.578 74.7969 594.234C75.2344 592.88 75.8594 591.734 76.6719 590.797C77.4844 589.859 78.4635 589.151 79.6094 588.672C80.7656 588.182 82.0729 587.938 83.5312 587.938C85.3958 587.938 86.9375 588.25 88.1562 588.875C89.3854 589.49 90.3333 590.344 91 591.438C91.6667 592.531 92.0885 593.781 92.2656 595.188H88.4219C88.2969 594.396 88.0521 593.688 87.6875 593.062C87.3333 592.438 86.8229 591.948 86.1562 591.594C85.5 591.229 84.6458 591.047 83.5938 591.047C82.6875 591.047 81.8906 591.219 81.2031 591.562C80.5156 591.906 79.9427 592.411 79.4844 593.078C79.0365 593.745 78.6979 594.557 78.4688 595.516C78.2396 596.474 78.125 597.568 78.125 598.797V600.406C78.125 601.656 78.2552 602.766 78.5156 603.734C78.7865 604.703 79.1719 605.521 79.6719 606.188C80.1823 606.854 80.8021 607.359 81.5312 607.703C82.2604 608.036 83.0833 608.203 84 608.203C84.8958 608.203 85.6302 608.13 86.2031 607.984C86.776 607.828 87.2292 607.646 87.5625 607.438C87.9062 607.219 88.1719 607.01 88.3594 606.812V602.297H83.625V599.375H92.2656ZM105.469 591.281L98.6719 611H94.5625L103.125 588.25H105.75L105.469 591.281ZM111.156 611L104.344 591.281L104.047 588.25H106.688L115.281 611H111.156ZM110.828 602.562V605.672H98.4531V602.562H110.828ZM135.875 588.25V611H131.953L121.75 594.703V611H117.828V588.25H121.75L131.984 604.578V588.25H135.875ZM147.156 611H142.297L142.328 607.891H147.156C148.562 607.891 149.74 607.583 150.688 606.969C151.646 606.354 152.365 605.474 152.844 604.328C153.333 603.182 153.578 601.818 153.578 600.234V599C153.578 597.771 153.438 596.682 153.156 595.734C152.885 594.786 152.479 593.99 151.938 593.344C151.406 592.698 150.75 592.208 149.969 591.875C149.198 591.542 148.307 591.375 147.297 591.375H142.203V588.25H147.297C148.807 588.25 150.188 588.505 151.438 589.016C152.688 589.516 153.766 590.24 154.672 591.188C155.589 592.135 156.292 593.271 156.781 594.594C157.271 595.917 157.516 597.396 157.516 599.031V600.234C157.516 601.87 157.271 603.349 156.781 604.672C156.292 605.995 155.589 607.13 154.672 608.078C153.755 609.016 152.661 609.74 151.391 610.25C150.13 610.75 148.719 611 147.156 611ZM144.469 588.25V611H140.547V588.25H144.469ZM176.484 597.75V600.859H164.406V597.75H176.484ZM165.375 588.25V611H161.453V588.25H165.375ZM179.5 588.25V611H175.594V588.25H179.5ZM188.359 588.25V611H184.438V588.25H188.359ZM211.281 588.25V611H207.359L197.156 594.703V611H193.234V588.25H197.156L207.391 604.578V588.25H211.281ZM225.094 591.281L218.297 611H214.188L222.75 588.25H225.375L225.094 591.281ZM230.781 611L223.969 591.281L223.672 588.25H226.312L234.906 611H230.781ZM230.453 602.562V605.672H218.078V602.562H230.453ZM254.672 599.375V608.062C254.349 608.49 253.844 608.958 253.156 609.469C252.479 609.969 251.578 610.401 250.453 610.766C249.328 611.13 247.927 611.312 246.25 611.312C244.823 611.312 243.516 611.073 242.328 610.594C241.141 610.104 240.115 609.391 239.25 608.453C238.396 607.516 237.734 606.375 237.266 605.031C236.797 603.677 236.562 602.135 236.562 600.406V598.828C236.562 597.109 236.776 595.578 237.203 594.234C237.641 592.88 238.266 591.734 239.078 590.797C239.891 589.859 240.87 589.151 242.016 588.672C243.172 588.182 244.479 587.938 245.938 587.938C247.802 587.938 249.344 588.25 250.562 588.875C251.792 589.49 252.74 590.344 253.406 591.438C254.073 592.531 254.495 593.781 254.672 595.188H250.828C250.703 594.396 250.458 593.688 250.094 593.062C249.74 592.438 249.229 591.948 248.562 591.594C247.906 591.229 247.052 591.047 246 591.047C245.094 591.047 244.297 591.219 243.609 591.562C242.922 591.906 242.349 592.411 241.891 593.078C241.443 593.745 241.104 594.557 240.875 595.516C240.646 596.474 240.531 597.568 240.531 598.797V600.406C240.531 601.656 240.661 602.766 240.922 603.734C241.193 604.703 241.578 605.521 242.078 606.188C242.589 606.854 243.208 607.359 243.938 607.703C244.667 608.036 245.49 608.203 246.406 608.203C247.302 608.203 248.036 608.13 248.609 607.984C249.182 607.828 249.635 607.646 249.969 607.438C250.312 607.219 250.578 607.01 250.766 606.812V602.297H246.031V599.375H254.672ZM267.875 591.281L261.078 611H256.969L265.531 588.25H268.156L267.875 591.281ZM273.562 611L266.75 591.281L266.453 588.25H269.094L277.688 611H273.562ZM273.234 602.562V605.672H260.859V602.562H273.234ZM280.234 588.25H288.281C290.01 588.25 291.484 588.51 292.703 589.031C293.922 589.552 294.854 590.323 295.5 591.344C296.156 592.354 296.484 593.604 296.484 595.094C296.484 596.229 296.276 597.229 295.859 598.094C295.443 598.958 294.854 599.688 294.094 600.281C293.333 600.865 292.427 601.318 291.375 601.641L290.188 602.219H282.953L282.922 599.109H288.344C289.281 599.109 290.062 598.943 290.688 598.609C291.312 598.276 291.781 597.823 292.094 597.25C292.417 596.667 292.578 596.01 292.578 595.281C292.578 594.49 292.422 593.802 292.109 593.219C291.807 592.625 291.339 592.172 290.703 591.859C290.068 591.536 289.26 591.375 288.281 591.375H284.156V611H280.234V588.25ZM293.219 611L287.875 600.781L291.984 600.766L297.406 610.797V611H293.219ZM303.547 607.375L303.531 610.062C303.531 611.125 303.266 612.219 302.734 613.344C302.203 614.469 301.5 615.396 300.625 616.125L298.609 614.953C298.901 614.484 299.167 614.01 299.406 613.531C299.646 613.052 299.839 612.542 299.984 612C300.13 611.458 300.203 610.859 300.203 610.203V607.375H303.547ZM319.703 588.25V611H315.781V588.25H319.703ZM342.625 588.25V611H338.703L328.5 594.703V611H324.578V588.25H328.5L338.734 604.578V588.25H342.625ZM353.906 611H349.047L349.078 607.891H353.906C355.312 607.891 356.49 607.583 357.438 606.969C358.396 606.354 359.115 605.474 359.594 604.328C360.083 603.182 360.328 601.818 360.328 600.234V599C360.328 597.771 360.188 596.682 359.906 595.734C359.635 594.786 359.229 593.99 358.688 593.344C358.156 592.698 357.5 592.208 356.719 591.875C355.948 591.542 355.057 591.375 354.047 591.375H348.953V588.25H354.047C355.557 588.25 356.938 588.505 358.188 589.016C359.438 589.516 360.516 590.24 361.422 591.188C362.339 592.135 363.042 593.271 363.531 594.594C364.021 595.917 364.266 597.396 364.266 599.031V600.234C364.266 601.87 364.021 603.349 363.531 604.672C363.042 605.995 362.339 607.13 361.422 608.078C360.505 609.016 359.411 609.74 358.141 610.25C356.88 610.75 355.469 611 353.906 611ZM351.219 588.25V611H347.297V588.25H351.219ZM372.391 588.25V611H368.469V588.25H372.391ZM386.406 591.281L379.609 611H375.5L384.062 588.25H386.688L386.406 591.281ZM392.094 611L385.281 591.281L384.984 588.25H387.625L396.219 611H392.094ZM391.766 602.562V605.672H379.391V602.562H391.766Z" fill="#282826"/>
</svg>
