<svg width="367" height="411" viewBox="0 0 367 411" fill="none" xmlns="http://www.w3.org/2000/svg">
    <g filter="url(#filter0_d_1958_3180)">
        <mask id="path-1-inside-1_1958_3180" fill="white">
            <path fill-rule="evenodd" clip-rule="evenodd"
                d="M2.63255e-06 373.887C1.17863e-06 390.518 13.482 404 30.1129 404L329.887 404C346.518 404 360 390.518 360 373.887L360 101.251C360 101.096 359.874 100.97 359.719 100.97C359.574 100.97 359.453 100.859 359.439 100.715C353.78 44.1584 306.047 2.58008e-05 248 2.07262e-05L112 8.83672e-06C53.9532 3.76212e-06 6.22022 44.1584 0.561458 100.715C0.547054 100.859 0.425899 100.97 0.281215 100.97C0.125912 100.97 2.64807e-05 101.096 2.64672e-05 101.251L2.55378e-05 111.882C2.55343e-05 111.921 -3.55043e-05 111.961 -3.55077e-05 112C-3.55111e-05 112.039 2.55206e-05 112.079 2.55171e-05 112.118L2.63255e-06 373.887Z" />
        </mask>
        <path fill-rule="evenodd" clip-rule="evenodd"
            d="M2.63255e-06 373.887C1.17863e-06 390.518 13.482 404 30.1129 404L329.887 404C346.518 404 360 390.518 360 373.887L360 101.251C360 101.096 359.874 100.97 359.719 100.97C359.574 100.97 359.453 100.859 359.439 100.715C353.78 44.1584 306.047 2.58008e-05 248 2.07262e-05L112 8.83672e-06C53.9532 3.76212e-06 6.22022 44.1584 0.561458 100.715C0.547054 100.859 0.425899 100.97 0.281215 100.97C0.125912 100.97 2.64807e-05 101.096 2.64672e-05 101.251L2.55378e-05 111.882C2.55343e-05 111.921 -3.55043e-05 111.961 -3.55077e-05 112C-3.55111e-05 112.039 2.55206e-05 112.079 2.55171e-05 112.118L2.63255e-06 373.887Z"
            fill="#F9F5F2" />
        <path
            d="M2.55378e-05 111.882L2.00003 111.882L2.55378e-05 111.882ZM2.64672e-05 101.251L2.00003 101.251L2.64672e-05 101.251ZM359.439 100.715L361.429 100.516L359.439 100.715ZM0.561458 100.715L2.55151 100.914L0.561458 100.715ZM329.887 402L30.1129 402L30.1129 406L329.887 406L329.887 402ZM358 101.251L358 373.887L362 373.887L362 101.251L358 101.251ZM248 2.00002C305.009 2.00003 351.891 45.3696 357.448 100.914L361.429 100.516C355.669 42.9472 307.085 -1.99997 248 -1.99998L248 2.00002ZM112 2.00001L248 2.00002L248 -1.99998L112 -1.99999L112 2.00001ZM2.55151 100.914C8.10901 45.3696 54.991 2 112 2.00001L112 -1.99999C52.9155 -2 4.33142 42.9472 -1.42859 100.516L2.55151 100.914ZM2.00003 111.882L2.00003 101.251L-1.99997 101.251L-1.99997 111.882L2.00003 111.882ZM1.99996 112C1.99996 111.981 1.99996 111.962 2 111.942C2 111.923 2.00003 111.902 2.00003 111.882L-1.99997 111.882C-1.99997 111.901 -1.99997 111.919 -2 111.939C-2 111.959 -2.00004 111.979 -2.00004 112L1.99996 112ZM2.00003 112.118C2.00003 112.098 2 112.077 2 112.058C1.99996 112.038 1.99996 112.019 1.99996 112L-2.00004 112C-2.00004 112.021 -2 112.041 -2 112.061C-1.99997 112.08 -1.99997 112.099 -1.99997 112.118L2.00003 112.118ZM2 373.887L2.00003 112.118L-1.99997 112.118L-2 373.887L2 373.887ZM0.281216 98.9696C-0.978672 98.9696 -1.99997 99.991 -1.99997 101.251L2.00003 101.251C2.00003 102.2 1.2305 102.97 0.281215 102.97L0.281216 98.9696ZM359.719 98.9697C360.614 98.9697 361.342 99.6498 361.429 100.516L357.448 100.914C357.564 102.068 358.534 102.97 359.719 102.97L359.719 98.9697ZM362 101.251C362 99.991 360.979 98.9697 359.719 98.9697L359.719 102.97C358.77 102.97 358 102.2 358 101.251L362 101.251ZM-1.42859 100.516C-1.34195 99.6497 -0.613987 98.9696 0.281216 98.9696L0.281215 102.97C1.46582 102.97 2.43606 102.068 2.55151 100.914L-1.42859 100.516ZM30.1129 402C14.5866 402 2 389.413 2 373.887L-2 373.887C-2 391.623 12.3774 406 30.1129 406L30.1129 402ZM329.887 406C347.623 406 362 391.623 362 373.887L358 373.887C358 389.413 345.413 402 329.887 402L329.887 406Z"
            fill="black" mask="url(#path-1-inside-1_1958_3180)" />
    </g>
    <defs>
        <filter id="filter0_d_1958_3180" x="0" y="0" width="366.023" height="410.023"
            filterUnits="userSpaceOnUse" color-interpolation-filters="sRGB">
            <feFlood flood-opacity="0" result="BackgroundImageFix" />
            <feColorMatrix in="SourceAlpha" type="matrix"
                values="0 0 0 0 0 0 0 0 0 0 0 0 0 0 0 0 0 0 127 0" result="hardAlpha" />
            <feOffset dx="6.02258" dy="6.02258" />
            <feComposite in2="hardAlpha" operator="out" />
            <feColorMatrix type="matrix"
                values="0 0 0 0 0.156863 0 0 0 0 0.156863 0 0 0 0 0.14902 0 0 0 1 0" />
            <feBlend mode="normal" in2="BackgroundImageFix" result="effect1_dropShadow_1958_3180" />
            <feBlend mode="normal" in="SourceGraphic" in2="effect1_dropShadow_1958_3180"
                result="shape" />
        </filter>
    </defs>
</svg>