<svg width="191" height="191" viewBox="0 0 191 191" fill="none" xmlns="http://www.w3.org/2000/svg">
    <path
        d="M182.364 162.023C182.985 158.969 183.323 155.576 183.323 151.845C183.323 119.395 158.802 70.7609 127.174 49.1886C127.77 49.3175 128.383 49.4142 128.979 49.5593C129.269 49.6318 129.559 49.656 129.849 49.656C131.59 49.656 133.161 48.4634 133.572 46.6986C134.047 44.6437 132.766 42.5887 130.711 42.1132C129.511 41.8312 128.286 41.6297 127.077 41.3799L140.43 25.3599C141.203 24.4331 141.485 23.2001 141.211 22.0236C140.929 20.8471 140.107 19.88 139.003 19.4047L113.708 8.56618L114.506 4.56921C114.732 3.44909 114.434 2.28057 113.717 1.40217C112.991 0.515738 111.903 0 110.767 0H80.2038C79.0595 0 77.9798 0.515738 77.2545 1.40217C76.5293 2.2886 76.2392 3.44901 76.4648 4.56921L77.2626 8.56618L51.9677 19.4047C50.8557 19.8802 50.0418 20.8472 49.7598 22.0236C49.4777 23.2002 49.7678 24.4332 50.5414 25.3599L63.9259 41.4203C62.7253 41.654 61.5245 41.8394 60.324 42.0973C58.2611 42.5405 56.9396 44.5631 57.3747 46.6341C57.8179 48.6971 59.8726 50.0025 61.9113 49.5755C62.5157 49.4465 63.1201 49.3579 63.7244 49.237C32.1295 70.8258 7.63913 119.425 7.63913 151.852C7.63913 155.583 7.96952 158.976 8.59804 162.022C7.08311 162.764 5.68898 163.722 4.48034 164.923C1.58758 167.808 0 171.652 0 175.721C0 184.15 6.84934 191 15.278 191H175.722C179.791 191 183.635 189.413 186.52 186.519C189.412 183.635 191 179.791 191 175.721C191 169.758 187.535 164.528 182.402 162.022L182.364 162.023ZM59.6565 24.4014L78.7702 16.214L80.261 23.66C80.6719 25.7229 82.6624 27.0686 84.7574 26.6577C86.8203 26.2467 88.1659 24.232 87.755 22.161L84.8459 7.63168H106.087L103.178 22.161C102.767 24.232 104.105 26.2387 106.176 26.6577C106.426 26.706 106.683 26.7302 106.925 26.7302C108.706 26.7302 110.309 25.4731 110.664 23.6599L112.155 16.2139L131.269 24.4013L118.4 39.8413C110.898 38.7373 103.299 38.1329 95.636 38.1974H95.6199H95.4749H95.4587H95.4507C87.9889 38.2296 80.3418 38.8581 72.623 39.9622L59.6574 24.4094L59.6565 24.4014ZM108.464 57.4643C108.496 57.6819 108.536 57.9076 108.037 58.4072C106.369 60.0753 105.547 59.7287 105.241 59.5998C103.395 58.8343 101.018 54.9662 99.9063 49.003C104.403 51.9927 108.126 55.3529 108.464 57.4643ZM91.0183 49.0029C89.9143 54.9661 87.5372 58.8342 85.6839 59.5997C85.3697 59.7367 84.5477 60.0752 82.8877 58.4071C82.3881 57.9075 82.4284 57.6818 82.4606 57.4642C82.8071 55.353 86.5301 51.9928 91.0183 49.0029ZM181.083 181.112C179.633 182.563 177.715 183.353 175.684 183.353L15.2322 183.361C11.0178 183.361 7.59319 179.936 7.59319 175.721C7.59319 173.691 8.39095 171.773 9.83326 170.322C10.9131 169.242 12.299 168.501 13.8462 168.195C13.9187 168.179 13.967 168.13 14.0396 168.114C14.1121 168.098 14.1846 168.114 14.2571 168.09C14.4425 168.026 14.5794 167.905 14.7487 167.816C14.9743 167.703 15.1999 167.607 15.4014 167.453C15.6028 167.3 15.7559 167.115 15.9171 166.93C16.0782 166.744 16.2314 166.575 16.3603 166.374C16.4892 166.156 16.5617 165.93 16.6423 165.697C16.7229 165.471 16.8035 165.253 16.8438 165.012C16.8841 164.754 16.8599 164.504 16.8438 164.238C16.8357 164.053 16.8841 163.884 16.8438 163.698C16.8277 163.626 16.7793 163.577 16.7632 163.505C16.7471 163.432 16.7632 163.36 16.739 163.287C15.7398 160.161 15.2322 156.309 15.2322 151.844C15.2322 118.393 44.4919 64.2162 78.4715 49.6002C76.6503 51.6792 75.2884 53.9276 74.9097 56.2404C74.4504 59.0609 75.3368 61.6798 77.4722 63.8154C79.801 66.1523 82.4844 67.3612 85.1436 67.3612C86.312 67.3612 87.4643 67.1275 88.5925 66.6601C91.3322 65.5239 93.6529 62.9936 95.4499 59.5848C97.2468 62.9934 99.5676 65.5238 102.307 66.6601C103.435 67.1275 104.596 67.3612 105.756 67.3612C108.415 67.3612 111.099 66.1524 113.428 63.8154C115.563 61.6798 116.449 59.0609 115.99 56.2404C115.619 53.9276 114.25 51.6794 112.428 49.6002C146.402 64.218 175.668 118.396 175.668 151.844C175.668 156.309 175.16 160.169 174.161 163.287C174.137 163.36 174.153 163.44 174.137 163.521C174.12 163.601 174.064 163.666 174.048 163.747C174.016 163.924 174.064 164.101 174.056 164.27C174.048 164.528 174.032 164.778 174.064 165.028C174.104 165.27 174.185 165.495 174.266 165.721C174.346 165.955 174.427 166.172 174.556 166.382C174.685 166.591 174.838 166.76 174.999 166.946C175.16 167.131 175.313 167.308 175.515 167.453C175.716 167.607 175.942 167.711 176.175 167.824C176.336 167.897 176.457 168.026 176.635 168.082C176.723 168.114 176.82 168.106 176.917 168.122C176.981 168.138 177.029 168.187 177.094 168.195C180.688 168.864 183.299 172.023 183.299 175.713C183.299 177.744 182.501 179.662 181.059 181.112L181.083 181.112ZM95.4658 76.3845C68.0854 76.3845 45.8043 98.6665 45.8043 126.048C45.8043 153.43 68.0854 175.712 95.4658 175.712C122.846 175.712 145.127 153.43 145.127 126.048C145.127 98.6665 122.846 76.3845 95.4658 76.3845ZM95.4658 168.072C72.2998 168.072 53.4431 149.216 53.4431 126.048C53.4431 102.88 72.299 84.0236 95.4658 84.0236C118.632 84.0236 137.489 102.88 137.489 126.048C137.489 149.216 118.633 168.072 95.4658 168.072ZM87.8268 114.588C87.8268 118.803 91.2516 122.228 95.4658 122.228C103.895 122.228 110.744 129.077 110.744 137.506C110.744 144.606 105.861 150.537 99.2852 152.245V156.605C99.2852 158.716 97.5769 160.424 95.4656 160.424C93.3545 160.424 91.646 158.716 91.646 156.605V152.245C85.0706 150.537 80.1874 144.606 80.1874 137.506C80.1874 135.395 81.8957 133.687 84.007 133.687C86.1181 133.687 87.8266 135.395 87.8266 137.506C87.8266 141.721 91.2514 145.146 95.4656 145.146C99.6801 145.146 103.105 141.721 103.105 137.506C103.105 133.292 99.6799 129.867 95.4656 129.867C87.0369 129.867 80.1876 123.017 80.1876 114.588C80.1876 107.489 85.0708 101.558 91.6462 99.8496V95.4899C91.6462 93.3787 93.3545 91.6702 95.4658 91.6702C97.577 91.6702 99.2854 93.3785 99.2854 95.4899V99.8496C105.861 101.558 110.744 107.489 110.744 114.588C110.744 116.7 109.036 118.408 106.924 118.408C104.813 118.408 103.105 116.7 103.105 114.588C103.105 110.374 99.6801 106.949 95.4658 106.949C91.2514 106.949 87.8268 110.374 87.8268 114.588Z"
        fill="black" />
</svg>