<svg width="130" height="130" viewBox="0 0 130 130" fill="none" xmlns="http://www.w3.org/2000/svg">
    <path
        d="M0.000976562 0V38.0867C12.0739 38.0715 24.0309 40.4412 35.1855 45.0597C46.3401 49.6783 56.4725 56.4548 65.001 65C56.4557 56.4715 49.6793 46.3391 45.0607 35.1845C40.4422 24.03 38.0725 12.0729 38.0877 0H0.000976562Z"
        fill="#FE8F41" />
    <path
        d="M0.000976562 130H38.0877C38.0725 117.927 40.4422 105.97 45.0607 94.8155C49.6793 83.6609 56.4557 73.5285 65.001 65C56.4725 73.5452 46.3401 80.3217 35.1855 84.9403C24.0309 89.5588 12.0739 91.9285 0.000976562 91.9133V130Z"
        fill="#FE8F41" />
    <path
        d="M130.001 130V91.9133C117.928 91.9285 105.971 89.5588 94.8164 84.9403C83.6619 80.3217 73.5294 73.5452 65.001 65C73.5462 73.5285 80.3227 83.6609 84.9412 94.8155C89.5598 105.97 91.9295 117.927 91.9142 130H130.001Z"
        fill="#FE8F41" />
    <path
        d="M130.001 0H91.9142C91.9295 12.0729 89.5598 24.03 84.9412 35.1845C80.3227 46.3391 73.5462 56.4715 65.001 65C73.5294 56.4548 83.6619 49.6783 94.8164 45.0597C105.971 40.4412 117.928 38.0715 130.001 38.0867V0Z"
        fill="#FE8F41" />
</svg>