<svg width="130" height="130" viewBox="0 0 130 130" fill="none" xmlns="http://www.w3.org/2000/svg">
    <g clip-path="url(#clip0_36_551)">
        <mask id="mask0_36_551" style="mask-type:luminance" maskUnits="userSpaceOnUse" x="0" y="-12"
            width="130" height="154">
            <path
                d="M119.431 -12H10.5691C4.73195 -12 0 -7.52285 0 -2V132C0 137.523 4.73195 142 10.5691 142H119.431C125.268 142 130 137.523 130 132V-2C130 -7.52285 125.268 -12 119.431 -12Z"
                fill="white" />
        </mask>
        <g mask="url(#mask0_36_551)">
            <path
                d="M79.4892 46.7616C74.73 46.7616 61.3592 48.2866 47.4895 50.8285C59.3645 43.415 70.1947 35.4933 73.5964 32.3163C77.3747 28.7418 79.4863 23.9152 79.47 18.8906C79.4537 13.8659 77.3107 9.0514 73.5092 5.49841C69.7077 1.94543 64.5564 -0.0573769 59.1803 -0.0726414C53.8041 -0.0879059 48.6399 1.88561 44.8153 5.41694C41.3257 8.67915 32.6229 19.0994 24.5516 30.4947C27.4976 17.0237 29.2651 3.67973 29.2651 -0.979698C29.2651 -6.0242 27.121 -10.8621 23.3045 -14.4291C19.488 -17.9961 14.3117 -20 8.9143 -20C3.51692 -20 -1.65939 -17.9961 -5.47591 -14.4291C-9.29243 -10.8621 -11.4365 -6.0242 -11.4365 -0.979698C-11.4365 3.50784 -9.75928 16.219 -6.99479 29.2663C-14.927 18.1676 -23.4027 8.04557 -26.802 4.86627C-30.6358 1.37801 -35.7852 -0.558855 -41.1356 -0.525116C-46.486 -0.491377 -51.607 1.51026 -55.3901 5.04654C-59.1733 8.58283 -61.3142 13.3693 -61.3495 18.3699C-61.3849 23.3705 -59.3118 28.1829 -55.579 31.7656C-52.0438 35.0697 -40.5765 43.415 -28.1537 51.0848C-42.5215 48.3741 -56.7533 46.7213 -61.6492 46.7213C-67.0465 46.7213 -72.2229 48.7252 -76.0394 52.2922C-79.8559 55.8592 -82 60.6971 -82 65.7416C-82 70.7861 -79.8559 75.624 -76.0394 79.191C-72.2229 82.758 -67.0465 84.7619 -61.6492 84.7619C-56.89 84.7619 -43.4289 83.2369 -29.5592 80.6547C-41.1624 87.9412 -51.632 95.608 -54.941 98.7006C-58.7193 102.275 -60.8309 107.102 -60.8146 112.126C-60.7982 117.151 -58.6553 121.966 -54.8538 125.519C-51.0523 129.071 -45.901 131.074 -40.5248 131.09C-35.1487 131.105 -29.9845 129.131 -26.1599 125.6C-22.8965 122.55 -14.9644 113.103 -7.30485 102.513C-9.84311 114.925 -11.3845 126.7 -11.3845 130.98C-11.3845 133.477 -10.8581 135.951 -9.83534 138.258C-8.81261 140.566 -7.31358 142.663 -5.42384 144.429C-3.53408 146.195 -1.29063 147.596 1.17845 148.552C3.64753 149.508 6.29387 150 8.96638 150C11.6389 150 14.2852 149.508 16.7543 148.552C19.2234 147.596 21.4669 146.195 23.3566 144.429C25.2464 142.663 26.7454 140.566 27.7681 138.258C28.7908 135.951 29.3172 133.477 29.3172 130.98C29.3172 126.574 27.6855 114.205 25.0114 101.369C32.8076 112.213 41.0108 121.999 44.3197 125.091C48.1443 128.622 53.3085 130.596 58.6846 130.581C64.0608 130.565 69.2121 128.563 73.0136 125.01C76.8151 121.457 78.958 116.642 78.9744 111.618C78.9907 106.593 76.8791 101.766 73.1008 98.1918C69.883 95.1844 60.0473 87.983 48.943 80.9079C62.2682 83.3228 74.9595 84.7208 79.5372 84.7208C82.2188 84.7403 84.878 84.2631 87.3612 83.3167C89.8444 82.3704 92.1025 80.9738 94.005 79.2074C95.9075 77.441 97.4168 75.3399 98.4458 73.0254C99.4748 70.7109 100.003 68.2288 100 65.7224C99.997 63.216 99.4628 60.735 98.4283 58.4227C97.3938 56.1103 95.8794 54.0124 93.9726 52.25C92.0659 50.4876 89.8045 49.0957 87.319 48.1546C84.8335 47.2135 82.1732 46.7418 79.4916 46.7669L79.4892 46.7616Z"
                fill="#FE8F41" />
        </g>
    </g>
    <defs>
        <clipPath id="clip0_36_551">
            <rect width="130" height="130" fill="white" />
        </clipPath>
    </defs>
</svg>