<svg width="113" height="112" viewBox="0 0 113 112" fill="none" xmlns="http://www.w3.org/2000/svg">
    <rect x="2" y="2" width="108.2" height="108" rx="8" fill="#C693FF" />
    <rect x="2" y="2" width="108.2" height="108" rx="8" stroke="#282826" stroke-width="4" />
    <path
        d="M21 29.6579C24.4595 29.6572 27.8853 30.3381 31.0816 31.6617C34.2779 32.9853 37.1822 34.9256 39.6284 37.3718C42.0747 39.8181 44.015 42.7223 45.3386 45.9185C46.6622 49.1148 47.3431 52.5405 47.3425 56H21L21 64.6569C24.4596 64.6562 27.8855 65.3372 31.0818 66.6608C34.2782 67.9845 37.1825 69.9249 39.6288 72.3712C42.0751 74.8175 44.0154 77.7218 45.3389 80.9182C46.6625 84.1146 47.3433 87.5404 47.3425 91H55.9995V64.6579C59.4591 64.6571 62.885 65.3379 66.0814 66.6614C69.2779 67.985 72.1822 69.9253 74.6286 72.3715C77.0749 74.8177 79.0154 77.722 80.339 80.9183C81.6627 84.1146 82.3436 87.5404 82.343 91H91V21H21V29.6579ZM56.0005 29.6579C59.46 29.6572 62.8858 30.3381 66.0821 31.6617C69.2784 32.9853 72.1827 34.9256 74.6289 37.3718C77.0752 39.8181 79.0155 42.7223 80.3391 45.9185C81.6627 49.1148 82.3436 52.5405 82.343 56L56.0005 56L56.0005 29.6579Z"
        fill="white" />
</svg>