<svg width="130" height="130" viewBox="0 0 130 130" fill="none" xmlns="http://www.w3.org/2000/svg">
    <g clip-path="url(#clip0_36_393)">
        <mask id="mask0_36_393" style="mask-type:luminance" maskUnits="userSpaceOnUse" x="-5"
            y="-12" width="136" height="153">
            <path
                d="M121.073 -11.5H4.92701C-0.555528 -11.5 -5 -7.54573 -5 -2.66788V131.58C-5 136.458 -0.555528 140.412 4.92701 140.412H121.073C126.556 140.412 131 136.458 131 131.58V-2.66788C131 -7.54573 126.556 -11.5 121.073 -11.5Z"
                fill="white" />
        </mask>
        <g mask="url(#mask0_36_393)">
            <path
                d="M104.538 -83.4104L76.2369 -99.7498L13.3966 36.1192C12.6431 35.7629 11.8689 35.4521 11.0782 35.1886L62.7213 -105.309L31.1755 -113.732L5.66172 33.7951C4.84501 33.6355 4.0182 33.533 3.18726 33.4883L16.6142 -115.714L-16.0318 -115.695L-2.46507 33.3865C-3.34195 33.4921 -4.09817 33.5654 -4.97505 33.6711L-30.4679 -113.831L-62.0779 -105.361L-10.4484 35.2023C-11.244 35.4814 -12.0181 35.8185 -12.7644 36.2108L-75.6324 -99.7249L-103.914 -83.4183L-17.6732 38.8839C-18.3766 39.3956 -19.0358 39.8309 -19.6627 40.3868L-115.522 -74.6184L-138.63 -51.5514L-23.6568 44.3019C-24.205 44.9294 -24.7199 45.5854 -25.1993 46.2669L-147.567 -39.7817L-163.906 -11.481L-28.0374 51.3593C-28.3937 52.1128 -28.7044 52.8869 -28.9679 53.6776L-169.466 2.03458L-177.888 33.5804L-30.3614 59.0941C-30.521 59.9108 -30.6235 60.7377 -30.6682 61.5686L-179.87 48.1417L-179.851 80.7877L-30.7701 67.2209C-30.6644 68.0978 -30.5911 68.854 -30.4855 69.7309L-177.955 95.3444L-169.485 126.954L-28.9984 75.2807C-28.7193 76.0764 -28.3822 76.8504 -27.9899 77.5967L-163.881 140.388L-147.575 168.67L-25.2727 82.4291C-24.7609 83.1325 -24.3256 83.7917 -23.7697 84.4186L-138.654 180.245L-115.587 203.354L-19.734 88.3804C-19.1065 88.9285 -18.4505 89.4434 -17.769 89.9228L-103.938 212.323L-75.6376 228.662L-12.7972 92.7932C-12.0438 93.1495 -11.2696 93.4603 -10.4789 93.7238L-62.122 234.222L-30.5762 242.644L-5.0624 95.1173C-4.2457 95.2769 -3.41888 95.3794 -2.58794 95.4241L-16.0149 244.626L16.6311 244.607L3.0644 95.5259C3.94126 95.4203 4.69749 95.347 5.57436 95.2413L31.1878 242.711L62.7978 234.241L11.1242 93.7543C11.9198 93.4752 12.6939 93.1381 13.4402 92.7457L76.2317 228.637L104.513 212.331L18.2725 90.0285C18.9759 89.5168 19.6351 89.0815 20.262 88.5256L116.121 203.531L139.229 180.464L24.2561 84.6105C24.8043 83.983 25.3192 83.327 25.7986 82.6455L148.166 168.694L164.506 140.393L28.6367 77.5531C28.993 76.7996 29.3037 76.0255 29.5673 75.2348L170.065 126.878L178.488 95.332L30.9608 69.8183C31.1203 69.0016 31.2228 68.1747 31.2675 67.3438L180.47 80.7707L180.451 48.1247L31.3694 61.6915C31.2637 60.8146 31.1904 60.0584 31.0848 59.1815L178.587 33.6887L170.117 2.07867L29.5536 53.7081C29.2745 52.9125 28.9374 52.1384 28.5451 51.3921L164.481 -11.4759L148.174 -39.7576L25.872 46.4834C25.3602 45.78 24.925 45.1207 24.369 44.4938L139.374 -51.3653L116.307 -74.4735L20.454 40.4997C19.8264 39.9515 19.1705 39.4367 18.4889 38.9573L104.538 -83.4104Z"
                fill="#FE8F41" />
        </g>
    </g>
    <defs>
        <clipPath id="clip0_36_393">
            <path d="M0 0H118C124.627 0 130 5.37258 130 12V118C130 124.627 124.627 130 118 130H0V0Z"
                fill="white" />
        </clipPath>
    </defs>
</svg>