<svg fill="none" height="37" viewBox="0 0 200 37" width="200" xmlns="http://www.w3.org/2000/svg"><g fill="#19191d"><path d="m58.4187 29.3898c3.2711 0 4.9247-1.6783 5.6436-2.8209h.3235c.1438 1.214 1.0065 2.3567 2.696 2.3567h3.1992v-3.5708h-.8268c-.5751 0-.8627-.3213-.8627-.8212v-14.3187h-4.2416v2.2853h-.3236c-.8267-1.1427-2.5522-2.7495-5.7154-2.7495-5.0325 0-8.771 4.1421-8.771 9.8195 0 5.6775 3.8104 9.8196 8.8788 9.8196zm.7549-4.0707c-2.9836 0-5.3201-2.1781-5.3201-5.7132 0-3.4636 2.2646-5.8203 5.2841-5.8203 2.8757 0 5.2841 2.1068 5.2841 5.8203 0 3.178-2.0489 5.7132-5.2481 5.7132z"/><path d="m72.7853 36.1809h4.2417v-9.612h.3235c.7908 1.1426 2.4803 2.8209 5.8233 2.8209 5.0325 0 8.6991-4.2135 8.6991-9.8196 0-5.6417-3.9182-9.8195-8.9866-9.8195-3.2352 0-4.8169 1.7497-5.5717 2.7138h-.3236v-2.2496h-4.2057zm9.4899-10.7547c-2.9117 0-5.3201-2.1424-5.3201-5.856 0-3.1779 2.0489-5.856 5.2482-5.856 2.9835 0 5.32 2.321 5.32 5.856 0 3.4637-2.2646 5.856-5.2481 5.856z"/><path d="m94.0616 36.1809h4.2417v-9.612h.3235c.7908 1.1426 2.4802 2.8209 5.8232 2.8209 5.033 0 8.35-4.2135 8.35-9.8196 0-5.6417-3.569-9.8195-8.637-9.8195-3.236 0-4.8173 1.7497-5.5722 2.7138h-.3235v-2.2496h-4.2057zm9.4894-10.7547c-2.911 0-5.3196-2.1424-5.3196-5.856 0-3.1779 2.0486-5.856 5.2486-5.856 2.983 0 5.32 2.321 5.32 5.856 0 3.4637-2.265 5.856-5.249 5.856z"/><path d="m118.407 29.3601h6.003l3.415-14.6758h.215l3.415 14.6758h5.967l4.779-18.7107h-4.275l-3.415 14.7114h-.324l-3.415-14.7114h-5.643l-3.451 14.7114h-.324l-3.379-14.7114h-4.529z"/><path d="m144.35 29.3601h4.241v-9.2483c0-3.535 1.654-5.7131 4.745-5.7131h1.869v-4.2135h-1.402c-2.408 0-4.241 1.6425-4.96 3.2136h-.288v-2.7494h-4.205z"/><path d="m176.255 29.3601h3.307v-3.7493h-3.271c-1.294 0-1.834-.5713-1.834-1.8925v-9.3554h5.32v-3.7135h-5.32v-5.24901h-4.026v5.24901h-3.522v3.7135h3.271v9.3911c0 3.9635 2.408 5.6061 6.075 5.6061z"/><path d="m190.941 29.3898c3.919 0 7.369-1.9282 8.592-5.8203l-3.883-.9284c-.683 2.071-2.66 3.1422-4.744 3.1422-3.092 0-5.141-1.9996-5.177-5.1418h14.271v-1.1784c0-5.5703-3.487-9.7124-9.238-9.7124-5.069 0-9.418 3.9635-9.418 9.8552 0 5.7132 3.846 9.7839 9.597 9.7839zm-5.176-11.8192c.252-2.2495 2.301-4.142 4.997-4.142 2.588 0 4.709 1.6068 4.924 4.142z"/><path clip-rule="evenodd" d="m165.023 29.3601h-4.242v-14.9972h-3.307v-3.7135h7.549z" fill-rule="evenodd"/><path d="m162.586 8.0527c1.546 0 2.696-1.14264 2.696-2.64235 0-1.464-1.15-2.60664-2.696-2.60664-1.545 0-2.696 1.14264-2.696 2.60664 0 1.49971 1.151 2.64235 2.696 2.64235z"/></g><path d="m37.0346 24.7721v8.2574h-20.7438c-6.0436 0-11.32044-3.3209-14.14368-8.2574-.41043-.7176-.76964-1.4705-1.07096-2.252-.591518-1.5313-.963349-3.1746-1.07616-4.8891v-2.2325c.0244919-.3821.0630851-.7612.113553-1.1358.103163-.7686.25902-1.5208.463861-2.252 1.937826-6.93167 8.238906-12.0107 15.713386-12.0107 7.4745 0 13.7748 5.07903 15.7126 12.0107h-8.8697c-1.4562-2.25949-3.9766-3.75332-6.8429-3.75332s-5.3867 1.49383-6.84288 3.75332c-.44382.6869-.7882 1.4443-1.01382 2.252-.20038.7162-.30726 1.4714-.30726 2.2521 0 2.3668.98413 4.5002 2.56196 6.0053 1.4621 1.397 3.4333 2.252 5.602 2.252z" fill="#fd366e"/><path d="m37.0347 14.2627v8.2574h-15.1419c1.5778-1.5051 2.562-3.6385 2.562-6.0054 0-.7807-.1069-1.5359-.3073-2.252z" fill="#fd366e"/></svg>