<svg xmlns="http://www.w3.org/2000/svg" width="257" height="140" fill="none" viewBox="0 0 257 140"><rect width="136.007" height="254" x="1.5" y="137.507" stroke="#282826" stroke-width="3" rx="68.004" transform="rotate(-90 1.5 137.507)"/><line x1="256" x2="0" y1="69.384" y2="69.384" stroke="#282826" stroke-width="3.733"/><path fill="#FF8F40" d="M140 70.4964C140 88.9299 132.625 106.608 119.497 119.643C106.37 132.677 88.5652 140 70 140C51.4348 140 33.6301 132.677 20.5025 119.643C7.37498 106.608 4.27519e-06 88.9299 6.11959e-06 70.4964L70 70.4964L140 70.4964Z"/><path stroke="#282826" stroke-width="3" d="M70 2.4929C107.842 2.4929 138.5 32.9492 138.5 70.4964C138.5 108.044 107.842 138.5 70 138.5C32.1584 138.5 1.5 108.044 1.50001 70.4964C1.50001 32.9492 32.1584 2.49289 70 2.4929Z"/></svg>